<?xml version="1.0" encoding="utf-8"?>
<!-- Generator: Adobe Illustrator 25.3.1, SVG Export Plug-In . SVG Version: 6.00 Build 0)  -->
<svg version="1.1" id="Layer_1" xmlns="http://www.w3.org/2000/svg" xmlns:xlink="http://www.w3.org/1999/xlink" x="0px" y="0px"
	 viewBox="0 0 358.5 337.5" style="enable-background:new 0 0 358.5 337.5;" xml:space="preserve">
<style type="text/css">
	.st0{fill:#ABC9F4;}
	.st1{fill:#D5E2F7;}
	.st2{fill:url(#SVGID_1_);}
	.st3{fill:#FFFFFF;}
	.st4{fill:#1D262D;}
	.st5{fill:#2A373F;}
	.st6{fill:#EBF1FD;}
	.st7{fill:#B1CCFB;}
	.st8{fill:url(#SVGID_2_);}
	.st9{fill:url(#SVGID_3_);}
	.st10{fill:#EFD9B9;}
	.st11{fill:none;}
	.st12{fill:url(#SVGID_4_);}
	.st13{opacity:0.2;fill:url(#SVGID_5_);enable-background:new    ;}
	.st14{fill:#072F56;}
	.st15{fill:url(#SVGID_6_);}
	.st16{opacity:0.5;}
	.st17{fill:url(#SVGID_7_);}
	.st18{fill:url(#SVGID_8_);}
	.st19{fill:url(#SVGID_9_);}
	.st20{fill:url(#SVGID_10_);}
</style>
<g id="bg">
</g>
<path class="st0" d="M116.8,299.5c7.7,5.4,14.5,12,20.4,19.4c1.7,2.1,3.5,4,5.4,5.8c2.1,1.8,4.7,3.6,7.4,2.9c4.1-1,4.9-6.5,4.2-10.6
	c-2.9-18-16.3-31.9-20.9-49.4c-0.7-2.7-1.3-5.5-1.9-8.3L122,254l8.4,0.2c-2.2-11.2-4.8-22.5-13.3-30.6l-5.3,6.5c0,0,1.8-4.4,3.4-8.3
	c-5.9-5.3-12.4-10.2-15.8-17.4c-2.5-5.2-2.8-11-3.5-16.8l-9.7-1.7c0,0,4.8-2.6,8.6-5.2c-0.1-0.6-0.3-1.2-0.4-1.8
	c-2.6-9.4-9.2-16.5-16.3-22.8c-4-3.5-8.1-7-12.5-10.1c-1.3,1.5-2.5,2.8-2.5,2.8l-0.9-4.9c-2.5-1.5-5-2.9-7.7-3.9
	c-1.9-0.8-8.5-3.4-10.3-1.8c-5.3,4.4-4.8,12.9-1.9,19.2c2.8,5.9,6.5,11,8.8,16.9l4.9,0.1l-3.4,4.6c0.1,0.5,0.2,1,0.3,1.5
	c2,11.7-1.2,25.9,0.5,37.6c4.9-2.9,9.9-5.4,9.9-5.4l-7.2,14.2c2.5,4.9,6.9,9,14.3,11.6c2.4,0.9,4.8,1.6,7.1,2.4l0.8-4.8l2.1,5.9
	c2.9,1.2,5.7,2.8,8.1,5.2c7.1,7.2,8.8,17.6,11.4,27.3c2.6,1.3,4.9,2.5,4.9,2.5l-3.3,2.8c0.8,2.4,1.8,4.7,3.1,6.9
	C107.5,291.8,111.8,296,116.8,299.5z"/>
<path class="st0" d="M95.2,259c2.7-2.5,17.3-16.4,10.2-20.4c-6.8-3.8-9.9,14.8-10.6,19.5c-2.1-5.2-4.2-10.1-6.4-14.5
	c3.7-3.5,16.3-16.1,9.7-19.9c-6.3-3.5-9.4,12.2-10.4,18.3c-2.1-4.4-4.3-8.4-6.4-12.1c2-3.9,10.3-21.1,2.5-22.4
	c-7.1-1.2-4.8,14.3-3.6,20.5c-2.9-4.8-5.7-9-8.5-12.6c1.5-4.3,7-22.3-0.8-22.4c-7-0.1-2.8,14.3-0.7,20.5c-3.9-5-7.7-9-11.2-12.2
	c0.4-4.9,1.4-23.1-6.2-21.4c-6.5,1.5,0.1,13.5,3.8,19.3c-0.7-0.6-1.4-1.1-2-1.6c-3-2.4-5.9-4.1-8.5-5.6c-0.6-4.3-3.8-23.2-10.9-19.8
	c-6.4,3.1,4.2,14.2,8.8,18.7c-6.9-3.3-11.5-3.6-12.4-3.6c-4.4-4.1-16.3-14.7-19.6-8.2c-3.3,6.5,13,9,18.9,9.7
	c0.1,0.1,0.3,0.2,0.5,0.2c0.1,0,4.8,0.1,12,3.6c-6.1-0.4-21.8-0.7-20.1,6.3c1.8,7.8,18.3-3,21.8-5.4c2.6,1.4,5.5,3.2,8.6,5.6
	c1,0.8,2.1,1.7,3.2,2.6c-5.7-0.3-22.3-0.6-20.6,6.6c1.9,7.6,17.8-3,21.6-5.7c3.7,3.3,7.7,7.6,11.9,13.1c-5.1-0.3-22.9-0.9-21.1,6.5
	c1.9,7.7,18.2-3.2,21.7-5.7c2.9,3.8,5.9,8.3,8.8,13.3c-5-0.8-22.8-3.3-21.7,4.3c1.1,7.9,18.4-1.4,22.2-3.5c2.3,4,4.7,8.4,7,13.3
	c-4.5-1-22.9-4.6-22.2,3.2c0.7,8.1,19-0.8,22.5-2.5c2.1,4.4,4.2,9.1,6.2,14.3c-4.6-1-22.8-4.6-22.1,3.2c0.7,8,18.8-0.6,22.4-2.5
	c1.3,3.4,2.6,6.9,3.9,10.5c0.1,0.4,0.5,0.6,0.9,0.5c0.1,0,0.1,0,0.1,0c0.4-0.1,0.7-0.6,0.5-1.1C97.8,265.9,96.5,262.4,95.2,259z"/>
<g>
	<path class="st1" d="M137.3,300.5c-15.8-18.5-18.8-30.6-21.5-41.3c-1.3-5.1-2.5-10-5-14.8c-2.9-5.4-7.9-10.6-13.3-16.1
		c-8.8-9-17.8-18.3-18.5-29.8C78,179.1,56,154.2,55.8,153.9l-1.6,1.6l0.8-0.8l-0.8,0.8c0.2,0.2,21.6,24.4,22.6,43.2
		c0.7,12.3,10.1,21.9,19.1,31.2c5.2,5.4,10.1,10.4,12.9,15.6c2.4,4.5,3.5,9,4.8,14.2c2.6,10.4,5.8,23.4,21.9,42.3L137.3,300.5z"/>
</g>
<path class="st0" d="M221.6,240.6c-9.2,1.9-18.1,5.3-26.4,9.8c-2.4,1.3-4.8,2.3-7.3,3.1c-2.6,0.8-5.7,1.4-7.9-0.2
	c-3.4-2.5-1.9-7.9,0.3-11.4c9.8-15.4,27.6-22.9,38.7-37.1c1.7-2.2,3.4-4.5,5-6.9l10.8-1.1l-7.8-3.1c6.5-9.4,13.4-18.8,24.3-22.8
	l2.3,8.1c0,0,0.1-4.8,0.2-8.9c7.5-2.5,15.5-4.4,21.4-9.7c4.3-3.8,7-9,9.8-14l9.5,2.2c0,0-3.4-4.3-5.8-8.2c0.4-0.5,0.7-1,1.1-1.5
	c6.1-7.6,15-11.5,24-14.5c5-1.7,10.2-3.2,15.5-4.3c0.6,1.9,1.1,3.5,1.1,3.5l2.8-4.2c2.9-0.4,5.8-0.6,8.7-0.6c2,0,9.1,0.3,10.2,2.4
	c3.2,6.2-0.7,13.8-5.9,18.4c-4.9,4.4-10.3,7.5-14.7,12l-4.5-1.9l1.3,5.6c-0.3,0.4-0.6,0.8-0.9,1.3c-6.5,10-9.1,24.2-15.4,34.3
	c-3.4-4.6-6.9-8.9-6.9-8.9l1,15.9c-4.3,3.5-9.9,5.5-17.7,5c-2.5-0.2-5-0.5-7.5-0.7l1.1-4.8l-4.2,4.6c-3.1-0.1-6.3,0.3-9.5,1.6
	c-9.3,3.8-15,12.7-21.3,20.6c-2.9,0.2-5.5,0.3-5.5,0.3l1.9,3.9c-1.7,1.9-3.5,3.6-5.5,5.1C233.2,237.2,227.5,239.4,221.6,240.6z"/>
<g>
	<path class="st1" d="M202.4,233.4c21.8-10.7,29.4-20.6,36.1-29.4c3.2-4.2,6.2-8.2,10.5-11.6c4.8-3.8,11.5-6.6,18.5-9.5
		c11.6-4.8,23.6-9.8,28.8-20c8.7-17.4,38.8-31.6,39.1-31.8l0.9,2.1l-0.4-1.1l0.4,1.1c-0.3,0.1-29.5,13.8-37.9,30.6
		c-5.5,11-17.9,16.1-29.9,21.1c-6.9,2.9-13.4,5.6-18,9.2c-4,3.2-6.8,6.9-10.1,11.1c-6.5,8.6-14.6,19.2-36.9,30.1L202.4,233.4z"/>
</g>
<path class="st0" d="M242.6,206.6c-7.7,5.4-14.5,12.1-20.4,19.4c-1.7,2.1-3.5,4-5.4,5.8c-2.1,1.8-4.7,3.6-7.4,2.9
	c-4.1-1-4.9-6.5-4.2-10.6c2.9-18,16.3-31.9,20.9-49.4c0.7-2.7,1.3-5.4,1.9-8.3l9.4-5.3l-8.4,0.2c2.2-11.2,4.8-22.5,13.3-30.6
	l5.3,6.5c0,0-1.8-4.4-3.4-8.3c5.9-5.3,12.4-10.2,15.8-17.4c2.5-5.2,2.8-11,3.5-16.8l9.7-1.7c0,0-4.8-2.6-8.6-5.2
	c0.1-0.6,0.3-1.2,0.5-1.8c2.6-9.4,9.2-16.5,16.3-22.8c4-3.5,8.1-7,12.5-10c1.3,1.5,2.5,2.8,2.5,2.8l0.9-5c2.5-1.5,5-2.8,7.7-4
	c1.9-0.8,8.5-3.4,10.3-1.8c5.4,4.4,4.8,12.9,1.9,19.2c-2.8,5.9-6.5,11-8.8,16.9l-4.9,0.1l3.4,4.6c-0.1,0.5-0.2,1-0.3,1.5
	c-2,11.7,1.2,25.9-0.5,37.6c-4.9-2.9-9.9-5.4-9.9-5.4l7.2,14.2c-2.5,4.9-6.9,9-14.3,11.6c-2.4,0.9-4.8,1.6-7.1,2.4l-0.9-4.8l-2,5.9
	c-2.9,1.2-5.7,2.8-8.1,5.2c-7.1,7.2-8.8,17.6-11.5,27.3c-2.6,1.3-4.9,2.4-4.9,2.4l3.3,2.8c-0.8,2.4-1.8,4.7-3.1,6.9
	C251.9,198.9,247.6,203.1,242.6,206.6z"/>
<path class="st0" d="M264.2,166.1c-2.7-2.5-17.3-16.4-10.2-20.4c6.8-3.8,9.9,14.8,10.6,19.5c2.1-5.2,4.2-10.1,6.4-14.5
	c-3.7-3.5-16.3-16.1-9.7-19.9c6.3-3.5,9.5,12.2,10.4,18.3c2.1-4.4,4.3-8.4,6.4-12.1c-2-3.9-10.3-21.1-2.5-22.4
	c7-1.2,4.8,14.3,3.6,20.5c2.9-4.8,5.7-9,8.5-12.6c-1.5-4.3-7-22.3,0.8-22.4c7-0.1,2.8,14.3,0.7,20.5c4-5,7.7-9,11.2-12.2
	c-0.4-4.8-1.4-23.1,6.2-21.4c6.5,1.5-0.1,13.5-3.8,19.3c0.7-0.6,1.4-1.1,2-1.7c3-2.4,5.9-4.2,8.5-5.6c0.6-4.3,3.8-23.2,10.9-19.8
	c6.4,3.1-4.1,14.2-8.8,18.7c6.9-3.3,11.5-3.6,12.4-3.6c4.4-4.2,16.3-14.7,19.6-8.2c3.3,6.5-13,9-18.9,9.7c-0.1,0.1-0.3,0.2-0.5,0.2
	c-0.1,0-4.8,0.1-12,3.6c6.1-0.4,21.8-0.7,20.1,6.3c-1.8,7.8-18.3-3-21.8-5.4c-2.6,1.4-5.5,3.2-8.6,5.6c-1,0.8-2.1,1.7-3.1,2.6
	c5.7-0.3,22.4-0.7,20.6,6.6c-1.9,7.6-17.8-3-21.6-5.7c-3.7,3.3-7.7,7.6-11.9,13.1c5.1-0.3,22.9-0.9,21.1,6.5
	c-1.9,7.7-18.2-3.2-21.7-5.7c-2.9,3.8-5.9,8.3-8.9,13.3c5-0.8,22.8-3.3,21.7,4.3c-1.1,7.9-18.4-1.4-22.2-3.5c-2.3,4-4.7,8.4-7,13.3
	c4.5-1,22.9-4.6,22.2,3.2c-0.7,8.1-19-0.8-22.5-2.5c-2.1,4.4-4.2,9.1-6.2,14.3c4.6-1,22.8-4.6,22.1,3.2c-0.7,8-18.8-0.6-22.4-2.4
	c-1.3,3.4-2.6,6.9-3.9,10.5c-0.1,0.4-0.5,0.6-0.9,0.5c0,0-0.1,0-0.1,0c-0.4-0.1-0.7-0.6-0.5-1.1C261.5,173,262.9,169.5,264.2,166.1z
	"/>
<g>
	<path class="st1" d="M222.1,207.6c15.8-18.5,18.8-30.6,21.5-41.3c1.3-5.1,2.5-10,5-14.8c2.9-5.4,7.9-10.6,13.3-16.1
		c8.8-9,17.8-18.3,18.5-29.8c1.1-19.5,23.1-44.4,23.3-44.7l1.6,1.6l-0.8-0.8l0.8,0.8c-0.2,0.2-21.6,24.4-22.6,43.2
		c-0.7,12.3-10.1,21.9-19.1,31.2c-5.2,5.4-10.1,10.4-12.9,15.6c-2.4,4.5-3.5,9-4.8,14.2c-2.6,10.4-5.8,23.4-21.9,42.3L222.1,207.6z"
		/>
</g>
<g>
	<g>
		<g>
			
				<linearGradient id="SVGID_1_" gradientUnits="userSpaceOnUse" x1="84.69" y1="149.005" x2="291.37" y2="149.005" gradientTransform="matrix(1 0 0 -1 0 338)">
				<stop  offset="0" style="stop-color:#008BEC"/>
				<stop  offset="1" style="stop-color:#3F99EF"/>
			</linearGradient>
			<path class="st2" d="M283.6,332.6H92.5c-4.3,0-7.8-3.5-7.8-7.8V53.2c0-4.3,3.5-7.8,7.8-7.8h191.1c4.3,0,7.8,3.5,7.8,7.8v271.7
				C291.4,329.1,287.9,332.6,283.6,332.6z"/>
		</g>
		<g>
			<path class="st3" d="M279,324.8H97c-2.4,0-4.4-2-4.4-4.4V57.5c0-2.4,1.9-4.4,4.4-4.4h182c2.4,0,4.4,2,4.4,4.4v262.9
				C283.4,322.9,281.4,324.8,279,324.8z"/>
		</g>
		<g>
			<g>
				<path class="st4" d="M241.2,36.6v21.6H136V36.6c0-7.7,6.2-14,13.9-14h29.9c0,0.1,0,0.1,0,0.2c0,4.9,3.9,8.8,8.8,8.8
					s8.8-3.9,8.8-8.8c0-0.1,0-0.1,0-0.2h29.9C235,22.7,241.2,28.9,241.2,36.6z"/>
			</g>
			<g>
				<path class="st4" d="M188.6,4.4c-10.1,0-18.3,8.1-18.4,18.2v0.2c0,10.2,8.2,18.4,18.4,18.4S207,33.1,207,22.9v-0.2
					C206.9,12.6,198.7,4.4,188.6,4.4z M188.6,31.7c-4.9,0-8.8-3.9-8.8-8.8c0-0.1,0-0.1,0-0.2c0.1-4.8,4-8.6,8.8-8.6s8.7,3.8,8.8,8.6
					c0,0.1,0,0.1,0,0.2C197.4,27.7,193.4,31.7,188.6,31.7z"/>
			</g>
			<g>
				<rect x="136" y="50.7" class="st5" width="105.2" height="7.5"/>
			</g>
		</g>
	</g>
	<g>
		<g>
			<rect x="103.1" y="63.4" class="st6" width="79.3" height="90.4"/>
		</g>
		<g>
			<g>
				<g>
					<path class="st7" d="M178,150.7h-2c-0.2,0-0.3-0.1-0.3-0.3c0-0.2,0.1-0.3,0.3-0.3h1.4v-1.4c0-0.2,0.1-0.3,0.3-0.3
						c0.2,0,0.3,0.1,0.3,0.3V150.7z"/>
				</g>
				<g>
					<path class="st7" d="M170.6,150.7h-3.3c-0.2,0-0.3-0.1-0.3-0.3c0-0.2,0.1-0.3,0.3-0.3h3.3c0.2,0,0.3,0.1,0.3,0.3
						C170.9,150.6,170.8,150.7,170.6,150.7z M161.9,150.7h-3.3c-0.2,0-0.3-0.1-0.3-0.3c0-0.2,0.1-0.3,0.3-0.3h3.3
						c0.2,0,0.3,0.1,0.3,0.3C162.2,150.6,162,150.7,161.9,150.7z M153.1,150.7h-3.3c-0.2,0-0.3-0.1-0.3-0.3c0-0.2,0.1-0.3,0.3-0.3
						h3.3c0.2,0,0.3,0.1,0.3,0.3C153.4,150.6,153.3,150.7,153.1,150.7z M144.4,150.7h-3.3c-0.2,0-0.3-0.1-0.3-0.3
						c0-0.2,0.1-0.3,0.3-0.3h3.3c0.2,0,0.3,0.1,0.3,0.3C144.7,150.6,144.6,150.7,144.4,150.7z M135.7,150.7h-3.3
						c-0.2,0-0.3-0.1-0.3-0.3c0-0.2,0.1-0.3,0.3-0.3h3.3c0.2,0,0.3,0.1,0.3,0.3C136,150.6,135.9,150.7,135.7,150.7z M127,150.7h-3.3
						c-0.2,0-0.3-0.1-0.3-0.3c0-0.2,0.1-0.3,0.3-0.3h3.3c0.2,0,0.3,0.1,0.3,0.3C127.2,150.6,127.1,150.7,127,150.7z M118.2,150.7
						H115c-0.2,0-0.3-0.1-0.3-0.3c0-0.2,0.1-0.3,0.3-0.3h3.3c0.2,0,0.3,0.1,0.3,0.3C118.5,150.6,118.4,150.7,118.2,150.7z"/>
				</g>
				<g>
					<path class="st7" d="M109.5,150.7h-2v-2c0-0.2,0.1-0.3,0.3-0.3c0.2,0,0.3,0.1,0.3,0.3v1.4h1.4c0.2,0,0.3,0.1,0.3,0.3
						C109.8,150.6,109.7,150.7,109.5,150.7z"/>
				</g>
				<g>
					<path class="st7" d="M107.8,143.2c-0.2,0-0.3-0.1-0.3-0.3v-3.5c0-0.2,0.1-0.3,0.3-0.3c0.2,0,0.3,0.1,0.3,0.3v3.5
						C108.1,143.1,108,143.2,107.8,143.2z M107.8,133.9c-0.2,0-0.3-0.1-0.3-0.3v-3.5c0-0.2,0.1-0.3,0.3-0.3c0.2,0,0.3,0.1,0.3,0.3
						v3.5C108.1,133.8,108,133.9,107.8,133.9z M107.8,124.6c-0.2,0-0.3-0.1-0.3-0.3v-3.5c0-0.2,0.1-0.3,0.3-0.3
						c0.2,0,0.3,0.1,0.3,0.3v3.5C108.1,124.4,108,124.6,107.8,124.6z M107.8,115.3c-0.2,0-0.3-0.1-0.3-0.3v-3.5
						c0-0.2,0.1-0.3,0.3-0.3c0.2,0,0.3,0.1,0.3,0.3v3.5C108.1,115.1,108,115.3,107.8,115.3z M107.8,106c-0.2,0-0.3-0.1-0.3-0.3v-3.5
						c0-0.2,0.1-0.3,0.3-0.3c0.2,0,0.3,0.1,0.3,0.3v3.5C108.1,105.8,108,106,107.8,106z M107.8,96.7c-0.2,0-0.3-0.1-0.3-0.3v-3.5
						c0-0.2,0.1-0.3,0.3-0.3c0.2,0,0.3,0.1,0.3,0.3v3.5C108.1,96.5,108,96.7,107.8,96.7z M107.8,87.3c-0.2,0-0.3-0.1-0.3-0.3v-3.5
						c0-0.2,0.1-0.3,0.3-0.3c0.2,0,0.3,0.1,0.3,0.3v3.5C108.1,87.2,108,87.3,107.8,87.3z M107.8,78.1c-0.2,0-0.3-0.1-0.3-0.3v-3.5
						c0-0.2,0.1-0.3,0.3-0.3c0.2,0,0.3,0.1,0.3,0.3v3.5C108.1,77.9,108,78.1,107.8,78.1z"/>
				</g>
				<g>
					<path class="st7" d="M107.8,68.7c-0.2,0-0.3-0.1-0.3-0.3v-2h2c0.2,0,0.3,0.1,0.3,0.3c0,0.2-0.1,0.3-0.3,0.3h-1.4v1.4
						C108.1,68.6,108,68.7,107.8,68.7z"/>
				</g>
				<g>
					<path class="st7" d="M170.6,67.1h-3.3c-0.2,0-0.3-0.1-0.3-0.3c0-0.2,0.1-0.3,0.3-0.3h3.3c0.2,0,0.3,0.1,0.3,0.3
						C170.9,66.9,170.8,67.1,170.6,67.1z M161.9,67.1h-3.3c-0.2,0-0.3-0.1-0.3-0.3c0-0.2,0.1-0.3,0.3-0.3h3.3c0.2,0,0.3,0.1,0.3,0.3
						C162.2,66.9,162,67.1,161.9,67.1z M153.1,67.1h-3.3c-0.2,0-0.3-0.1-0.3-0.3c0-0.2,0.1-0.3,0.3-0.3h3.3c0.2,0,0.3,0.1,0.3,0.3
						C153.4,66.9,153.3,67.1,153.1,67.1z M144.4,67.1h-3.3c-0.2,0-0.3-0.1-0.3-0.3c0-0.2,0.1-0.3,0.3-0.3h3.3c0.2,0,0.3,0.1,0.3,0.3
						C144.7,66.9,144.6,67.1,144.4,67.1z M135.7,67.1h-3.3c-0.2,0-0.3-0.1-0.3-0.3c0-0.2,0.1-0.3,0.3-0.3h3.3c0.2,0,0.3,0.1,0.3,0.3
						C136,66.9,135.9,67.1,135.7,67.1z M127,67.1h-3.3c-0.2,0-0.3-0.1-0.3-0.3c0-0.2,0.1-0.3,0.3-0.3h3.3c0.2,0,0.3,0.1,0.3,0.3
						C127.2,66.9,127.1,67.1,127,67.1z M118.2,67.1H115c-0.2,0-0.3-0.1-0.3-0.3c0-0.2,0.1-0.3,0.3-0.3h3.3c0.2,0,0.3,0.1,0.3,0.3
						C118.5,66.9,118.4,67.1,118.2,67.1z"/>
				</g>
				<g>
					<path class="st7" d="M177.8,68.7c-0.2,0-0.3-0.1-0.3-0.3V67h-1.4c-0.2,0-0.3-0.1-0.3-0.3c0-0.2,0.1-0.3,0.3-0.3h2v2
						C178,68.6,177.9,68.7,177.8,68.7z"/>
				</g>
				<g>
					<path class="st7" d="M177.8,143.2c-0.2,0-0.3-0.1-0.3-0.3v-3.5c0-0.2,0.1-0.3,0.3-0.3c0.2,0,0.3,0.1,0.3,0.3v3.5
						C178,143.1,177.9,143.2,177.8,143.2z M177.8,133.9c-0.2,0-0.3-0.1-0.3-0.3v-3.5c0-0.2,0.1-0.3,0.3-0.3c0.2,0,0.3,0.1,0.3,0.3
						v3.5C178,133.8,177.9,133.9,177.8,133.9z M177.8,124.6c-0.2,0-0.3-0.1-0.3-0.3v-3.5c0-0.2,0.1-0.3,0.3-0.3
						c0.2,0,0.3,0.1,0.3,0.3v3.5C178,124.4,177.9,124.6,177.8,124.6z M177.8,115.3c-0.2,0-0.3-0.1-0.3-0.3v-3.5
						c0-0.2,0.1-0.3,0.3-0.3c0.2,0,0.3,0.1,0.3,0.3v3.5C178,115.1,177.9,115.3,177.8,115.3z M177.8,106c-0.2,0-0.3-0.1-0.3-0.3v-3.5
						c0-0.2,0.1-0.3,0.3-0.3c0.2,0,0.3,0.1,0.3,0.3v3.5C178,105.8,177.9,106,177.8,106z M177.8,96.7c-0.2,0-0.3-0.1-0.3-0.3v-3.5
						c0-0.2,0.1-0.3,0.3-0.3c0.2,0,0.3,0.1,0.3,0.3v3.5C178,96.5,177.9,96.7,177.8,96.7z M177.8,87.3c-0.2,0-0.3-0.1-0.3-0.3v-3.5
						c0-0.2,0.1-0.3,0.3-0.3c0.2,0,0.3,0.1,0.3,0.3v3.5C178,87.2,177.9,87.3,177.8,87.3z M177.8,78.1c-0.2,0-0.3-0.1-0.3-0.3v-3.5
						c0-0.2,0.1-0.3,0.3-0.3c0.2,0,0.3,0.1,0.3,0.3v3.5C178,77.9,177.9,78.1,177.8,78.1z"/>
				</g>
			</g>
		</g>
		<g>
			<rect x="185.6" y="63.4" class="st6" width="87.3" height="90.1"/>
		</g>
		<polygon class="st6" points="272.9,159.1 182.4,159.1 174.2,159.1 103.1,159.1 103.1,223 182.4,223 182.4,222.8 272.9,222.8 		"/>
		<polygon class="st6" points="272.9,310.4 182.4,310.4 174.2,310.4 103.1,310.4 103.1,318.3 182.4,318.3 182.4,318.3 272.9,318.3 
					"/>
		<g>
			<rect x="185.6" y="63.4" class="st6" width="87.3" height="18.9"/>
		</g>
		<g>
			
				<linearGradient id="SVGID_2_" gradientUnits="userSpaceOnUse" x1="151.9829" y1="221.5559" x2="172.9829" y2="212.5559" gradientTransform="matrix(1 0 0 -1 0 338)">
				<stop  offset="6.180000e-02" style="stop-color:#E38204"/>
				<stop  offset="1" style="stop-color:#E35802"/>
			</linearGradient>
			<path class="st8" d="M169.5,111.9c0,8-3.2,15.2-8.5,20.4l-20.4-20.4H169.5z"/>
			
				<linearGradient id="SVGID_3_" gradientUnits="userSpaceOnUse" x1="135.7294" y1="224.3379" x2="103.7295" y2="213.0046" gradientTransform="matrix(1 0 0 -1 0 338)">
				<stop  offset="0" style="stop-color:#00A9F4"/>
				<stop  offset="1" style="stop-color:#0077EC"/>
			</linearGradient>
			<path class="st9" d="M161.1,132.4c-5.2,5.2-12.4,8.5-20.4,8.5c-16,0-28.9-12.9-28.9-28.9S124.7,83,140.6,83v28.9L161.1,132.4z"/>
			<g>
				<path class="st0" d="M172.3,109.1h-28.9V80.2C159.4,80.2,172.3,93.2,172.3,109.1z"/>
			</g>
		</g>
		<g>
			<g>
				<g>
					<rect x="189.3" y="83.7" class="st0" width="78.3" height="13.1"/>
				</g>
			</g>
			<g>
				<g>
					<rect x="189.3" y="103.9" class="st0" width="78.3" height="4.5"/>
				</g>
			</g>
		</g>
		<g>
			<g>
				<path class="st6" d="M142.8,254.2v50.3h-13v-50.3c0-0.1,0-0.2,0.1-0.2c0.4-0.7,2.6-1.3,5.4-1.4c0.3,0,0.7,0,1,0c0.3,0,0.7,0,1,0
					c2.8,0.1,5,0.7,5.4,1.4C142.8,254,142.8,254.1,142.8,254.2z"/>
				<g>
					<path class="st0" d="M142.8,254.2c0,0.1,0,0.2-0.1,0.2c-0.5,0.8-3.2,1.4-6.4,1.4c-3.3,0-6-0.6-6.4-1.4c0-0.1-0.1-0.1-0.1-0.2
						s0-0.2,0.1-0.2c0.4-0.7,2.6-1.3,5.4-1.4c0.3,0,0.7,0,1,0c0.3,0,0.7,0,1,0c2.8,0.1,5,0.7,5.4,1.4
						C142.8,254,142.8,254.1,142.8,254.2z"/>
				</g>
			</g>
			<g>
				<path class="st6" d="M169.6,274.4v30h-13v-30c0-0.1,0-0.2,0.1-0.2c0.4-0.7,2.6-1.3,5.4-1.4c0.3,0,0.7,0,1,0c0.3,0,0.7,0,1,0
					c2.8,0.1,5,0.7,5.4,1.4C169.6,274.2,169.6,274.3,169.6,274.4z"/>
				<g>
					<path class="st0" d="M169.6,274.4c0,0.1,0,0.2-0.1,0.2c-0.5,0.8-3.2,1.4-6.4,1.4c-3.3,0-6-0.6-6.4-1.4c0-0.1-0.1-0.1-0.1-0.2
						c0-0.1,0-0.2,0.1-0.2c0.4-0.7,2.6-1.3,5.4-1.4c0.3,0,0.7,0,1,0c0.3,0,0.7,0,1,0c2.8,0.1,5,0.7,5.4,1.4
						C169.6,274.2,169.6,274.3,169.6,274.4z"/>
				</g>
			</g>
			<g>
				<path class="st6" d="M196.5,244.1v60.4h-13v-60.4c0-0.1,0-0.2,0.1-0.2c0.4-0.7,2.6-1.3,5.4-1.4c0.3,0,0.7,0,1,0c0.3,0,0.7,0,1,0
					c2.8,0.1,5,0.7,5.4,1.4C196.4,243.9,196.5,244,196.5,244.1z"/>
				<g>
					<path class="st0" d="M196.5,244.1c0,0.1,0,0.2-0.1,0.2c-0.5,0.8-3.2,1.4-6.4,1.4c-3.3,0-6-0.6-6.4-1.4c0-0.1-0.1-0.1-0.1-0.2
						s0-0.2,0.1-0.2c0.4-0.7,2.6-1.3,5.4-1.4c0.3,0,0.7,0,1,0c0.3,0,0.7,0,1,0c2.8,0.1,5,0.7,5.4,1.4
						C196.4,243.9,196.5,244,196.5,244.1z"/>
				</g>
			</g>
			<g>
				<path class="st6" d="M223.3,258.2v46.2h-13v-46.2c0-0.1,0-0.2,0.1-0.2c0.4-0.7,2.6-1.3,5.4-1.4c0.3,0,0.7,0,1,0c0.3,0,0.7,0,1,0
					c2.8,0.1,5,0.7,5.4,1.4C223.3,258,223.3,258.1,223.3,258.2z"/>
				<g>
					<path class="st0" d="M223.3,258.2c0,0.1,0,0.2-0.1,0.2c-0.5,0.8-3.2,1.4-6.4,1.4c-3.3,0-6-0.6-6.4-1.4c0-0.1-0.1-0.1-0.1-0.2
						c0-0.1,0-0.2,0.1-0.2c0.4-0.7,2.6-1.3,5.4-1.4c0.3,0,0.7,0,1,0c0.3,0,0.7,0,1,0c2.8,0.1,5,0.7,5.4,1.4
						C223.3,258,223.3,258.1,223.3,258.2z"/>
				</g>
			</g>
			<g>
				<path class="st6" d="M250.1,234v70.5h-13V234c0-0.1,0-0.2,0.1-0.2c0.4-0.7,2.6-1.3,5.4-1.4c0.3,0,0.7,0,1,0c0.3,0,0.7,0,1,0
					c2.8,0.1,5,0.7,5.4,1.4C250.1,233.8,250.1,233.9,250.1,234z"/>
				<g>
					<path class="st0" d="M250.1,234c0,0.1,0,0.2-0.1,0.2c-0.5,0.8-3.2,1.4-6.4,1.4c-3.3,0-6-0.6-6.4-1.4c0-0.1-0.1-0.1-0.1-0.2
						s0-0.2,0.1-0.2c0.4-0.7,2.6-1.3,5.4-1.4c0.3,0,0.7,0,1,0c0.3,0,0.7,0,1,0c2.8,0.1,5,0.7,5.4,1.4
						C250.1,233.8,250.1,233.9,250.1,234z"/>
				</g>
			</g>
		</g>
		<g>
			<g>
				<path class="st0" d="M237,166.8c-13.1,0-23.8,10.6-23.8,23.8c0,13.1,10.6,23.8,23.8,23.8c13.1,0,23.8-10.6,23.8-23.8
					S250.2,166.8,237,166.8z M237,206.1c-8.6,0-15.6-7-15.6-15.6c0-8.6,7-15.6,15.6-15.6s15.6,7,15.6,15.6S245.6,206.1,237,206.1z"
					/>
			</g>
			<path class="st3" d="M260.8,190.6c0,6.5-2.6,12.3-6.8,16.6l-5.8-5.8c2.7-2.8,4.4-6.6,4.4-10.8c0-8.6-7-15.6-15.6-15.6v-8.2
				C250.2,166.8,260.8,177.4,260.8,190.6z"/>
		</g>
		<g>
			<path class="st3" d="M208,132.9c0,3.9-3.2,7.1-7.1,7.1s-7.1-3.2-7.1-7.1s3.2-7.1,7.1-7.1C204.8,125.7,208,128.9,208,132.9z"/>
			<path class="st3" d="M227.2,132.9c0,3.9-3.2,7.1-7.1,7.1s-7.1-3.2-7.1-7.1s3.2-7.1,7.1-7.1C224,125.7,227.2,128.9,227.2,132.9z"
				/>
			<path class="st3" d="M246.4,132.9c0,3.9-3.2,7.1-7.1,7.1s-7.1-3.2-7.1-7.1s3.2-7.1,7.1-7.1C243.2,125.7,246.4,128.9,246.4,132.9z
				"/>
			<path class="st3" d="M265.6,132.9c0,3.9-3.2,7.1-7.1,7.1s-7.1-3.2-7.1-7.1s3.2-7.1,7.1-7.1C262.4,125.7,265.6,128.9,265.6,132.9z
				"/>
		</g>
		<g>
			<rect x="112.1" y="170.1" class="st3" width="90.1" height="9.3"/>
			<rect x="112.1" y="187" class="st3" width="90.1" height="9.3"/>
			<rect x="112.1" y="203.9" class="st3" width="90.1" height="9.3"/>
		</g>
	</g>
</g>
<polygon class="st1" points="18.7,256.6 42.5,270.7 66.1,299.4 91.5,317.4 115.7,330.9 117.3,332.6 132,332.6 111.2,307.9 64.1,276 
	54.4,261.3 33,251 24.3,249.1 "/>
<path class="st0" d="M30.1,276.5c0.3,0.4,0.6,0.8,0.9,1.3c6.5,10,9.1,24.2,15.4,34.3c3.3-4.6,6.9-8.9,6.9-8.9l-1,15.9
	c4.3,3.5,9.9,5.5,17.7,5c2.5-0.2,5-0.5,7.5-0.7l-1.1-4.8l4.2,4.6c3.2,0,6.3,0.3,9.4,1.6c4.2,1.7,7.7,4.5,10.8,7.7h22.1
	c-1.8-2.1-3.3-4.1-4.8-6.1c-3.2-4.3-6.1-8-10.1-11.1c-4.6-3.6-11.1-6.3-18-9.2c-12-5-24.4-10.1-29.9-21.1
	c-8.4-16.8-37.6-30.5-37.9-30.6l0.4-1.1l-0.4,1.1l0.9-2.1c0.3,0.1,30.4,14.3,39.1,31.8c5.1,10.2,17.1,15.2,28.8,20
	c7.1,2.9,13.7,5.7,18.5,9.5c4.2,3.4,7.3,7.4,10.5,11.6c1.8,2.4,3.7,4.9,6,7.5h19.6c-2.2-2.1-4.3-4.3-6.2-6.7c-1.7-2.2-3.4-4.5-5-6.9
	l-10.8-1.1l7.8-3.1c-6.5-9.4-13.3-18.8-24.3-22.8l-2.3,8.1c0,0-0.1-4.8-0.2-8.9c-7.5-2.5-15.4-4.5-21.4-9.7c-4.3-3.8-7-9-9.8-14
	l-9.5,2.2c0,0,3.4-4.3,5.8-8.2c-0.4-0.5-0.7-1-1.1-1.5c-6.1-7.6-15-11.5-24-14.5c-5-1.7-10.2-3.2-15.5-4.3c-0.6,1.9-1.1,3.5-1.1,3.5
	l-2.8-4.2c-2.9-0.4-5.8-0.6-8.7-0.6c-2,0-9.1,0.3-10.2,2.4c-3.2,6.2,0.7,13.8,5.9,18.4c4.9,4.4,10.3,7.5,14.7,12l4.5-1.9L30.1,276.5
	z"/>
<g>
	<path class="st10" d="M125.9,263.1c0.4-4.7,0.6-10.2,0.4-16.1c-0.6-16.5-3.9-29.8-7.4-29.6c-3.5,0.1-5.8,13.6-5.2,30.1
		c0.2,4.6,0.6,8.9,1.1,12.7l0.4,25.2c-0.9,12.9,1.7,32.3,4,39c3.7,11,5.3-1.2,6.2-19.8c0.5-9.7,0.8-17.2,0.4-22.5L125.9,263.1z"/>
	<path class="st10" d="M110.5,213.8c-3.4-0.7-8.8,11.9-12.1,28c-0.9,4.6-1.6,9-2,12.9c-0.4,0.2-0.6,0.3-0.6,0.3s-2.2,10.6-2.9,12.3
		c-0.3,0.8-3,2.9-5.6,4.8c-10.9,7-24.6,20.3-28.6,26.1c-6.7,9.5,4.2,3.5,19.6-6.7c12.5-8.3,20.7-13.9,22.8-18.2
		c1.7-2.8,5.4-9.2,6.4-15.8c0.1-0.5,0.1-0.9,0.1-1.3c1.1-3.6,2.1-7.5,3-11.8C114,228.2,113.9,214.5,110.5,213.8z"/>
	<path class="st10" d="M123.7,185.9c0.7-0.9,1.9-1.2,3-0.9c4.9,1.2,21.4,5.3,20.8,9c-0.7,4.4-15.1-0.2-19.1-2.1
		C125.1,190.4,122,188,123.7,185.9z"/>
	<path class="st10" d="M109,184.1c-1-0.6-2.2-0.4-3.1,0.2c-4.2,2.9-17.9,12.9-16,16.1c2.2,3.8,14-5.8,17-9
		C109.3,188.8,111.3,185.4,109,184.1z"/>
	<g>
		<path class="st10" d="M91.5,197.4c-1.2,0.4-2.1,1.4-2.4,2.7c-1.4,5.7-6.5,26.1-4.4,27.7c2.3,1.8,11-27.4,10-28.6
			C93.8,198.2,93.1,196.9,91.5,197.4z"/>
		<path class="st10" d="M85.6,224c-2-0.5-2.5,3-2.6,4.2c-0.2,1.9,1,4.4,1.8,4.5c0.8,0.1,1-4.4,1.2-4.5c0.2-0.1,0.3,2.1,1,2.1
			s1-2.9,0.6-4.1C87.2,225,86.8,224.4,85.6,224z"/>
	</g>
	<g>
		<path class="st10" d="M144.2,195c1.1,0.6,2.5,0.4,3.6-0.3c5-3.2,22.6-14.6,22.2-17.1c-0.5-2.9-26.8,12.5-26.9,14.1
			C143,192.8,142.7,194.3,144.2,195z"/>
		<path class="st10" d="M171.5,178.4c-0.3,0.3-0.9,0.8-1.5,1.1c-1.1,0.7-2.5,1.2-3.2,0.1c-0.7-1.1-0.6-1.8,0-2.9
			c0.5-1.1,2.7-3.1,3.2-2.6c0.5,0.5-0.9,2.2-0.6,2.2c0,0,0,0,0.1,0c0.5-0.3,3.4-3,3.9-2.4C173.7,174.5,173,177.1,171.5,178.4z"/>
	</g>
	<line class="st11" x1="123.9" y1="177.3" x2="123" y2="184.6"/>
	
		<linearGradient id="SVGID_4_" gradientUnits="userSpaceOnUse" x1="110.9589" y1="114.4017" x2="110.9589" y2="83.6607" gradientTransform="matrix(1 0 0 -1 0 338)">
		<stop  offset="6.180000e-02" style="stop-color:#E38204"/>
		<stop  offset="1" style="stop-color:#E35802"/>
	</linearGradient>
	<path class="st12" d="M128.4,259.9l-30.9-1.7l-3.9-0.2h-0.1c0.7-38.8,7.1-40.9,7.1-40.9s0.7-0.1,1.8-0.1c0.1,0,0.2,0,0.2,0
		c4.2-0.3,13.7-0.6,19.2,1.3c1.4,0.5,2.5,1.2,3.2,2c1.4,1.6,2.2,6.2,2.7,11.8C128.9,243.9,128.4,259.9,128.4,259.9z"/>
	
		<linearGradient id="SVGID_5_" gradientUnits="userSpaceOnUse" x1="117.07" y1="112.795" x2="127.8" y2="112.795" gradientTransform="matrix(1 0 0 -1 0 338)">
		<stop  offset="6.180000e-02" style="stop-color:#E38204"/>
		<stop  offset="1" style="stop-color:#E35802"/>
	</linearGradient>
	<path class="st13" d="M127.8,232.1c-1.9-9.9-10.7-11.1-10.7-11.1v-1.2l4.8-1.5c1.4,0.5,2.5,1.2,3.2,2
		C126.5,222,127.3,226.6,127.8,232.1z"/>
	<path class="st14" d="M125.1,220.3c-11.1,1.9-19.9-1-24.5-3.2c0.7-1.7,1.2-2.4,1.2-2.4l23.2,2.9C124.9,217.6,125,218.6,125.1,220.3
		z"/>
	<g>
		
			<linearGradient id="SVGID_6_" gradientUnits="userSpaceOnUse" x1="106.4411" y1="146.7574" x2="125.1417" y2="126.4984" gradientTransform="matrix(1 0 0 -1 0 338)">
			<stop  offset="0" style="stop-color:#00A9F4"/>
			<stop  offset="1" style="stop-color:#0077EC"/>
		</linearGradient>
		<path class="st15" d="M130.3,195.3C130.3,195.3,130.3,195.3,130.3,195.3c-0.1,0.6-0.1,1.1-0.3,1.6c0,0.1-0.1,0.2-0.1,0.3
			c-0.1,0.2-0.1,0.4-0.1,0.6c-1.1,4.1-2.5,5.3-3.3,10.9c-0.9,6-1.4,9.1-1.4,9.1s-11.4,1.5-23.4-3.1c0,0,0.1-0.2,0.2-0.6
			c0.6-2.3,2.5-10.9,1.9-17.8c-0.1-0.7-0.1-1.3-0.2-1.9c-1.4-8.2,3.4-14.5,12.5-12.8c4.1,0.8,6.6,1.3,8.3,1.9c2.1,0.8,3,1.6,4,3.1
			C129.6,188.5,130.8,191.2,130.3,195.3z"/>
	</g>
	<g class="st16">
		
			<linearGradient id="SVGID_7_" gradientUnits="userSpaceOnUse" x1="101.89" y1="133.67" x2="106.56" y2="133.67" gradientTransform="matrix(1 0 0 -1 0 338)">
			<stop  offset="0" style="stop-color:#00A9F4"/>
			<stop  offset="1" style="stop-color:#0077EC"/>
		</linearGradient>
		<path class="st17" d="M101.9,214.1c0.6-2.3,2.5-10.9,1.9-17.8l2.8-1.7C106.6,194.6,104.3,208.2,101.9,214.1z"/>
	</g>
	
		<linearGradient id="SVGID_8_" gradientUnits="userSpaceOnUse" x1="104.8174" y1="145.2587" x2="123.5181" y2="124.9995" gradientTransform="matrix(1 0 0 -1 0 338)">
		<stop  offset="0" style="stop-color:#00A9F4"/>
		<stop  offset="1" style="stop-color:#0077EC"/>
	</linearGradient>
	<polygon class="st18" points="107.1,183.2 94.9,191.8 99.7,199.2 108.3,192.7 	"/>
	<path class="st10" d="M127.9,161.6l-12.5-0.5l7.3,16.1c0,0,2.5,1.1,5.1-3.4C130.5,169.3,127.9,161.6,127.9,161.6"/>
	<path class="st10" d="M123.9,177.3l-3.1-3.2l0.5,8.7c0,0,0.9,3.1,1,2.8c0.1-0.3,1-2.4,1-2.4"/>
	<path class="st4" d="M112.2,158.6c0,0-5,1.3-6.1,5.5c-1.1,4.2,2.3,10.6-0.9,13.1c-0.3,0.2-0.7,0.5-1.1,0.8
		c-3.9,2.8-8.6,4.7-12.1,8.1c-3.1,3-4.1,8.2-0.9,11.5c5.2,5.3,13.7,3.9,19.8,1.2c3.8-1.7,7.7-4,10.1-7.5c1.4-2,1.9-4.5,2-6.9
		c0-2.4-0.8-4.9-0.2-7.3c0.6-2.1,2.8-3.7,2.7-6c0-1.5-2.5-2.4-1.1-4.6c1.3-2.2,4.1-4.4,3.6-5.7c-0.5-1.3-1.7-5.2-7.8-5.7
		C114.3,154.8,112.2,158.6,112.2,158.6z"/>
	<g>
		
			<linearGradient id="SVGID_9_" gradientUnits="userSpaceOnUse" x1="121.0997" y1="160.2885" x2="139.8003" y2="140.0297" gradientTransform="matrix(1 0 0 -1 0 338)">
			<stop  offset="0" style="stop-color:#00A9F4"/>
			<stop  offset="1" style="stop-color:#0077EC"/>
		</linearGradient>
		<polygon class="st19" points="139.6,187.9 137.3,196.2 130.4,195.3 130.3,195.3 128.5,195.1 127.8,195 124,183.4 124.4,183.5 		
			"/>
	</g>
	<g class="st16">
		
			<linearGradient id="SVGID_10_" gradientUnits="userSpaceOnUse" x1="126.29" y1="142.2" x2="130.276" y2="142.2" gradientTransform="matrix(1 0 0 -1 0 338)">
			<stop  offset="0" style="stop-color:#00A9F4"/>
			<stop  offset="1" style="stop-color:#0077EC"/>
		</linearGradient>
		<path class="st20" d="M130.3,195.3c-0.1,0.5-0.1,1.1-0.3,1.6c0,0.1-0.1,0.2-0.1,0.3c-0.1,0.2-0.1,0.4-0.1,0.6
			c-0.6-2.1-3.3-3.9-3.5-4.1L130.3,195.3z"/>
	</g>
	<g>
		<g>
			<path class="st4" d="M123.8,323.7c0,0,1.7,2.2,5.4,5.1c3.7,2.9,4.7,2.3,4.8,3.3s-15.5,0-15.5,0l0.3-8.7
				C118.7,323.4,123.8,323.5,123.8,323.7z"/>
		</g>
	</g>
	<g>
		<g>
			<path class="st4" d="M62.8,301c0,0-0.4,2.7,0,7.4c0.4,4.7,1.6,5,0.8,5.8C62.9,315,53,302.9,53,302.9l6.6-5.7
				C59.6,297.1,63,300.9,62.8,301z"/>
		</g>
	</g>
	<path class="st10" d="M171.5,178.4c-0.3,0.3-0.9,0.8-1.5,1.1c-0.2-0.8-0.5-2.7-0.6-3.2c0.5-0.3,3.4-3,3.9-2.4
		C173.7,174.5,173,177.1,171.5,178.4z"/>
</g>
</svg>
