<?xml version="1.0" encoding="utf-8"?>
<!-- Generator: Adobe Illustrator 25.3.1, SVG Export Plug-In . SVG Version: 6.00 Build 0)  -->
<svg version="1.1" id="Layer_1" xmlns="http://www.w3.org/2000/svg" xmlns:xlink="http://www.w3.org/1999/xlink" x="0px" y="0px"
	 viewBox="0 0 800 800" style="enable-background:new 0 0 800 800;" xml:space="preserve">
<style type="text/css">
	.st0{fill:#303841;}
</style>
<g>
	<path class="st0" d="M577.2,154.5H222.8c-28.3,0-51.3,23-51.3,51.3v138.3c0,4.7,3.8,8.5,8.5,8.5H620c4.7,0,8.5-3.8,8.5-8.5V205.8
		C628.5,177.5,605.5,154.5,577.2,154.5z M611.5,205.8v129.8H188.5V205.8c0-18.9,15.4-34.3,34.3-34.3h354.4
		C596.2,171.5,611.5,186.9,611.5,205.8z"/>
	<path class="st0" d="M571.7,190.9H228.3c-14.1,0-25.6,11.5-25.6,25.6v72.6c0,14.1,11.5,25.6,25.6,25.6h343.4
		c14.1,0,25.6-11.5,25.6-25.6v-72.6C597.3,202.4,585.8,190.9,571.7,190.9z M219.7,216.5c0-4.8,3.9-8.6,8.6-8.6h343.4
		c4.8,0,8.6,3.9,8.6,8.6v72.6c0,4.8-3.9,8.6-8.6,8.6H228.3c-4.8,0-8.6-3.9-8.6-8.6V216.5z"/>
	<path class="st0" d="M363.9,475.7h-40.3c-14.1,0-25.6,11.5-25.6,25.6v15c0,14.1,11.5,25.6,25.6,25.6h40.3
		c14.1,0,25.6-11.5,25.6-25.6v-15C389.5,487.2,378,475.7,363.9,475.7z M315,501.3c0-4.8,3.9-8.6,8.6-8.6h40.3c4.8,0,8.6,3.9,8.6,8.6
		v15c0,4.8-3.9,8.6-8.6,8.6h-40.3c-4.8,0-8.6-3.9-8.6-8.6V501.3z"/>
	<path class="st0" d="M363.9,553.3h-40.3c-14.1,0-25.6,11.5-25.6,25.6v15c0,14.1,11.5,25.6,25.6,25.6h40.3
		c14.1,0,25.6-11.5,25.6-25.6v-15C389.5,564.8,378,553.3,363.9,553.3z M315,578.9c0-4.8,3.9-8.6,8.6-8.6h40.3c4.8,0,8.6,3.9,8.6,8.6
		v15c0,4.8-3.9,8.6-8.6,8.6h-40.3c-4.8,0-8.6-3.9-8.6-8.6V578.9z"/>
	<path class="st0" d="M363.9,398.1h-40.3c-14.1,0-25.6,11.5-25.6,25.6v15c0,14.1,11.5,25.6,25.6,25.6h40.3
		c14.1,0,25.6-11.5,25.6-25.6v-15C389.5,409.6,378,398.1,363.9,398.1z M315,423.7c0-4.8,3.9-8.6,8.6-8.6h40.3c4.8,0,8.6,3.9,8.6,8.6
		v15c0,4.8-3.9,8.6-8.6,8.6h-40.3c-4.8,0-8.6-3.9-8.6-8.6V423.7z"/>
	<path class="st0" d="M258.3,475.7H218c-14.1,0-25.6,11.5-25.6,25.6v15c0,14.1,11.5,25.6,25.6,25.6h40.3c14.1,0,25.6-11.5,25.6-25.6
		v-15C283.9,487.2,272.4,475.7,258.3,475.7z M209.4,501.3c0-4.8,3.9-8.6,8.6-8.6h40.3c4.8,0,8.6,3.9,8.6,8.6v15
		c0,4.8-3.9,8.6-8.6,8.6H218c-4.8,0-8.6-3.9-8.6-8.6V501.3z"/>
	<path class="st0" d="M258.3,553.3H218c-14.1,0-25.6,11.5-25.6,25.6v15c0,14.1,11.5,25.6,25.6,25.6h40.3c14.1,0,25.6-11.5,25.6-25.6
		v-15C283.9,564.8,272.4,553.3,258.3,553.3z M209.4,578.9c0-4.8,3.9-8.6,8.6-8.6h40.3c4.8,0,8.6,3.9,8.6,8.6v15
		c0,4.8-3.9,8.6-8.6,8.6H218c-4.8,0-8.6-3.9-8.6-8.6V578.9z"/>
	<path class="st0" d="M258.3,398.1H218c-14.1,0-25.6,11.5-25.6,25.6v15c0,14.1,11.5,25.6,25.6,25.6h40.3c14.1,0,25.6-11.5,25.6-25.6
		v-15C283.9,409.6,272.4,398.1,258.3,398.1z M209.4,423.7c0-4.8,3.9-8.6,8.6-8.6h40.3c4.8,0,8.6,3.9,8.6,8.6v15
		c0,4.8-3.9,8.6-8.6,8.6H218c-4.8,0-8.6-3.9-8.6-8.6V423.7z"/>
	<path class="st0" d="M469.5,475.7h-40.3c-14.1,0-25.6,11.5-25.6,25.6v15c0,14.1,11.5,25.6,25.6,25.6h40.3
		c14.1,0,25.6-11.5,25.6-25.6v-15C495.1,487.2,483.6,475.7,469.5,475.7z M420.6,501.3c0-4.8,3.9-8.6,8.6-8.6h40.3
		c4.8,0,8.6,3.9,8.6,8.6v15c0,4.8-3.9,8.6-8.6,8.6h-40.3c-4.8,0-8.6-3.9-8.6-8.6V501.3z"/>
	<path class="st0" d="M469.5,553.3h-40.3c-14.1,0-25.6,11.5-25.6,25.6v15c0,14.1,11.5,25.6,25.6,25.6h40.3
		c14.1,0,25.6-11.5,25.6-25.6v-15C495.1,564.8,483.6,553.3,469.5,553.3z M420.6,578.9c0-4.8,3.9-8.6,8.6-8.6h40.3
		c4.8,0,8.6,3.9,8.6,8.6v15c0,4.8-3.9,8.6-8.6,8.6h-40.3c-4.8,0-8.6-3.9-8.6-8.6V578.9z"/>
	<path class="st0" d="M469.5,398.1h-40.3c-14.1,0-25.6,11.5-25.6,25.6v15c0,14.1,11.5,25.6,25.6,25.6h40.3
		c14.1,0,25.6-11.5,25.6-25.6v-15C495.1,409.6,483.6,398.1,469.5,398.1z M420.6,423.7c0-4.8,3.9-8.6,8.6-8.6h40.3
		c4.8,0,8.6,3.9,8.6,8.6v15c0,4.8-3.9,8.6-8.6,8.6h-40.3c-4.8,0-8.6-3.9-8.6-8.6V423.7z"/>
	<path class="st0" d="M575.1,398.1h-40.2c-14.1,0-25.6,11.5-25.6,25.6v15c0,14.1,11.5,25.6,25.6,25.6h40.2
		c14.1,0,25.6-11.5,25.6-25.6v-15C600.8,409.6,589.3,398.1,575.1,398.1z M583.8,438.7c0,4.8-3.9,8.6-8.6,8.6h-40.2
		c-4.8,0-8.6-3.9-8.6-8.6v-15c0-4.8,3.9-8.6,8.6-8.6h40.2c4.8,0,8.6,3.9,8.6,8.6V438.7z"/>
	<path class="st0" d="M575.1,475.7h-40.2c-14.1,0-25.6,11.5-25.6,25.6v95.8c0,14.1,11.5,25.6,25.6,25.6h40.2
		c14.1,0,25.6-11.5,25.6-25.6v-95.8C600.8,487.2,589.3,475.7,575.1,475.7z M583.8,597.1c0,4.8-3.9,8.6-8.6,8.6h-40.2
		c-4.8,0-8.6-3.9-8.6-8.6v-95.8c0-4.8,3.9-8.6,8.6-8.6h40.2c4.8,0,8.6,3.9,8.6,8.6V597.1z"/>
	<path class="st0" d="M527.4,285C527.4,285,527.4,285,527.4,285c0,4.7,3.8,8.5,8.5,8.5h17.6c4.7,0,8.5-3.8,8.5-8.5c0,0,0,0,0,0
		c4.2-0.5,7.4-4.1,7.4-8.4v-17.6c0-2.3-1-4.5-2.5-6c1.5-1.5,2.5-3.7,2.5-6v-17.6c0-4.3-3.2-7.9-7.4-8.4c0,0,0,0,0-0.1
		c0-4.7-3.8-8.5-8.5-8.5h-17.6c-4.7,0-8.5,3.8-8.5,8.5c0,0,0,0,0,0.1c-4.2,0.5-7.4,4.1-7.4,8.4v17.6c0,2.3,1,4.5,2.5,6
		c-1.5,1.5-2.5,3.7-2.5,6v17.6C520,280.9,523.2,284.4,527.4,285z M537,246.9v-17.6h15.5v17.6c0,2.3,1,4.5,2.5,6
		c-1.5,1.5-2.5,3.7-2.5,6v17.6H537v-17.6c0-2.3-1-4.5-2.5-6C536,251.4,537,249.2,537,246.9z"/>
	<path class="st0" d="M476,285C476,285,476,285,476,285c0,4.7,3.8,8.5,8.5,8.5h17.6c4.7,0,8.5-3.8,8.5-8.5c0,0,0,0,0,0
		c4.2-0.5,7.4-4.1,7.4-8.4v-17.6c0-2.3-1-4.5-2.5-6c1.5-1.5,2.5-3.7,2.5-6v-17.6c0-4.3-3.2-7.9-7.4-8.4c0,0,0,0,0-0.1
		c0-4.7-3.8-8.5-8.5-8.5h-17.6c-4.7,0-8.5,3.8-8.5,8.5c0,0,0,0,0,0.1c-4.2,0.5-7.4,4.1-7.4,8.4v17.6c0,2.3,1,4.5,2.5,6
		c-1.5,1.5-2.5,3.7-2.5,6v17.6C468.6,280.9,471.8,284.4,476,285z M485.6,246.9v-17.6h15.5v17.6c0,2.3,1,4.5,2.5,6
		c-1.5,1.5-2.5,3.7-2.5,6v17.6h-15.5v-17.6c0-2.3-1-4.5-2.5-6C484.6,251.4,485.6,249.2,485.6,246.9z"/>
	<path class="st0" d="M424.6,285C424.6,285,424.6,285,424.6,285c0,4.7,3.8,8.5,8.5,8.5h17.6c4.7,0,8.5-3.8,8.5-8.5c0,0,0,0,0,0
		c4.2-0.5,7.4-4.1,7.4-8.4v-17.6c0-2.3-1-4.5-2.5-6c1.5-1.5,2.5-3.7,2.5-6v-17.6c0-4.3-3.2-7.9-7.4-8.4c0,0,0,0,0-0.1
		c0-4.7-3.8-8.5-8.5-8.5h-17.6c-4.7,0-8.5,3.8-8.5,8.5c0,0,0,0,0,0.1c-4.2,0.5-7.4,4.1-7.4,8.4v17.6c0,2.3,1,4.5,2.5,6
		c-1.5,1.5-2.5,3.7-2.5,6v17.6C417.2,280.9,420.5,284.4,424.6,285z M434.2,246.9v-17.6h15.5v17.6c0,2.3,1,4.5,2.5,6
		c-1.5,1.5-2.5,3.7-2.5,6v17.6h-15.5v-17.6c0-2.3-1-4.5-2.5-6C433.3,251.4,434.2,249.2,434.2,246.9z"/>
	<path class="st0" d="M619.1,371.1H180.9c-5.2,0-9.4,4.2-9.4,9.4v255.6c0,5.2,4.2,9.4,9.4,9.4h438.2c5.2,0,9.4-4.2,9.4-9.4V380.5
		C628.5,375.3,624.3,371.1,619.1,371.1z M188.5,628.5V388.1h423.1v240.4H188.5z"/>
</g>
</svg>
