<?xml version="1.0" encoding="utf-8"?>
<!-- Generator: Adobe Illustrator 25.3.1, SVG Export Plug-In . SVG Version: 6.00 Build 0)  -->
<svg version="1.1" id="Layer_1" xmlns="http://www.w3.org/2000/svg" xmlns:xlink="http://www.w3.org/1999/xlink" x="0px" y="0px"
	 viewBox="0 0 800 800" style="enable-background:new 0 0 800 800;" xml:space="preserve">
<style type="text/css">
	.st0{fill:#38464F;}
	.st1{fill:#FFFFFF;}
	.st2{fill:#D7D7D7;}
	.st3{fill:#62CDF1;}
	.st4{fill:#EB4E3D;}
	.st5{fill:#00ADB5;}
	.st6{fill:#303841;}
	.st7{fill:#007CFF;}
	.st8{opacity:0.8;fill:#FFFFFF;enable-background:new    ;}
	.st9{fill:#FF5722;}
	.st10{opacity:0.3;enable-background:new    ;}
	.st11{opacity:0.4;enable-background:new    ;}
	.st12{opacity:0.2;enable-background:new    ;}
	.st13{opacity:0.6;fill:#FFFFFF;}
	.st14{opacity:0.5;fill:#FFFFFF;}
	.st15{opacity:0.3;fill:#FFFFFF;}
	.st16{opacity:0.2;fill:#EEEEEE;}
	.st17{fill:#1A2E35;}
	.st18{opacity:0.2;}
	.st19{opacity:0.6;}
	.st20{fill:#EEEEEE;}
</style>
<g>
	<circle class="st6" cx="400" cy="400" r="393.26"/>
	<g>
		<path class="st7" d="M283.88,449.14c-24.32-43.49-71.57-63.36-105.54-44.37c-33.97,18.99-41.79,69.65-17.47,113.15
			c24.32,43.5,71.57,63.36,105.54,44.37C300.38,543.3,308.21,492.64,283.88,449.14z"/>
		<path class="st7" d="M560.07,296.69l-83.63-153.83c0,0-58.42,125.33-142.43,172.3l42.62,76.22l6.71,12l42.68,76.33
			c84.01-46.97,221.34-31.16,221.34-31.16L560.07,296.69z"/>
		<path class="st8" d="M283.88,449.14c-24.32-43.49-71.57-63.36-105.54-44.37c-33.97,18.99-41.79,69.65-17.47,113.15
			c24.32,43.5,71.57,63.36,105.54,44.37C300.38,543.3,308.21,492.64,283.88,449.14z"/>
		<path class="st8" d="M560.07,296.69l-83.63-153.83c0,0-58.42,125.33-142.43,172.3l42.62,76.22l6.71,12l42.68,76.33
			c84.01-46.97,221.34-31.16,221.34-31.16L560.07,296.69z"/>
		<path class="st9" d="M278.19,539.21c0,0,60.47,87.6,116.97,119.58c3.97,2.25,9,1.07,11.87-2.48l48.14-59.75
			c3.92-4.86,2.22-12.09-3.5-14.6c-23.83-10.47-79.28-37.56-111.3-75.36C298.78,457.48,278.19,539.21,278.19,539.21z"/>
		<path class="st10" d="M278.19,539.21c0,0,60.47,87.6,116.97,119.58c3.97,2.25,9,1.07,11.87-2.48l48.14-59.75
			c3.92-4.86,2.22-12.09-3.5-14.6c-23.83-10.47-79.28-37.56-111.3-75.36C298.78,457.48,278.19,539.21,278.19,539.21z"/>
		<path class="st1" d="M646.53,452.98c-19.25,10.76-73.88-50.28-122-136.35C476.41,230.56,453,152.06,472.25,141.3
			c19.25-10.77,73.88,50.28,122,136.35C642.38,363.71,665.78,442.22,646.53,452.98z"/>
		<path class="st11" d="M638.68,427.59c-14.4,8.05-57-39.96-97.19-109.02c-2.33-3.89-4.61-7.97-6.9-12.05
			c-2.75-4.92-5.43-9.72-7.93-14.47c-36.89-69.64-55.06-129.74-40.77-137.72c15.36-8.59,62.06,45.63,104.27,121.12
			C632.3,350.82,654.04,419,638.68,427.59z"/>
		<path class="st9" d="M258.62,578.28c0,0-20.68-14.69-58.15-81.69c-40.54-72.51-39.43-92.82-39.43-92.82l187.51-104.85
			c0,0,2.25,26.32,40.27,94.32c37.75,67.51,57.31,80.19,57.31,80.19L258.62,578.28z"/>
		<path class="st1" d="M541.49,318.57c-2.33-3.89-4.61-7.97-6.9-12.05c-2.75-4.92-5.43-9.72-7.93-14.47l19.41-6.13
			c4.43-1.37,8.42,0.96,10.63,4.92l1.54,2.76c2.22,3.96,2.12,8.58-1.37,11.63L541.49,318.57z"/>
		<path class="st12" d="M541.49,318.57c-2.33-3.89-4.61-7.97-6.9-12.05c-2.75-4.92-5.43-9.72-7.93-14.47l19.41-6.13
			c4.43-1.37,8.42,0.96,10.63,4.92l1.54,2.76c2.22,3.96,2.12,8.58-1.37,11.63L541.49,318.57z"/>
	</g>
</g>
</svg>
