<?xml version="1.0" encoding="utf-8"?>
<!-- Generator: Adobe Illustrator 25.3.1, SVG Export Plug-In . SVG Version: 6.00 Build 0)  -->
<svg version="1.1" id="Layer_1" xmlns="http://www.w3.org/2000/svg" xmlns:xlink="http://www.w3.org/1999/xlink" x="0px" y="0px"
	 viewBox="0 0 800 800" style="enable-background:new 0 0 800 800;" xml:space="preserve">
<style type="text/css">
	.st0{fill:#38464F;}
	.st1{fill:#FFFFFF;}
	.st2{fill:#D7D7D7;}
	.st3{fill:#62CDF1;}
	.st4{fill:#EB4E3D;}
	.st5{fill:#00ADB5;}
	.st6{fill:#303841;}
	.st7{fill:#007CFF;}
	.st8{opacity:0.8;fill:#FFFFFF;enable-background:new    ;}
	.st9{fill:#FF5722;}
	.st10{opacity:0.3;enable-background:new    ;}
	.st11{opacity:0.4;enable-background:new    ;}
	.st12{opacity:0.2;enable-background:new    ;}
	.st13{opacity:0.6;fill:#FFFFFF;}
	.st14{opacity:0.5;fill:#FFFFFF;}
	.st15{opacity:0.3;fill:#FFFFFF;}
	.st16{opacity:0.2;fill:#EEEEEE;}
	.st17{fill:#1A2E35;}
	.st18{opacity:0.2;}
	.st19{opacity:0.6;}
	.st20{fill:#EEEEEE;}
</style>
<g>
	<circle class="st6" cx="400" cy="400" r="393.26"/>
	<g>
		<path class="st5" d="M400,140.06H277.76c-5.52,0-10.18,4.21-10.63,9.71c-1.75,21.41-12.42,71.16-73.61,75.98
			c-5.55,0.44-9.84,5.06-9.84,10.62V384.3c0,0,5.78,181.34,211.86,274.68c1.4,0.63,2.93,0.96,4.46,0.96l0,0
			c1.53,0,3.06-0.33,4.46-0.96C610.55,565.64,616.32,384.3,616.32,384.3V236.37c0-5.56-4.29-10.19-9.84-10.62
			c-61.19-4.81-71.87-54.56-73.61-75.98c-0.45-5.5-5.1-9.71-10.63-9.71H400"/>
		<g class="st19">
			<g>
				<path class="st1" d="M401.88,618.03h-3.77c-1.05,0-2.1-0.22-3.06-0.65c-39.31-17.57-73.12-40.53-100.49-68.25
					c-21.95-22.24-39.82-47.55-53.1-75.23c-22.68-47.27-24.12-84.8-24.17-86.37c0-0.08,0-0.16,0-0.24V259.18
					c0-4.14,3.36-7.5,7.5-7.5c19.23,0,34.17-5.44,44.38-16.17c17.1-17.96,15.96-45.37,15.95-45.65c-0.1-2.05,0.64-4.06,2.06-5.55
					s3.38-2.34,5.43-2.34h214.77c2.06,0,4.03,0.85,5.44,2.34c1.42,1.5,2.16,3.51,2.04,5.56c-0.01,0.26-1.15,27.66,15.95,45.63
					c10.22,10.73,25.15,16.17,44.38,16.17c4.14,0,7.5,3.36,7.5,7.5v128.11c0,0.08,0,0.16,0,0.24c-0.05,1.57-1.49,39.1-24.17,86.37
					c-13.28,27.69-31.15,53-53.1,75.23c-27.37,27.72-61.18,50.68-100.49,68.25C403.98,617.81,402.94,618.03,401.88,618.03z
					 M399.72,603.03h0.55C484,565.18,525.02,508.8,544.7,468.05c20.97-43.4,22.91-78.81,23.01-80.92V266.43
					c-20.04-1.36-36.12-8.3-47.85-20.69c-15.36-16.21-19-37.44-19.8-48.77H299.94c-0.8,11.33-4.44,32.55-19.8,48.77
					c-11.73,12.39-27.81,19.33-47.85,20.69v120.71c0.09,2.03,2.01,37.47,23.01,80.92C274.98,508.8,316.01,565.18,399.72,603.03z"/>
			</g>
		</g>
		<path class="st15" d="M400,659.94L400,659.94c1.53,0,3.06-0.33,4.46-0.96C610.55,565.64,616.32,384.3,616.32,384.3V236.37
			c0-5.56-4.29-10.19-9.84-10.62c-61.19-4.81-71.87-54.56-73.61-75.98c-0.45-5.5-5.1-9.71-10.63-9.71H400"/>
		<path class="st20" d="M500.66,311.04L500.66,311.04c-7.45-6.47-18.74-5.68-25.21,1.77l-71.1,81.85
			c-6.47,7.45-17.76,8.24-25.21,1.77l-29.92-25.99c-7.45-6.47-18.74-5.68-25.21,1.77l0,0c-6.47,7.45-5.68,18.74,1.77,25.21
			l57.03,49.54c7.45,6.47,18.74,5.68,25.21-1.77l11.72-13.49l-0.13-0.11l82.81-95.34C508.9,328.8,508.11,317.51,500.66,311.04z"/>
	</g>
</g>
</svg>
