<?xml version="1.0" encoding="utf-8"?>
<!-- Generator: Adobe Illustrator 25.3.1, SVG Export Plug-In . SVG Version: 6.00 Build 0)  -->
<svg version="1.1" id="Layer_2_1_" xmlns="http://www.w3.org/2000/svg" xmlns:xlink="http://www.w3.org/1999/xlink" x="0px" y="0px"
	 viewBox="0 0 1948.6 1349.4" style="enable-background:new 0 0 1948.6 1349.4;" xml:space="preserve">
<style type="text/css">
	.st0{fill:#323B6E;}
	.st1{fill:#FF5C6C;}
	.st2{fill:#FEA77C;}
	.st3{fill:#20140F;}
	.st4{fill:#FFFFFF;}
	.st5{fill:#CC2C3D;}
	.st6{fill:#F57D77;}
	.st7{fill:#BF453F;}
</style>
<g>
	<path class="st0" d="M1693.1,1249.2l-3.9-137.4c-3.2-1.7-5.4-5-5.5-8.8c-0.1-5.6,4.5-10.2,10.2-10.3c0.9,0,1.8,0.1,2.7,0.4
		l189.5-193.8c-0.6-1.3-0.9-2.7-1-4.2c0-2.2,0.7-4.2,1.9-5.9l-275.9-362.7c2.8-1.5,5.7-2.9,8.6-4.5l276,362.8
		c5.5,0.1,10,4.5,10.1,10c0.1,5.6-4.5,10.2-10.2,10.3c-0.6,0-1.2-0.1-1.7-0.2l-190.1,194.4c0.4,1.1,0.6,2.1,0.6,3.3
		c0,4-2.3,7.4-5.6,9.1l3.9,137.2l0.2,8.8l0.3,9.5c0.1,2.6-2,4.8-4.6,4.9c0,0,0,0-0.1,0c-2.6,0-4.7-2-4.8-4.6l-0.3-9.7L1693.1,1249.2
		z"/>
	<path class="st0" d="M1702.8,1257.8c45.5,0,81.5,6.1,81.6,14c0.1,8.2-38.9,15.3-87.2,15.9c-48.2,0.5-87.4-5.7-87.5-13.9
		c-0.1-8,37-15,83.5-15.8l0.3,9.7c0.1,2.6,2.2,4.7,4.8,4.6c0,0,0.1,0,0.1,0c2.6-0.1,4.7-2.3,4.6-4.9L1702.8,1257.8z"/>
	<path class="st1" d="M1508,519.3c23.3,36.1,28.3,74.3,11.2,85.4c-17.1,11.1-49.9-9.2-73.2-45.3c-23.3-36.1-28.3-74.3-11.2-85.4
		C1451.9,462.9,1484.7,483.2,1508,519.3z"/>
	<path class="st0" d="M1368.8,1248.2l-9,44c-1.3,6.1-6.6,10.5-12.8,10.6l-619.9,5.7c-5,0.1-8.7-4.8-7.2-9.6c1.7-5.7,7-9.6,12.9-9.6
		l220.2-2.4l71.7-338.1c2.6-12.2,13.2-21,25.7-21.3l366.5-8.2c10-0.2,17.5,8.9,15.5,18.6L1368.8,1248.2z"/>
	<path class="st2" d="M894.4,87.3c1.6,11.6-1.1,24.3-9.5,32.5c-2.6,2.5-5.8,4.5-9.2,5.7c-7.7,2.7-16.5,2-22.6-3.3l0-0.1
		c4.8-2.4,9-6,11.9-10.4c7.5-11.1,8.2-25.4,6-38.6c-0.7-4-1.7-8-3.2-11.7c6.8-1.2,13.9,1.9,18.5,7C891,73.4,893.4,80.3,894.4,87.3z"
		/>
	<path class="st2" d="M801.6,117.5c4.6-1.1,9.2-2.5,13.5-4.5l0.1,0.3c-0.2,4.2-1.9,8.3-4.5,11.5c-1.7,2.1-3.8,3.8-6.2,5.1l-0.1,0
		C804.1,125.6,803.1,121.5,801.6,117.5z"/>
	<path class="st2" d="M842,86.4c0.8,10.1,0.1,20.9-5.5,29.4c-1.7,2.6-4,4.8-6.6,6.6c-5.8,3.9-13.1,5.4-19.2,2.4
		c2.7-3.3,4.3-7.3,4.5-11.5l-0.1-0.3c3.4-1.6,6.6-3.6,9.3-6.3c6.1-5.9,9-15.8,4.8-23.2c-1.4-2.4-3.5-4.4-6.2-5
		c-2.4-0.5-4.9,0.3-7.2,1c-2.8,0.9-5.5,1.8-8.3,2.7c-2.2-8.3-4.7-16.6-9.4-23.8c-3.3-5-7.9-9.3-13.2-11.9l0,0l0.1-0.3
		c8.4-7.2,19.2-13.8,30-11.3c7.2,1.6,12.5,6.7,16.4,13.1c2.6,4.1,4.5,8.8,5.9,13.4C839.8,69.6,841.4,78,842,86.4z"/>
	<path class="st2" d="M867.7,61.3c1.5,3.8,2.5,7.8,3.2,11.7c2.3,13.1,1.5,27.5-6,38.6c-3,4.4-7.2,8-11.9,10.4
		c-7.2,3.6-15.7,4.4-22.9,0.7l-0.2-0.3c2.6-1.7,4.9-4,6.6-6.6c5.6-8.4,6.3-19.2,5.5-29.4c-0.7-8.5-2.3-16.9-4.8-25
		c-1.4-4.6-3.4-9.2-5.9-13.4l1.3-0.8c6.7-6.8,18.7-5.6,26,0.6C862.8,51.4,865.7,56.1,867.7,61.3z"/>
	<path class="st2" d="M807.4,82.3c2.8-0.9,5.5-1.8,8.3-2.7c2.3-0.7,4.8-1.5,7.2-1c2.7,0.5,4.9,2.6,6.2,5c4.3,7.3,1.3,17.2-4.8,23.2
		c-2.7,2.6-5.9,4.7-9.3,6.3c-4.3,2-8.9,3.4-13.5,4.5c1.5,4,2.5,8.1,2.8,12.4l0.1,0c2.4-1.2,4.5-3,6.2-5.1c6.2,2.9,13.5,1.5,19.2-2.4
		l0.2,0.3c7.1,3.7,15.6,2.9,22.9-0.7l0,0.1c6.1,5.3,14.9,6.1,22.6,3.3l0.1,0.3c1.3,7.1,0.7,14.5-1.5,21.3
		c-3.2,9.6-9.7,17.8-12.5,27.5c-1.8,6.4-1.9,13.2-0.4,20.6c-32.6,3.6-65.9,1.3-97.8-6.7l0-0.2c-3.3-17.5-12.3-33.4-19.6-49.7
		c-7.3-16.3-13.2-34.2-9.9-51.8c2.4-12.5,9.4-23.9,18.9-32.5c6.2-5.6,14-10.2,22.3-10c3.3,0.1,6.5,0.9,9.4,2.3l0,0
		c5.3,2.5,9.9,6.9,13.2,11.9C802.7,65.6,805.2,74,807.4,82.3z"/>
	<path class="st2" d="M177.6,124.1c-2.3,4.5-4.1,9.3-5.2,14.2c-4.7-0.2-9.3-2.3-12.4-5.8l-0.3-0.1c0.9-1.6,1.7-3.3,2.3-5
		C167.3,126.9,172.7,125.3,177.6,124.1z"/>
	<path class="st2" d="M106.2,73.5c1.3,0.5,2.6,1.3,3.7,2.1c3.6,2.8,5.9,6.9,7.9,10.9c5.1,10.1,9.2,20.8,12.2,31.7
		c2.2,8.1,3.6,17.6-1.6,24.2c-0.1,0.1-0.1,0.2-0.2,0.2c-5.2,6.5-14.5,7.4-22.9,7.5c0.4-0.6,0.7-1.2,0.9-1.8c1.2-3.1,1-6.6,0.5-9.9
		c-1.9-14.8-7.9-29.1-17.2-40.9c-2.1-2.6-4.5-5.2-7.4-6.6l0.3-0.7c0.8-6.9,3.2-13.4,9.9-16.6C96.8,71.7,101.9,71.7,106.2,73.5z"/>
	<path class="st3" d="M694.6,562.3c4.5-0.1,8.2,3.6,8.2,8.1c0,4.5-3.6,8.2-8.1,8.2c-4.5,0-8.2-3.6-8.2-8.1
		C686.5,566,690.1,562.4,694.6,562.3z"/>
	<path class="st2" d="M173.7,61.5c10.5,9.8,17,20.2,21.7,33.8l0,0c-2.4,0-4.9,0.2-7.4,0.5l-27.6,2.8c-1.2,0.1-2.4,0.3-3.6,0.4
		c-2.2-8.2-5.7-16-10.4-23.1c-1.7-2.5-3.5-4.9-5.5-7l0.6-0.6c4.3-6.2,11.2-10.5,18.7-11.6c2.4-0.4,5-0.4,7.3,0.5
		C169.8,58,171.8,59.7,173.7,61.5z"/>
	<path class="st0" d="M599.2,508.7c2.1,1.6,3.4,4.6,2.3,7c-0.8,1.7-2.5,2.7-4.3,3.2c-1.8,0.5-3.6,0.4-5.5,0.5
		c-5,0.2-10.1,1.3-14.2,4.1c-2.2,1.5-4,3.4-6.3,4.7c-2.3,1.3-5.3,1.7-7.4,0.2c-2.1-1.5-2.6-4.4-1.9-6.8c0.7-2.4,2.5-4.4,4.4-6.1
		c7.5-6.7,18.1-9.9,28.1-8.6C594.4,506.5,597.1,507.1,599.2,508.7z"/>
	<path class="st2" d="M152.8,126.7c3,0.8,6.1,0.9,9.2,0.7c-0.6,1.7-1.4,3.4-2.3,5c-2.9,5.2-6.9,9.7-12.2,12.1
		c-6,2.8-13.7,2.4-18.9-1.5l-0.3-0.3c0.1-0.1,0.1-0.2,0.2-0.2c5.1-6.6,3.8-16.1,1.6-24.2c-3-10.9-7.1-21.6-12.2-31.7
		c-2.1-4-4.4-8.1-7.9-10.9c-1.2-0.9-2.4-1.6-3.7-2.1c3-4.5,6.2-9.2,11.1-11.4c5.3-2.4,11.7-1.5,16.8,1.4c2.5,1.4,4.7,3.3,6.7,5.3
		c2.1,2.1,3.9,4.6,5.5,7c4.7,7.1,8.2,14.9,10.4,23.1c-6.2,0.9-12.5,2.9-15.2,8.3C137.7,114.9,144.5,124.5,152.8,126.7z"/>
	<path class="st2" d="M105.4,150.2c8.4-0.1,17.7-1.1,22.9-7.5l0.3,0.3c5.2,4,12.9,4.4,18.9,1.5c5.3-2.5,9.3-7,12.2-12.1l0.3,0.1
		c3.1,3.5,7.7,5.6,12.4,5.8c1.1-4.9,2.8-9.7,5.2-14.2c-4.9,1.2-10.2,2.8-15.6,3.3c-3.1,0.3-6.2,0.1-9.2-0.7
		c-8.3-2.2-15.2-11.8-11.3-19.4c2.7-5.4,9-7.4,15.2-8.3c1.2-0.2,2.5-0.3,3.6-0.4l27.6-2.8c2.4-0.2,4.9-0.5,7.4-0.5
		c2.4,0,4.9,0.3,7.2,1c9.4,3.1,14.5,13.6,15,23.4c0.5,9.9-2.6,19.5-4.6,29.1c-4.5,22.3-3,45.8,4.5,67.3
		c-36.9,10.9-70.6,19.1-108.7,19c-0.2-1.1-0.5-2.2-0.7-3.3c0,0,0,0,0,0c-2.3-9.6-6.5-18.6-12.3-26.6c-5.3-7.4-12-13.7-17.6-20.9
		c-17-21.9-23.7-51.5-17.6-78.5c0.8-4.7,4.1-9.5,8.5-12.7c3.2-2.3,7.1-3.7,10.9-2.9c0.8,0.2,1.5,0.4,2.3,0.8c3,1.4,5.4,4,7.4,6.6
		c9.2,11.8,15.2,26.1,17.2,40.9c0.4,3.3,0.7,6.8-0.5,9.9C106.1,149.1,105.8,149.7,105.4,150.2z"/>
	<path class="st4" d="M681.8,629.8c0.1,6.6-3.8,12.8-8.5,17.4c-7.7,7.5-18,12.1-28.7,13c-10.7,0.9-21.6-1.7-30.7-7.3
		c-4.1-2.5-7.9-5.7-10.3-9.8c-2.4-4.1-3.3-9.3-1.6-13.8c3.1-7.8,12.8-10.7,21.2-10.4c8.4,0.3,16.8,2.7,25.1,1.1
		c7.7-1.5,15.5-6.4,22.9-3.7C676.1,618.3,681.7,623.2,681.8,629.8z"/>
	<path class="st0" d="M416.7,1109.1c-25.4-78.5-71.7-147-118.6-215.4l-0.3,0.2c-10.4,10-15.3,18.8-20.2,32.3
		c-9.9,27.1-9.1,57-5.1,85.5c8.1,58,28.4,113.5,48.6,168.4c8.2,22.2,16.3,44.3,24.5,66.5l85.3,0.1h28.2L416.7,1109.1z"/>
	<path class="st3" d="M590.4,563.5c4.5,0,8.2,3.6,8.2,8.1c0,4.5-3.6,8.2-8.1,8.2c-4.5,0.1-8.2-3.6-8.2-8.1
		C582.3,567.2,585.9,563.5,590.4,563.5z"/>
	<path class="st0" d="M714.1,520c0.8,2.4,0.3,5.4-1.8,6.9c-2.1,1.6-5.1,1.2-7.5-0.1c-2.3-1.2-4.2-3.1-6.4-4.5
		c-4.2-2.7-9.3-3.7-14.3-3.8c-1.8,0-3.7,0-5.5-0.4c-1.8-0.4-3.5-1.4-4.3-3.1c-1.2-2.4,0.1-5.4,2.2-7.1c2.1-1.7,4.8-2.3,4.8-1.8
		c10-1.6,20.6,1.4,28.3,8C711.5,515.6,713.3,517.6,714.1,520z"/>
	<path class="st0" d="M709.5,432.9c-19.1,11.8-43.7,16.4-67.7,17.3c-14.9,0.5-29.7-0.2-44.5-0.9c-6.7-0.3-14.1-1.4-20.8-0.9
		c-5.5,0.4-45,6.7-70.5,47.1c-0.9,1.4-1.8,2.7-2.7,4.1c-16.3,26.3-23.2,59.4-15,89.2c0.3,1.2-0.2,2.6-1,3.6c-0.9,1-2.1,1.5-3.3,2
		c-2.4,0.9-5.2,1.1-7.6,0.3c-2.5-0.8-4.6-2.8-5.1-5.4c-4.6-7-11.8-12.3-19.8-13.5c-2.9-0.5-5.8-0.4-8.7,0.1
		c-0.8-1.7-1.7-3.5-2.5-5.2c-16.4-39.6-24.1-85.2-4.3-121.8c15.5-28.6,45.2-46.8,75.6-58.4c30.4-11.6,62.7-17.9,92.8-30.3
		c19.1-12.5,41-24,64.7-25.5c14.8-0.9,29.7,2.1,43,8.8c6,3,11.7,6.8,16.1,11.8c8.9,10.1,11.8,24.8,9.2,38
		c-2.6,13.2-10.4,25.1-20.2,34.3C714.5,429.6,712.1,431.3,709.5,432.9z"/>
	<path class="st2" d="M468,637.4c-11.2,4.7-25,3.3-34.7-4.1c-11.9-9.1-16.6-26.5-11-40.4c1.5-3.8,3.8-7.3,6.7-10.2
		c3.7-3.6,8.5-6,13.6-6.9c2.9-0.5,5.8-0.6,8.7-0.1c8,1.3,15.2,6.5,19.8,13.5c0.5,2.5,2.7,4.6,5.1,5.4c2.5,0.8,5.2,0.5,7.6-0.3
		c1.2-0.4,2.4-1,3.3-2c0.9-1,1.4-2.3,1-3.6c-8.2-29.8-1.3-62.9,15-89.2c0.9-1.4,1.8-2.7,2.7-4.1c25.5-40.3,65-46.6,70.5-47.1
		c6.7-0.5,14,0.6,20.8,0.9c14.8,0.7,29.7,1.4,44.5,0.9c23.9-0.9,48.6-5.5,67.7-17.3c5.3,19.5,10.7,39,16,58.5
		c20.5,74.9,24.8,133.1,12.2,172.9c-7.3,23-20.2,39.9-38.8,50.5c-20.6,11.7-43.8,18.4-67.5,20.2c1.3,5.8,3,11.5,5,17
		c2.1,5.8,4.6,11.7,9,16.1c0.5,0.5,1,0.9,1.5,1.3c-15.2,19.1-41.5,27.3-65.7,24.3c-24.5-3.1-46.8-16.4-64.6-33.5l-1.5-0.3
		c0.9-5-0.6-10.3-2.1-15.2c-11.3-36.9-27.4-72.1-43.6-107.1L468,637.4z M712.3,526.8c2-1.5,2.5-4.5,1.8-6.9c-0.8-2.4-2.6-4.3-4.5-6
		c-7.7-6.5-18.3-9.5-28.3-8c0-0.5-2.7,0.2-4.8,1.8c-2.1,1.7-3.3,4.7-2.2,7.1c0.8,1.7,2.6,2.7,4.3,3.1c1.8,0.4,3.7,0.3,5.5,0.4
		c5,0.1,10.1,1.1,14.3,3.8c2.2,1.4,4.1,3.3,6.4,4.5C707.2,528,710.2,528.4,712.3,526.8z M702.9,570.4c0-4.5-3.7-8.1-8.2-8.1
		c-4.5,0-8.1,3.7-8.1,8.2c0,4.5,3.7,8.1,8.2,8.1C699.3,578.6,702.9,574.9,702.9,570.4z M673.2,647.2c4.8-4.6,8.6-10.8,8.5-17.4
		c-0.1-6.6-5.7-11.5-10.7-13.4c-7.4-2.7-15.1,2.2-22.9,3.7c-8.2,1.6-16.7-0.8-25.1-1.1c-8.4-0.3-18.1,2.5-21.2,10.4
		c-1.8,4.5-0.9,9.7,1.6,13.8c2.4,4.1,6.2,7.3,10.3,9.8c9.1,5.6,20,8.3,30.7,7.3C655.2,659.3,665.6,654.7,673.2,647.2z M601.5,515.7
		c1.1-2.4-0.2-5.4-2.3-7c-2.1-1.6-4.8-2.2-4.8-1.7c-10-1.3-20.5,1.9-28.1,8.6c-1.9,1.7-3.7,3.7-4.4,6.1c-0.7,2.4-0.1,5.4,1.9,6.8
		c2.1,1.5,5.2,1,7.4-0.2c2.3-1.3,4.1-3.2,6.3-4.7c4.1-2.8,9.2-3.9,14.2-4.1c1.8-0.1,3.7,0,5.5-0.5
		C599,518.5,600.8,517.4,601.5,515.7z M598.7,571.5c-0.1-4.5-3.7-8.1-8.2-8.1c-4.5,0.1-8.1,3.7-8.1,8.2c0,4.5,3.7,8.1,8.2,8.1
		C595.1,579.7,598.7,576,598.7,571.5z"/>
	
		<ellipse transform="matrix(0.9871 -0.1602 0.1602 0.9871 -64.0832 248.9527)" class="st4" cx="1512.1" cy="522" rx="35.1" ry="35.1"/>
	<path class="st0" d="M1611.1,526.5c-12.2,6.2-24.4,12.2-37.5,19.8c-7.4,4.3-14.8,8.6-20.8,14.6c-13,13.1-18.3,33.4-33.6,43.8
		l-0.1-0.1c17.1-11,12.1-49.3-11.2-85.4c-23.3-36.1-56.1-56.4-73.2-45.3c10.7-9.9,26.1-10.2,40.4-12.3c36.1-5.5,67-27.8,98.2-46.9
		c7.7-4.7,15.9-9.4,24.9-9.1c9.6,0.3,18,6.1,25.1,12.6c13.8,12.7,33.2,41,33.5,72.8c-0.7,7.7-4.9,12.1-12.8,17.1
		c-8.4,5.3-16.4,9.8-24.3,14C1616.8,523.6,1614,525,1611.1,526.5z M1593.4,520.5c2.7-1.4,3.8-4.7,2.4-7.5c-1.4-2.7-4.7-3.8-7.5-2.5
		l-19.8,10.1c-2.7,1.4-3.8,4.7-2.4,7.5c1.4,2.7,4.7,3.8,7.5,2.4L1593.4,520.5z M1583.5,496.5c2.7-1.4,3.8-4.7,2.4-7.5
		c-1.4-2.7-4.7-3.8-7.5-2.4l-19.8,10.1c-2.7,1.4-3.8,4.7-2.5,7.5c1.4,2.7,4.7,3.8,7.5,2.4L1583.5,496.5z M1569.3,475.1
		c2.7-1.4,3.8-4.7,2.4-7.5c-1.4-2.7-4.7-3.8-7.5-2.5l-19.8,10.1c-2.7,1.4-3.8,4.7-2.4,7.5c1.4,2.7,4.7,3.8,7.5,2.4L1569.3,475.1z
		 M1553.6,455.4c2.7-1.4,3.8-4.7,2.4-7.5c-1.4-2.7-4.7-3.8-7.5-2.4l-19.8,10.1c-2.7,1.4-3.8,4.7-2.4,7.5c1.4,2.7,4.7,3.8,7.5,2.5
		L1553.6,455.4z"/>
	<path class="st5" d="M1595.8,513.1c1.4,2.7,0.3,6.1-2.4,7.5l-19.8,10.1c-2.7,1.4-6.1,0.3-7.5-2.4c-1.4-2.7-0.3-6.1,2.4-7.5
		l19.8-10.1C1591.1,509.2,1594.4,510.3,1595.8,513.1z"/>
	<path class="st5" d="M1585.9,489c1.4,2.7,0.3,6.1-2.4,7.5l-19.8,10.1c-2.7,1.4-6.1,0.3-7.5-2.4c-1.4-2.7-0.3-6.1,2.5-7.5l19.8-10.1
		C1581.2,485.2,1584.6,486.3,1585.9,489z"/>
	<path class="st5" d="M1571.8,467.7c1.4,2.7,0.3,6.1-2.4,7.5l-19.8,10.1c-2.7,1.4-6.1,0.3-7.5-2.4c-1.4-2.7-0.3-6.1,2.4-7.5
		l19.8-10.1C1567,463.8,1570.4,464.9,1571.8,467.7z"/>
	<path class="st5" d="M1556,448c1.4,2.7,0.3,6.1-2.4,7.5l-19.8,10.1c-2.7,1.4-6.1,0.3-7.5-2.5c-1.4-2.7-0.3-6.1,2.4-7.5l19.8-10.1
		C1551.3,444.1,1554.6,445.2,1556,448z"/>
	<path class="st1" d="M858.4,1015.6c-2.1-8.6-4.1-17.1-6.1-25.7c6.8-122.8,68.8-324,67.3-449.4c-1.5-125.4-21.4-218.6-56.6-339
		c-0.7-2.2-1.2-4.3-1.6-6.4c-32.6,3.6-65.9,1.3-97.8-6.7c-0.2-0.1-0.5-0.1-0.7-0.2c13,104.5,11.7,209.7,3.4,314
		c-4.4,54.8-10.9,110.2-27.6,162.4c-4.5,14.2-9.8,28.1-16,41.8c-12.7,28-31.4,56.1-60.3,66.3c-5.2,2-11.1,0.2-15.5-3.3
		c-15.2,19.1-41.5,27.3-65.7,24.3c-24.5-3.1-46.8-16.4-64.6-33.5l-1.5-0.3c-0.1,0.4-0.1,0.8-0.2,1.1c-1.3,5.4-6.5,10.2-11.9,9.2
		l-0.6,0.2C436,732.6,409,690.4,377.3,638c-31.8-52.4-54.6-109.7-75.8-167.2c-30.9-83.9-58.9-168.9-83.6-254.8l-0.5,0.1
		c-36.9,10.9-70.6,19.1-108.7,19c-0.2-1.1-0.5-2.2-0.7-3.3c0.8,7.4,16.7,359.3,97.3,514.5c26.7,51.4,60,99.4,92.9,147.4
		c46.9,68.4,93.2,136.9,118.6,215.4l0,0.2c0,0,0,0,0.1,0l42.3,137.6l82.7,0.2l372.4,0.5l0-0.5C895.5,1169.8,877,1092.7,858.4,1015.6
		z"/>
	
		<ellipse transform="matrix(0.7258 -0.6879 0.6879 0.7258 -423.5357 1136.2825)" class="st4" cx="1213.5" cy="1099.4" rx="37.2" ry="33.5"/>
	<path class="st6" d="M126.6,147.4c0.9,0,1.9,0,2.8,0c0,1.3,1,0.8,1.6,0.9c0.6,0.2,1.2,0.5,2,0.8c0-1.5,0-2.8,0-4.3
		c0.9,0.3,1.7,0.4,2.4,0.7c0.8,0.4,0.2,2.2,1.9,1.9c0.7-0.1,1.5,0.7,2.4,1.1c-0.8,0.8-1.4,1.5-2.1,2.2c0.2,1,0.5,2,0.8,3.5
		c-1.8-1.1-3.3-1.9-4.7-2.7c-1.6,0.2-3.3,0.4-4.9,0.7c-2.1,1.3-1.1,3-0.2,4.7c-1,0.7-2,1.4-3.2,2.3c0.4,0.7,0.8,1.2,1,1.5
		c-0.7,1.7-1.4,3.4-2.2,5.4c-0.6-0.3-1.3-0.7-2-1.1c0.9-1.7,1.7-3.3,2.5-5c-0.6-0.6-1.2-1.2-2-2.1c0.7-0.5,1.5-1.1,2.3-1.7
		c-0.4-0.7-0.7-1.2-1-1.7c0.4-1.2,0.9-2.5,1.3-3.6c-0.2-0.8-0.4-1.7-0.6-2.5C125.4,148.2,126.5,148.8,126.6,147.4z"/>
	<path class="st6" d="M851.2,132.6c-0.3,0.9-0.6,1.9-0.9,2.9c-1.8-1.4-3.2-2.5-4.8-3.7c0.3-0.6,0.7-1.1,1.2-2
		c-1.3-1.7-3.2-3.2-3.9-5.5c0.8-0.2,1.6-0.4,2.6-0.7c0,0.3,0,0.9,0.2,1.5c0.6,1.7,1.5,2.5,2.9,1.9c1.1-0.4,1.7,0,2.5,0
		c0.9,0.1,1.9-0.5,2.8-0.8c0.2,0.4,0.4,0.8,0.6,1.3c-0.2,0.8-0.5,1.9-0.8,3.1c1.4,0.5,2.7,0.8,3.9,1.2c0.3,0.5,0.6,1,0.8,1.4
		c-0.3,0.3-0.5,0.6-1,1.2c1.9,0,3.5,0,4.9,0c1.4,1.1,2.2,2.1,1.3,4c-1.3-0.3-2.6-0.6-4.1-1c-0.1,0.9-0.3,1.7-0.4,2.6
		c-0.5,0-1,0-1.5,0c0-1.4,0-2.8,0-3.5c-1.5-1.5-2.5-2.5-3.8-3.8C853.4,132.6,852.3,132.6,851.2,132.6c-0.3-0.3-0.6-0.6-0.9-0.9
		c0.1-0.9,0.1-1.8,0.1-2.6c0.7-0.2,1.2-0.4,2.7-0.9c-1.7-0.2-2.4-0.2-3.3-0.3c-0.7,0.8-1.5,1.6-2.3,2.4c1,0.5,1.9,0.9,2.8,1.4
		C850.6,132,850.9,132.3,851.2,132.6z"/>
	<path class="st6" d="M863.4,130.2c1.6-0.6,2.6-1,3.9-1.4c0.6,0.9,1.2,1.8,1.9,3c0.4-0.8,0.6-1.4,0.9-2c0.4,0,0.8,0.1,1.6,0.1
		c-0.3,0.9-0.6,1.6-0.9,2.2c0.6,0.4,1.2,0.8,1.8,1.2c-0.7,1.6-2.7,1.2-6.3-0.7c-0.5,0.5-1.1,1.1-1.6,1.6c-0.8-0.4-1.5-0.7-2.6-1.2
		C862.6,132.1,863,131.1,863.4,130.2z"/>
	<path class="st6" d="M828.4,131.5c-1.2,0-2.1,0-3,0c-0.6-2,1.4-2.2,1.9-3.3c1.2,0.4,2.4,0.7,3.7,1.2c-0.4,0.9-0.8,1.6-1.2,2.5
		c0.3,0.4,0.6,0.9,1,1.5c-0.9,0.5-1.7,1.1-2.8,1.7c0.3,0.8,0.7,1.8,1.3,3.5c-1.8-0.7-2.9-1.1-4.1-1.6c0-1,0-1.9,0-2.8
		C826.3,133.4,827.3,132.7,828.4,131.5c-0.4,0.1-0.3,0.2-0.3,0.2c0.3-0.2,0.5-0.4,0.8-0.6c-0.1-0.1-0.2-0.2-0.3-0.3
		C828.4,131.1,828.2,131.3,828.4,131.5z"/>
	<path class="st6" d="M160.1,137.2c0.9,0,2,0,3.4,0c0.1,3.4,0.8,6.9-1.2,10.3c-1.5-1.7,0.5-2.8,0.5-4.4c-0.9-0.1-1.7-0.3-2.7-0.5
		C160.1,140.8,160.1,139,160.1,137.2z"/>
	<path class="st6" d="M124.7,148.3c-0.5,0-0.9,0-1.6,0c-0.2,0.8-0.3,1.6-0.5,2.6c-1,0-2,0-3.5,0c0.3-0.5,0.6-0.8,0.9-1.3
		c-0.2-0.2-0.5-0.6-0.9-1c0.9-0.6,1.9-1.2,2.8-1.8c-0.2-0.2-0.4-0.4-0.9-0.9c0.6-0.2,1.1-0.2,1.5-0.4c0.5-0.3,0.8-0.8,1.3-1.2
		c0.7,0.5,1.2,0.8,1.6,1.1c0.3-0.3,0.6-0.5,1.3-1.1c0,1.3,0,2.2,0,3C125.9,147.5,124.8,146.9,124.7,148.3z"/>
	<path class="st6" d="M131.1,160.7c-0.2-0.3-0.5-0.6-0.7-0.9c0.3-0.4,0.6-0.7,0.7-0.8c-0.3-1.8-0.6-3.3-1-5.3c1.6,1.4,2.8,2.4,4,3.5
		c-0.6,0.2-1.1,0.4-1.9,0.6c0.3,0.5,0.6,0.9,1,1.4c-0.3,0.5-0.6,1.1-0.9,1.7c0.5,0.2,1.1,0.4,1.9,0.8c-0.4,0.8-0.8,1.5-1.2,2.1
		c-1.3,0-2.5,0-4.1,0C129.8,162.5,130.4,161.6,131.1,160.7z"/>
	<path class="st6" d="M871.3,137.4c0.3-1,0.5-1.5,0.7-2.2c0.5,0.2,1.1,0.2,1.3,0.5c0.7,0.9,1.3,1.9,2.3,3.4
		c-1.4-0.4-2.4-0.7-3.8-1.1c-1.1,0.6-2.5,1.3-4.5,2.3c1.1,0.7,1.9,1.2,2.8,1.7c-0.9,0.6-1.3,1-1.9,1.4c-2.9-1,0-4.5-2.7-6.1
		C867.8,137.4,869.4,137.4,871.3,137.4z"/>
	<path class="st6" d="M835.5,127c0.8-3.1,1.5-3.4,4.6-1.9c-0.6,0.5-1.2,0.9-1.9,1.5c1.2,0.5,2.3,1.1,3.7,1.7c0,0.7-0.1,1.6-0.2,2.7
		c-1.1-0.5-1.9-0.9-2.6-1.3C838.7,127.9,836.7,128,835.5,127z"/>
	<path class="st6" d="M154.4,146.5c1.6,0,2.8,0,4.1,0c1,1.1,2.1,2.2,3,3.1c-0.4,0.5-0.8,1.1-1.2,1.6c-1.6-0.9-3-1.6-5-2.8
		C155.3,148.4,154.9,147.5,154.4,146.5z"/>
	<path class="st6" d="M151,147.7c0.2,0.9,0.4,1.7,0.6,2.4c-0.6,0.5,1.1,1.3,0.9,2.3c-1.1,0.7-2.1,1.4-3.5,2.3
		c-0.2-0.3-0.6-0.9-1-1.4c0.2-0.2,0.4-0.4,0.7-0.7c-0.3-0.5-0.6-1.1-0.8-1.6C148.7,150.1,149.5,149.3,151,147.7z"/>
	<path class="st6" d="M851.3,138.9c-1.9,0.6-3.6,1.2-5.4,1.8c-0.2-0.2-0.7-0.7-1-1c0-0.8,0-1.5,0-2.5c1.1,0.2,2,0.3,3.4,0.6
		c0.4-0.3,1.2-1,2.5-2C851,137.2,851.2,138.1,851.3,138.9z"/>
	<path class="st6" d="M856.6,126.5c0.8-0.6,1.5-1.1,2.5-1.8c0.6,2.4,1.1,4.5,1.6,6.9c-1.1,0-1.6,0.1-2.2,0c-0.3,0-0.8-0.2-0.9-0.4
		C857.3,129.8,857.1,128.4,856.6,126.5z"/>
	<path class="st6" d="M145.1,144.6c0.2,0.8,0.4,1.6,0.6,2.3c-1.4,1.1-2.9,2.3-4.9,3.8c-0.1-1.4-0.2-2.4-0.3-3.3
		c0.3-0.3,0.6-0.6,0.9-0.9c0.5-0.6,1-1.2,1.5-1.9C143.6,144.6,144.3,144.6,145.1,144.6z"/>
	<path class="st6" d="M838.7,129.8c0.9,1.4,1.6,2.6,2.5,4c-0.3,0.6-0.6,1.2-0.8,1.8c-0.2,0.5-0.4,1.1-0.6,1.6
		c-0.5-0.1-0.9-0.1-1.7-0.2c0.4-1,0.8-1.9,1.2-3c-0.6-0.3-1.2-0.5-1.9-0.8c0-1,0-2,0-3.2C838,129.9,838.6,129.8,838.7,129.8z"/>
	<path class="st6" d="M116.8,157.4c-2.4,1-4.4-2.2-6.5,0.3c-0.5-0.7-1-1.4-1.7-2.3c1.9-0.7,3.3-0.8,4.6,0.3c0.5-0.3,1-0.6,1.7-1.1
		C115.6,155.5,116.2,156.4,116.8,157.4z"/>
	<path class="st6" d="M864.9,145.6c-1,0.3-2,0.7-3.1,1c-0.4-1.4-0.8-2.5-1.2-3.9c0.8-0.3,1.8-0.8,3-1.3
		C864.1,142.8,864.4,143.9,864.9,145.6z"/>
	<path class="st6" d="M137.9,157.2c2.3,1.1,3.9,2.2,3.4,4.9c-0.9,0-1.6,0-1.9,0c-1-0.9-1.7-1.6-2.7-2.5
		C137,159.1,137.3,158.3,137.9,157.2z"/>
	<path class="st6" d="M875.8,129.8c-2.7,0-2.2-2.7-3.6-3.8c0.6-0.7,1-1.1,1.4-1.5C874.7,124,876,127.1,875.8,129.8z"/>
	<path class="st6" d="M141.7,150.7c0.9,0.5,1.5,0.8,2.1,1.2c0.5-0.5,1-1,1.9-1.9c0.3,0.6,0.6,1.2,1.1,2.2c-0.2,0.2-0.6,0.9-1.1,1.7
		c-1.4-0.4-2.8-0.8-4.3-1.3C141.5,152.1,141.5,151.6,141.7,150.7z"/>
	<path class="st6" d="M114.7,150.8c-0.8-0.6-1.9-1.3-3.2-2.1c2.3-0.5,4.2-0.8,6.6-1.3c-0.1,0.6,0,1.5-0.4,1.8
		C117,149.8,116,150.2,114.7,150.8z"/>
	<path class="st6" d="M856.9,145.8c-0.7-0.5-1.3-1-2.2-1.7c0.5-1.3,0.9-2.6,1.4-4c2.7,1.3,1.1,3.5,1.8,5.2
		C857.5,145.4,857.2,145.6,856.9,145.8z"/>
	<path class="st6" d="M854.1,126.1c-0.6-1.2-1.2-2.3-1.9-3.4c1.9-1.1,3.1,0.7,4.7,1.1C856.4,125.4,855.6,126.3,854.1,126.1z"/>
	<path class="st6" d="M835.5,127c-0.3,0.9-0.6,1.9-0.9,2.8c-2.5-0.7-2.5-0.7-2.6-3.4C833.3,125.4,834.3,126.6,835.5,127z"/>
	<path class="st6" d="M876.2,134.3c-1,0-1.8,0-2.6,0c-0.5-1.8-0.1-3.1,2.3-3.8C876,131.9,876.1,133,876.2,134.3z"/>
	<path class="st6" d="M141.4,156.2c0-0.4,0-0.7,0-1.4c0.8,0.2,1.6,0.4,2.5,0.7c0.3-0.2,0.9-0.5,1.9-1.1c0.1,1.2,0.2,2.1,0.3,2.8
		c-0.4,0.2-0.8,0.4-1,0.4C143.8,157.1,142.6,156.6,141.4,156.2z"/>
	<path class="st6" d="M841,141.2c-1.3-0.4-2.5-0.8-3.9-1.2c2.5-2.4,2.5-2.4,4.8-0.5c-0.3,0.3-0.6,0.6-0.9,1
		C841,140.6,841,140.8,841,141.2z"/>
	<path class="st6" d="M116.4,157.6c0.5,0,0.9,0,1.6,0c0,2,0,4.1,0,6.3c-0.3,0.1-0.7,0.2-1,0.2c-1.9-0.9,1.3-2.4-0.5-3.2
		C118.2,159.7,116.9,158.7,116.4,157.6z"/>
	<path class="st6" d="M840.8,140c1.6,1.2,2.4,1.8,3.5,2.6c-0.9,0.9-1.6,1.5-2.9,2.7C841.2,143.4,841.1,142.2,840.8,140z"/>
	<path class="st6" d="M857,138.7c-2.2,0.7-3.4,0.1-4-1.8C855.3,136.2,855.3,136.2,857,138.7z"/>
	<path class="st6" d="M99.6,154.8c1.7,1.3,2.4,1.9,3.4,2.8c-1,0.9-1.7,1.5-3,2.7C99.9,158.3,99.8,157.1,99.6,154.8z"/>
	<path class="st6" d="M158.6,143.6c-1.1-0.6-2.2-1.3-3.3-1.9c0.5-1,0.9-1.8,1.4-2.9c0.9,1.6,1.6,3,2.4,4.4
		C159,143.3,158.8,143.4,158.6,143.6z"/>
	<path class="st6" d="M851.8,148.2c0.6-1.4,1-2.6,1.8-4.6c0.8,2,1.2,3.1,1.8,4.6C854,148.2,853.3,148.2,851.8,148.2z"/>
	<path class="st6" d="M834.7,130.1c0.7,0.4,1.3,0.7,2.3,1.2c-0.8,0.9-1.2,1.5-1.8,1.9c-0.3,0.2-0.8,0.2-1.2,0.2
		C833.2,132,833.4,130.8,834.7,130.1z"/>
	<path class="st6" d="M150.4,143.3c0.5,1.1,0.9,1.8,1.3,2.6c-1.6,1.2-2.7,0.6-3.8-1C148.7,144.4,149.6,143.9,150.4,143.3z"/>
	<path class="st6" d="M837,145.6c-1.3,0.9-2,1.5-3.2,2.4c-0.1-1.3-0.2-2.1-0.3-2.8c0.6-0.6,1-1,1.2-1.2
		C835.4,144.3,836,144.7,837,145.6z"/>
	<path class="st6" d="M870,146.4c1.3-0.9,2-1.5,3.2-2.4c0.1,1.3,0.2,2.1,0.3,2.8c-0.6,0.6-1,1-1.2,1.2
		C871.7,147.7,871.1,147.2,870,146.4z"/>
	<path class="st6" d="M836.5,153.6c1.8-1.5,2.7-2.2,3.5-2.9c0,0.6,0,1.6,0,2.9C839.2,153.6,838.2,153.6,836.5,153.6z"/>
	<path class="st6" d="M871.7,125.8c-0.5,0.2-1.1,0.4-1.6,0.6c0.1,0.2,0.2,0.3,0.4,0.5c-1.7,0-3.5,0-5.2,0c0-0.1,0-0.3-0.1-0.4
		c2-0.4,4.1-0.9,6.1-1.3C871.4,125.3,871.6,125.5,871.7,125.8z"/>
	<path class="st6" d="M152.5,140c0.1,1.6,0.2,3.2-1.9,3.7c-0.3-0.6-0.6-1.2-1-1.8C150.1,140.5,151,139.8,152.5,140z"/>
	<path class="st6" d="M851.2,122.6c0,0.8,0,1.4,0,2.3c-0.8,0.1-1.6,0.1-2.6,0.2c0-0.9,0-1.6,0-2.6
		C849.4,122.6,850.3,122.6,851.2,122.6z"/>
	<path class="st6" d="M78,154.5c0.8-0.6,1.5-0.9,2.3-1.5c0.4,0.9,0.8,2.1,1.3,3.4C79.6,156.2,79.6,156.2,78,154.5z"/>
	<path class="st6" d="M859.3,151.7c0,0.9,0,2,0,3.5c-1-0.6-1.7-1-2.2-1.3C857.9,153.1,858.7,152.3,859.3,151.7z"/>
	<path class="st6" d="M159.9,137.2c-0.8,0-1.7,0-2.8,0c0-0.8,0-1.3,0-1.9c0.7-0.4,1.4-0.7,2.5-1.3
		C159.7,135.3,159.8,136.3,159.9,137.2z"/>
	<path class="st6" d="M129.4,147.4c0-0.8,0-1.6,0-2.3c0-0.5-1.2-0.5-0.5-1.4c2.3,0.1,2.5,1.6,2.3,3.6
		C130.5,147.3,129.9,147.4,129.4,147.4z"/>
	<path class="st6" d="M835.8,138.9c-1.3,0-2.1,0-3.4,0c0.6-1.1,1-1.9,1.6-3C834.7,137,835.2,137.8,835.8,138.9z"/>
	<path class="st6" d="M117.1,154.4c0.9-0.7,1.5-1.2,2.6-2.1c0.2,1.4,0.3,2.3,0.5,3.8C118.8,155.4,118,155,117.1,154.4z"/>
	<path class="st6" d="M823.4,126.3c0,0.6,0,1,0,1.5c-0.9,0-1.7,0-2.6,0c0-0.6,0-1,0-1.5C821.6,126.3,822.5,126.3,823.4,126.3z"/>
	<path class="st6" d="M825.9,145.4c0.5,0.9,0.9,1.7,1.4,2.5c-1.8,1.1-2.1-0.3-2.9-1C824.9,146.4,825.3,145.9,825.9,145.4z"/>
	<path class="st6" d="M851.2,139.1c0.5,0,0.9,0,1.4,0c0.4,0.8,0.8,1.7,1.4,2.8C851.9,141.7,851.1,140.8,851.2,139.1z"/>
	<path class="st6" d="M89.5,162.4c0,0.5,0,1,0,1.5c-0.9,0-1.7,0-2.7,0C86.7,161.3,88.3,162.4,89.5,162.4z"/>
	<path class="st6" d="M823.3,147.3c-0.6,0-1,0-1.5,0c0-0.9,0-1.7,0-2.6c0.6,0,1,0,1.5,0C823.3,145.6,823.3,146.4,823.3,147.3z"/>
	<path class="st6" d="M161.6,118.8c-0.9-0.7-1.3-1.1-1.9-1.6c1-0.5,1.8-0.9,3.6-1.9C162.4,117.1,162,117.9,161.6,118.8z"/>
	<path class="st6" d="M159,153.1c-0.1,0.7-0.2,1.2-0.4,2.1c-1-0.7-1.7-1.3-3-2.1C157.2,153.1,158,153.1,159,153.1z"/>
	<path class="st6" d="M847.8,144.9c-1.1-1.6-1.5-2.2-2.1-2.9c0.8-0.1,1.6-0.1,2.9-0.2C848.3,142.6,848.2,143.2,847.8,144.9z"/>
	<path class="st6" d="M813.7,128.8c0.6,0.6,1,1,1.3,1.4c-0.5,0.5-0.9,1-1.3,1.4c-0.5-0.5-0.9-0.9-1.4-1.4
		C812.8,129.9,813.2,129.4,813.7,128.8z"/>
	<path class="st6" d="M148.5,161c1-0.8,1.7-1.3,2.8-2.1C150.6,160.9,150.6,160.9,148.5,161z"/>
	<path class="st6" d="M137.7,157.6c-0.6,0-1.1-0.1-1.8-0.1c0-0.6-0.1-1-0.1-1.6c0.6-0.1,1.1-0.1,1.7-0.2
		C137.6,156.5,137.7,157,137.7,157.6z"/>
	<path class="st6" d="M848.3,150.2c-1-0.1-1.8-0.1-3-0.2c0.8-0.7,1.2-1.1,2-1.7C847.5,148.8,847.8,149.4,848.3,150.2z"/>
	<path class="st6" d="M875.8,141.2c-0.8,1.1-1.3,1.8-2,2.8C873.8,142,873.8,142,875.8,141.2z"/>
	<path class="st6" d="M152.5,139.5c0.8-0.4,1.6-0.8,2.5-1.3c0.1,0.4,0.2,0.8,0.4,1.5c-1,0.1-2,0.3-2.9,0.4
		C152.5,139.9,152.5,139.7,152.5,139.5z"/>
	<path class="st6" d="M163.4,156c-0.7-0.7-1.2-1.2-1.7-1.7c0.4-0.5,0.8-1,1.7-2.1C163.4,154,163.4,154.8,163.4,156z"/>
	<path class="st6" d="M140.5,147.4c-1.3-0.2-1.2-1.1-0.5-1.7c0.5-0.4,1.4-0.3,1.4,0.8C141.1,146.8,140.8,147.1,140.5,147.4z"/>
	<path class="st6" d="M828.6,126.6c-0.5-1-0.8-1.6-1-2C828.8,124.3,828.8,124.3,828.6,126.6z"/>
	<path class="st6" d="M865.2,155.8c0-0.8,0-1.3,0-1.5c0.5,0.3,1.1,0.7,1.8,1.2C866.4,155.6,866,155.7,865.2,155.8z"/>
	<path class="st6" d="M820.3,134.2c-0.5-0.3-1-0.6-2-1.2C820.6,132.8,820.6,132.8,820.3,134.2z"/>
	<path class="st6" d="M104.9,149.9c0.4,0.7,0.8,1.3,1.2,2C104.9,152.1,103.8,152.3,104.9,149.9z"/>
	<path class="st6" d="M868.2,134.9c-0.8,0.4-1.4,0.7-2.1,1C866,135.1,865.5,133.9,868.2,134.9z"/>
	<path class="st6" d="M862.1,139.8c-0.5,0-1,0-1.5,0c0-0.2,0-0.3-0.1-0.5c0.5-0.1,1-0.2,1.5-0.3
		C862.1,139.3,862.1,139.6,862.1,139.8z"/>
	<path class="st6" d="M94,155.9c0,0.5,0,1,0,1.5c-0.1,0-0.3,0-0.4,0.1c-0.1-0.5-0.2-1-0.4-1.5C93.5,155.9,93.8,155.9,94,155.9z"/>
	<path class="st6" d="M818.6,135.4c0,0.6,0,1.2,0,1.9c-0.2,0-0.3,0-0.5,0c0-0.6,0-1.2,0-1.9C818.3,135.4,818.4,135.4,818.6,135.4z"
		/>
	<path class="st6" d="M164.3,155.7c0.1,0.6,0.1,1.2,0.2,1.8c-0.2,0-0.4,0.1-0.6,0.1c-0.1-0.6-0.2-1.2-0.4-1.8
		C163.8,155.7,164.1,155.7,164.3,155.7z"/>
	<path class="st6" d="M143.1,159.8c0.3-1.1,0.5-1.7,0.6-2.2c0.1,0.4,0.3,0.9,0.4,1.3C144.2,159,143.8,159.2,143.1,159.8z"/>
	<path class="st6" d="M73.7,145.7c0,0.5,0,1,0,1.5c-0.2,0-0.3,0-0.5,0.1c-0.1-0.5-0.2-1-0.3-1.5C73.1,145.7,73.4,145.7,73.7,145.7z"
		/>
	<path class="st6" d="M840.1,125.2c0.1-1.4,1.1-0.8,1.9-0.9C841.9,125.6,840.8,125,840.1,125.2z"/>
	<path class="st6" d="M809.6,124.5c0.6,0,1.2,0,1.9,0c0,0.2,0,0.3,0,0.5c-0.6,0-1.2,0-1.9,0C809.6,124.8,809.6,124.6,809.6,124.5z"
		/>
	<path class="st6" d="M843,131.5c0-0.5,0-1,0-1.5c0.1,0,0.3,0,0.4-0.1c0.1,0.5,0.2,1,0.4,1.5C843.6,131.4,843.3,131.5,843,131.5z"/>
	<path class="st6" d="M123,168.5c0-0.5,0-1,0-1.5c0.1,0,0.3,0,0.4-0.1c0.1,0.5,0.2,1,0.4,1.5C123.6,168.5,123.3,168.5,123,168.5z"/>
	<path class="st6" d="M132,166.7c-0.5,0-1,0-1.5,0c0-0.1,0-0.3-0.1-0.4c0.5-0.1,1-0.2,1.5-0.4C131.9,166.1,132,166.4,132,166.7z"/>
	<path class="st6" d="M842,124.2c0.2-0.3,0.4-0.5,0.6-0.8c0.1,0.3,0.2,0.5,0.3,0.8C842.6,124.2,842.3,124.2,842,124.2z"/>
	<path class="st6" d="M156.2,135.4c0.2-0.3,0.4-0.5,0.6-0.8c0.1,0.3,0.2,0.5,0.3,0.8C156.8,135.4,156.5,135.4,156.2,135.4z"/>
	<path class="st6" d="M156.3,135.4c-0.2,0.3-0.4,0.5-0.6,0.8c-0.1-0.1-0.2-0.2-0.3-0.3c0.3-0.2,0.5-0.4,0.8-0.6
		C156.2,135.3,156.2,135.4,156.3,135.4z"/>
	<path class="st6" d="M92.3,167.4c-0.3,0-0.6,0-0.9,0c0-0.1,0-0.2,0-0.3c0.3,0,0.6,0,0.9,0C92.3,167.2,92.3,167.3,92.3,167.4z"/>
	<ellipse class="st6" cx="155.7" cy="160.8" rx="0.7" ry="0.2"/>
	<path class="st6" d="M825.9,152c0,0.3,0,0.6,0,0.9c-0.1,0-0.2,0-0.3,0c0-0.3,0-0.6,0-0.9C825.7,152,825.8,152,825.9,152z"/>
	<path class="st6" d="M145,144.5c0.2-0.3,0.4-0.5,0.6-0.8c0.1,0.1,0.2,0.2,0.3,0.3c-0.3,0.2-0.5,0.4-0.8,0.6
		C145.1,144.6,145.1,144.6,145,144.5z"/>
	<path class="st6" d="M126.3,142.8c0,0.3,0,0.6,0,0.9c-0.1,0-0.2,0-0.3,0c0-0.3,0-0.6,0-0.9C126.1,142.8,126.2,142.8,126.3,142.8z"
		/>
	<path class="st6" d="M826.8,141.8c0,0.3,0,0.6,0,0.9c-0.1,0-0.2,0-0.3,0c0-0.3,0-0.6,0-0.9C826.6,141.8,826.7,141.8,826.8,141.8z"
		/>
	<g>
		<path class="st5" d="M1511.2,566.1c-0.6,0.4-1.2,0.4-1.8,0.4c0.3-0.5,0.6-0.9,0.8-1.4c-0.4-0.4-0.8-0.8-1-1
			c-2.5,0.6-4.7,1.2-7.4,2c0.9,0.5,1.6,1,2.2,1.3c-0.8,1.4-2.4,2-1.9,3.6c-0.4,0-0.9,0-1.3,0c-1.3-4.4-1.3-4.4-0.6-7.3
			c-1.2,0-2.4,0-3.6,0c0,0,0.1-0.1,0.1-0.1c-0.2-0.2-0.4-0.5-0.6-0.7c-0.1,0.1-0.2,0.2-0.3,0.3c0.2,0.2,0.5,0.4,0.8,0.6
			c0.3,0.9,0.6,1.8,1,3c-1.9,1.2-0.6,3.3-1.5,6.2c0.2,0.5,0.5,0.3,0.5,0.1c-0.1-0.4-0.3-0.8-0.4-1.3c-0.2,0.5-0.3,1.1-0.1,1.1
			c1.4-1,2.4-0.9,4.2-0.8c-1.4,1-2.1,1.5-2.6,1.9c0.3,1.4,0.5,2.7,0.8,4.1c-0.7,0.4-1.5,0.7-2.9,1.4c0.4-1.3,0.6-2,0.8-2.9
			c-0.9-0.8-1.2-2.2-1.8-3.4c-0.8-1.6-0.7-2.6,0.2-3.9c0.3-0.5,0.4-1.7,0-2.2c-1.5-1.8-0.4-4-1-5.9c-0.8-0.4-1.5-0.8-2.4-1.2
			c-2.1,0.6-4.2,2-6.8,1.8c-0.2,0-0.5,0.6-0.7,0.9c-2.1,0.3-1.4,2.5-2.4,4c-0.9-0.7-1.6-1.3-2.8-2.3c1.1-0.5,1.7-0.7,2.4-1
			c0-0.4,0.1-0.8,0.1-1.2c-1,0.2-1.8,0.4-2.7,0.6c0-0.4,0-0.9,0-1.6c-1.5,0.2-3,1.5-4.7,0.1c0.9-1.8,1.8-3.6,2.7-5.5
			c-0.3-0.3-0.7-0.7-1.1-1.1c-1.1,0.6-2.2,1.1-3.3,1.7c-0.2-1.5-1.4-0.7-2.3-1c-0.5,0.6-1,1.4-1.6,2.2c-0.6-0.7-1-1.1-1.4-1.7
			c0.8-1.2,1.6-2.4,2.5-3.8c-1.9-0.7-3.8-0.4-5.6,0.8c-0.5-0.6-0.9-1.1-1.3-1.6c0.2-1,3-2.5,5.1-2.2c1.8,0.3,3.4,1.1,5.2,1.7
			c0.9-1.5,2-3.1,1.2-5.1c-1.6,0.1-2.5,1.2-3.2,2.7c-1.5-1-3-1.9-4.5-2.8c-0.1,0.3-0.3,0.9-0.5,1.5c-0.4,0.1-0.8,0.1-1.6,0.3
			c0.3-1,0.5-1.7,0.5-1.8c-0.2-1.6-0.3-2.7-0.5-3.8c0.3-0.2,0.6-0.5,0.9-0.7c-0.3-0.4-0.6-0.8-0.9-1.1c0.3-0.9,0.6-1.8,0.9-2.7
			c2,0.4,1.7,2.3,2.2,3.7c0.4-0.4,0.6-0.6,1.1-1.1c1,1.2,1.9,2.4,2.9,3.7c0.2,0,0.6,0,1.1,0c0.1,0.3,0.2,0.5,0.3,0.8
			c0.2-0.3,0.4-0.5,0.5-0.8c1-0.1,1.9-0.1,3.5-0.1c-1-0.8-1.5-1.2-2-1.6c-0.5,0.5-0.9,0.9-1.5,1.7c-0.2,0.1-0.5,0.1-0.8,0.1
			c0-1.1,0-2.3,0-3.3c-1.2-0.6-1.8-1.1-2.7-2.1c0.9-0.1,1.8-0.2,3.5-0.4c-1.5-0.8-2.3-1.2-3.4-1.7c-0.1,1-0.1,1.5-0.1,2.1
			c-1.9,0.6-2.3-2-4-1.9c-0.1,0.3-0.3,0.6-0.5,0.9c-0.6-0.3-1.2-0.6-1.8-0.9c0.2-0.4,0.4-0.8,0.4-0.8c-0.9-0.9-1.7-1.7-2.6-2.6
			c0.2-0.2,0.3-0.4,0.5-0.5c-0.1-0.7-0.1-1.4-0.2-2.3c-1,0-2,0-3.3,0c-0.1-1.2-0.2-2.4-0.3-3.3c-1-0.6-1.8-1.1-2.5-1.6
			c-0.4-3.7,0.1-6.9,3.5-9.5c0-1,0-2.5,0-3.9c0.5,0,1.1,0,1.8,0c0-0.8,0-1.3,0-1.7c0.5-0.3,1-0.6,1.4-1c0.3,0.3,0.6,0.5,0.9,0.8
			c-0.3-0.4-0.7-0.7-1-1.1c0.8-0.1,1.6-0.1,2.4-0.2c-0.1-0.2-0.3-0.3-0.4-0.5c-1.1,0.1-2.2,0.1-3.3,0.2c0,0.8,0,1.2,0,1.8
			c-0.6,0.5-1.2,1.1-1.8,1.7c-0.9,0-1.8,0-2.7,0c0.3-0.6,0.6-1.2,0.9-1.9c0,0,0.1,0.1,0.1,0.1c0.2-0.2,0.5-0.4,0.7-0.6
			c-0.1-0.1-0.2-0.2-0.3-0.3c-0.2,0.2-0.4,0.5-0.6,0.8c-0.9-0.3-1.8-0.6-2.7-0.9c-0.3-0.3-0.6-0.6-0.9-0.9c0.4-0.6,0.8-1.2,1.2-1.7
			c1-1,2.8,1.1,3.4-1c0.5,0.2,0.9,0.6,1.5,1.1c0.4-1.6,0.4-2.9-1.5-3.7c0,0.9,0,1.8-0.1,2.6c-1-0.3-1.9-0.5-3-0.9
			c0.6-0.7,0.8-1,0.8-0.9c-0.3-0.6-0.6-1.2-0.8-1.6c-0.8,0.4-1.3,0.7-1.7,1c-1.7-1.1-2.1-3.6-4.4-3.8c0-0.6,0-1.2,0-1.8
			c0.3-0.3,0.6-0.6,0.9-0.9c0.9,0,1.8,0,2.7,0c0,1.2,0,2.3,0,3.3c1,0.4,1.7,0.7,3,1.3c-0.4-1.1-0.7-1.8-1-2.6c1.3-0.9,2.7-1.8,4-2.7
			c0.5,0.3,1,0.6,1.3,0.7c0.8-0.5,1.3-0.9,1.9-1.3c-0.4-0.4-0.6-0.6-1-1c0.9-1.1,2.6-2,1.5-4c-0.3,0.2-0.6,0.6-0.9,0.7
			c-0.6,0.2-1.2,0.1-2,0.2c-0.5-0.7-1-1.5-1.5-2.3c0.9-0.4,1.4-0.7,2-0.9c0-0.2-0.1-0.3-0.1-0.5c-0.9,0-1.7,0-2.6,0
			c0-0.6,0-1.2,0-2.1c0.8-0.5,1.7-1.2,3.2-2.3c0,0,1,0,3.2,0c-1.6,0.9-2.3,1.3-3.1,1.7c1.6,1.8,3.6,2.5,4.2,4.8
			c0.8-2.5,3.6-2.6,4.3-4.8c-0.3-0.6-0.6-1.2-1-1.8c0,0,0.1,0.1,0.1,0.1c0.2-0.2,0.5-0.4,0.7-0.6c-0.1-0.1-0.2-0.2-0.3-0.3
			c-0.2,0.2-0.4,0.5-0.6,0.8c-0.5,0-1.1,0-2,0c0.6-1.4,1-2.4,1.5-3.5c0.7,0,1.4,0,1.6,0c1.4,1.2,2.4,2.1,3.5,3.1
			c-0.3,0.3-0.5,0.5-1,1c0.6,0.3,1.2,0.6,1.8,1c0.1-0.9,0.1-2.1,0.2-3.1c0.2-0.1,0.4-0.2,0.4-0.2c0.1,0.1,0.2,0.2,0.3,0.3
			c5.1,3.8,10,7.8,14.3,12.5c0.3,0.4,0.3,1.1,0.4,2c-3,0.4-3.4,3.5-5.2,5.3c-1.7,1.8-2.5,4.3-4,7c0,0.4,0,1.3,0,2.4
			c-0.6,0.5-1.3,1-1.6,1.3c-0.4,3-0.9,5.4-1.1,7.8c-0.2,2.4,0,4.8,0,6.9c1.7,3.1,3.1,5.8,2.7,8.9c1.2,1.7,2.8,3.1,3.3,4.8
			c1.1,3.5,3.9,4.9,6.7,6.6c-0.2,0.2-0.4,0.4-0.7,0.7c1.3,1.1,2.6,2.2,4,3.3c0.2-0.2,0.4-0.4,0.8-0.8c2.3,3,5.6,4.1,9.1,4.6
			c0.9,1.6,2.7-1.5,3.5,0.7c1.5,0,3,0.1,4.5,0.1c1.4,0,2.7,0.1,4.1,0c1.4-0.1,2.8,0.2,4.2-0.7c1.5-0.9,3.6-0.7,5.5-1.1
			c1,3.8,2,7.6,3.1,11.7c-0.8,0.1-1.5,0.1-2.2,0.2c-0.6,0.7-1.3,1.5-2.4,2.8c0,0-0.1,0.7-0.2,1.5c-0.8,0.1-1.6,0.2-3.1,0.5
			c1.2,0.7,1.9,1.2,2.6,1.7c-2.1,2.2-0.5,4.6-1.3,6.5c0.7,0.7,1.3,1.3,1.8,1.8c0,1.1,0,2.3,0,3.4c-0.5,0-0.8,0-1.3,0
			c-0.5-1.2-0.9-2.5-1.6-4.2c-0.9-0.5-2.6-0.9-2.3-3c0.4,0,0.9,0,1.6,0c0.1-1.1,0.1-2.2,0.2-3.6c-1.1-0.4-2.1-0.8-3.5-1.4
			c-0.1-0.1-0.3-0.8-0.8-1.7c-0.2,1.3-0.4,2.2-0.6,3.2c-3.3-0.3-1.7-4.4-4.3-4.8C1510.6,567.4,1510.9,567,1511.2,566.1
			c0-0.1,0,0.2,0,0.4c0.6-0.1,1.2-0.2,1.8-0.3c0-0.2-0.1-0.4-0.1-0.6C1512.3,565.7,1511.7,565.7,1511.2,566.1z M1463.9,524.9
			c0.1-0.1,0.1-0.1,0.2-0.2c-0.2-0.2-0.4-0.5-0.6-0.7c-0.1,0.1-0.2,0.2-0.3,0.3c0.2,0.2,0.5,0.4,1.2,0c-0.5,1.3-0.8,2.1-1.2,3.1
			c0.6,0.3,1.4,0.7,3.1,1.6C1465.5,526.9,1465,525.8,1463.9,524.9z M1470.2,496.6c-0.3,0-0.5,0-0.8,0c0.1,0.6,0.2,1.2,0.3,1.8
			c0.2,0,0.4-0.1,0.6-0.1c0-0.6-0.1-1.2-1.1-1.7c0.4-1.8,0.7-3.5,1-5.3c-0.9,0.8-1.7,1.5-2.4,2.1c0.3,0.5,0.6,0.9,0.8,1.3
			c-0.4,0.7-0.7,1.2-1,1.8C1468.4,496.7,1468.7,496.7,1470.2,496.6z M1459.5,525.5c0-0.7,0.2-1.4,0-1.6c-0.4-0.4-1.1-0.5-2.4-1.1
			c1.2,2.1,2,3.4,2.7,4.6c1.1-0.5,1.8-0.9,2.8-1.4c-1.1-0.2-1.9-0.3-3.1-2.2c0.1,0.1,0.1,0.1,0.2,0.2c0.2-0.2,0.5-0.4,0.7-0.6
			c-0.1-0.1-0.2-0.2-0.3-0.3C1459.8,523.3,1459.6,523.5,1459.5,525.5z M1488.6,553.7c-0.1,0.1-0.1,0.1-0.2,0.2
			c0.2,0.2,0.4,0.5,0.6,0.7c0.1-0.1,0.2-0.2,0.3-0.3C1489.1,554.1,1488.8,553.9,1488.6,553.7c-0.2-1.4-1.4-0.6-2.1-0.8
			c-1.5,0.6-1.9,2.7-3.8,2.8c-0.2,0-0.3,1.1-0.5,1.6c1.2-1.2,2.4-0.7,3.4-1.1c0,1.2,0,2,0,2.8c-0.7,0.2-1.2,0.4-1.7,0.6
			c0,0.2,0.1,0.4,0.1,0.6c1.1-0.2,2.2-0.4,3.4-0.6c0.2,0.1,0.5,0.3,0.9,0.6c-0.1-2.6-0.1-2.6-2.5-3.7c0.3-0.4,0.9-0.9,0.8-1.3
			C1486.5,553.6,1487.5,553.8,1488.6,553.7z M1522.8,564c-1.2,0.3-2.2,0.6-2.6,0.7c-1.1,1-1.8,1.6-2.7,2.5c0,0.4,0.1,1.1,0.2,2.1
			c0.6-0.5,0.9-0.8,1.2-1c0.4,0.3,0.7,0.5,1.3,1.1c0.5-1.4,0.9-2.6,1.3-3.7c0.8-0.1,1.5-0.2,2.6-0.4
			C1523.5,564.8,1523.2,564.5,1522.8,564z M1479.4,552.8c0-0.7,0-1,0-0.3c-1.5-1.5-2.6-2.6-3.5-3.5c0,1,0,2.4,0,3.8
			C1477.1,552.8,1478.1,552.8,1479.4,552.8z M1472.4,534.4c-1.5-1.2-2.9-2.3-4.1-3.2c-1,0.5-1.8,1-2.9,1.6c0.6,0.6,1,0.9,1.3,1.2
			c0.8-0.5,1.4-0.8,1.9-1.1C1470,533.1,1470.2,535.4,1472.4,534.4z M1461.6,516.8c-0.2,0.2-0.4,0.3-0.5,0.5c0.6,0.9,1.3,1.8,1.9,2.6
			c-0.2,0.3-0.5,0.6-1.5,1.8c1.8-0.8,2.6-1.1,3.3-1.5c-0.5-1-0.8-1.7-1.1-2.4C1463,517.4,1462.3,517.1,1461.6,516.8z M1478.5,557
			c0.1,0.9,0.1,2,0.2,3.5c0.9-0.9,1.4-1.4,2.3-2.4C1480,557.6,1479.4,557.3,1478.5,557z M1462,501.6c-0.4-0.4-0.8-0.9-1.4-1.6
			c0,1.5,0,2.7,0,4.4C1461.2,503.2,1461.6,502.5,1462,501.6z M1464.1,495.6c-1,0.2-1.4,0.3-1.9,0.4c0.1,0.9,0.1,1.7,0.2,3
			C1463,497.7,1463.5,496.9,1464.1,495.6z M1480.6,552.1c0,1.4,0,2,0,2.7c0.7-0.1,1.1-0.2,1.9-0.4
			C1481.9,553.7,1481.5,553.2,1480.6,552.1z M1472.7,488.4c-0.3-0.6-0.6-1.3-0.9-1.9c-0.1,0.1-0.3,0.2-0.4,0.3c0,0.5,0,1,0,1.6
			C1472,488.4,1472.4,488.4,1472.7,488.4z M1458.3,521.6c0-0.1,0-0.7,0-1.4c-0.6,0.1-1,0.2-1.2,0.2
			C1457.6,520.8,1458,521.2,1458.3,521.6z M1462.8,501.6c2.6,1,2.2-0.1,2-1C1464.2,500.9,1463.6,501.2,1462.8,501.6z M1476.3,547.2
			c0.3-1.4,0.3-1.4-1.9-1.2C1475.3,546.6,1475.9,546.9,1476.3,547.2z M1492.8,557.4c-0.2,0-0.3,0-0.5,0c0,0.6,0,1.2,0,1.8
			c0.2,0,0.3,0,0.5,0C1492.8,558.6,1492.8,558,1492.8,557.4z M1465.1,516.5c0.3,0,0.5-0.1,0.8-0.1c-0.1-0.5-0.2-1-0.4-1.5
			c-0.1,0-0.3,0-0.4,0.1C1465.1,515.5,1465.1,516,1465.1,516.5z M1469.2,521.2c-0.2,0-0.3,0-0.5,0c0,0.6,0,1.2,0,1.8
			c0.2,0,0.3,0,0.5,0C1469.2,522.4,1469.2,521.8,1469.2,521.2z M1501.8,561.1c-0.1,0-0.2,0-0.3,0c0,0.3,0,0.6,0,0.9
			c0.1,0,0.2,0,0.3,0C1501.8,561.7,1501.8,561.4,1501.8,561.1z M1479.1,546.5c-0.1,0-0.2,0-0.3,0c0,0.3,0,0.6,0,0.9
			c0.1,0,0.2,0,0.3,0C1479.1,547.2,1479.1,546.9,1479.1,546.5z M1515.1,567.4c0.1,0,0.2,0,0.3,0c0-0.3,0-0.6,0-0.9
			c-0.1,0-0.2,0-0.3,0C1515.1,566.8,1515.1,567.1,1515.1,567.4z M1506.3,562.9c-0.1,0-0.2,0-0.3,0c0,0.3,0,0.6,0,0.9
			c0.1,0,0.2,0,0.3,0C1506.3,563.5,1506.3,563.2,1506.3,562.9z M1472.2,490.9c0-0.1,0-0.2,0-0.3c-0.3,0-0.6,0-0.9,0
			c0,0.1,0,0.2,0,0.3C1471.6,490.9,1471.9,490.9,1472.2,490.9z M1467,489.4c0.1,0,0.2,0,0.3,0c0-0.3,0-0.6,0-0.9c-0.1,0-0.2,0-0.3,0
			C1467,488.8,1467,489.1,1467,489.4z M1465.8,529.6c0,0.1,0,0.2,0,0.3c0.3,0,0.6,0,0.9,0c0-0.1,0-0.2,0-0.3
			C1466.4,529.6,1466.1,529.6,1465.8,529.6z M1465.2,513.9c0.1,0,0.2,0,0.3,0c0-0.3,0-0.6,0-0.9c-0.1,0-0.2,0-0.3,0
			C1465.2,513.3,1465.2,513.6,1465.2,513.9z M1468.2,503.9c-0.1,0-0.2,0-0.3,0c0,0.3,0,0.6,0,0.9c0.1,0,0.2,0,0.3,0
			C1468.2,504.5,1468.2,504.2,1468.2,503.9z M1465.5,503.9c-0.1,0-0.2,0-0.3,0c0,0.3,0,0.6,0,0.9c0.1,0,0.2,0,0.3,0
			C1465.5,504.5,1465.5,504.2,1465.5,503.9z M1464,503.6c0-0.1,0-0.2,0-0.3c-0.3,0-0.6,0-0.9,0c0,0.1,0,0.2,0,0.3
			C1463.4,503.6,1463.7,503.6,1464,503.6z M1455.9,500.6c0,0.1,0,0.2,0,0.3c0.3,0,0.6,0,0.9,0c0-0.1,0-0.2,0-0.3
			C1456.5,500.6,1456.2,500.6,1455.9,500.6z M1463.4,494c0.1,0,0.2,0,0.3,0c0-0.3,0-0.6,0-0.9c-0.1,0-0.2,0-0.3,0
			C1463.4,493.3,1463.4,493.6,1463.4,494z"/>
		<path class="st5" d="M1508.5,573.5c0.2,1.1,0.5,2,0.9,3c0,0-0.1-0.1-0.1-0.1c-0.2,0.2-0.5,0.4-0.7,0.6c0.1,0.1,0.2,0.2,0.3,0.3
			c0.2-0.2,0.4-0.5,0.6-0.8c0.4,0,0.9,0,1.6,0c0.1,0.7,0.1,1.4,0.2,2.4c1.5,0.8,3.2,1.7,5.2,2.7c0,0.7,0,1.8,0,3.3
			c-0.9-0.4-1.5-0.7-2.3-1.1c-1.1,0.2-2.5,0.5-3.9,0.8c0.3-1.3,0.7-2.7,1.1-4.3c-1.3-0.1-2.4-0.2-3.6-0.3c-0.2-0.5-0.4-1-0.6-1.5
			c-0.8,0.4-1.6,0.8-2.4,1.2c0,0.5,0,0.9,0,1.4c-0.8,0-1.7,0-2.7,0c0-0.7,0-1.3,0.1-1.8c0.8-0.4,1.7-0.9,2.7-1.4
			c-1-0.5-1.8-0.8-2.6-1.2c0,0.9,0,1.8-0.1,2.6c-1.1,0.7-2.1,1.3-3.4,2.3c-0.1-1.4-0.2-2.3-0.3-3.2c0.6,0,1.1,0,1.8,0
			c-0.5-0.9-0.8-1.4-1.1-2.1c0.9-0.5,1.7-1,2.4-1.4c0.4,0.2,0.8,0.5,1.7,1c-0.5-2.1-0.9-3.4-1.2-4.8c2.3,0,3.2-1.3,3.7-3.4
			c0.2-0.8,1-1.5,1.5-2.3c0.9,0.5,1.5,0.8,2.1,1.1c0,1.5,0,3,0,4.6c0,0-0.1-0.1-0.1-0.1c-0.2,0.2-0.5,0.4-0.7,0.6
			c0.1,0.1,0.2,0.2,0.3,0.3c0.2-0.2,0.4-0.5,0.6-0.8c0.4-0.3,0.9-0.6,1.6-1c0.1,0.8,0.1,1.6,0.2,2.4
			C1510.2,572.9,1509.3,573.3,1508.5,573.5c-1.4-0.6-2.9-0.9-4.5-1.4c0,0.6,0,1.3,0,2.1c0.3,0.3,0.7,0.7,1.2,1.2
			C1506.3,574.9,1506.8,573.2,1508.5,573.5z M1514.6,582.7c0-0.3,0-0.5-0.1-0.8c-0.5,0.1-1,0.2-1.5,0.3c0,0.1,0,0.3,0.1,0.4
			C1513.6,582.7,1514.1,582.7,1514.6,582.7z"/>
		<path class="st5" d="M1452.2,496.7c-0.6-0.9-1.2-1.8-1.8-2.7c1.2-0.4,2.4-0.9,3.8-1.4c-0.2-0.7-0.5-1.5-0.7-2.3
			c-0.2-0.8-0.4-1.6-0.6-2.3c-1.1,0.2-2.1,0.4-3.2,0.7c-0.1-0.7-0.1-1.1-0.2-1.7c0.9-0.1,1.7-0.3,2.7-0.4c0-1.1,0-2.1,0-3.4
			c1.3,0,2.5,0,3.7,0c-0.2,0.8-0.4,1.5-0.7,2.5c0.4,0.5,1,1.2,1.6,2c0,0.9,0,1.7,0,2.5c-0.8,0.3-1.3,0.4-2.4,0.8
			c1.5,0.3,2.4,0.5,3.1,0.6c-0.4,1.2-0.7,2.3-0.9,2.7C1454.8,495.2,1453.5,495.9,1452.2,496.7z"/>
		<path class="st5" d="M1455.8,532.1c0,1.7,0.1,3.5,0,5.2c0,0.4-0.6,0.7-0.9,1.2c0,0,0.1-0.1,0.1-0.1c-0.2-0.2-0.4-0.5-0.6-0.7
			c-0.1,0.1-0.2,0.2-0.3,0.3c0.2,0.2,0.5,0.4,0.8,0.6c0,0.4,0,0.9,0,1.3c-0.7,0.4-1.5,0.8-2.4,1.2c-0.5-0.7-1.1-1.5-2-2.9
			c0-0.2,0-1.2,0-2.6c1.2,0.2,2.2,0.4,3.3,0.6c0.2-0.4,0.4-1,0.8-1.9c-0.2-0.9-0.5-2.1-0.9-3.8c-0.6-0.5-1.6-1.3-2.6-2
			c0.7-1.2,1.2-2,1.7-3c1.3,0.9,2.4,1.6,3.8,2.6C1456.2,529.2,1457.7,530.9,1455.8,532.1c0,0,0.1-0.1,0.1-0.1
			c-0.2-0.2-0.4-0.5-0.6-0.7c-0.1,0.1-0.2,0.2-0.3,0.3C1455.3,531.7,1455.5,531.9,1455.8,532.1z"/>
		<path class="st5" d="M1445.9,474.9c0.3,0.5,0.6,0.9,0.8,1.4c-0.5,0.5-1,1-1.7,1.7c0.9,0.6,1.7,1.1,3.1,2c-1.3,0.2-2,0.3-3,0.5
			c0,0.7,0,1.6,0,2.6c0.5-0.4,1-0.6,1.6-1.1c0.6,0.5,1.2,1,2,1.6c-0.3,0.6-0.5,1.1-1.1,2.2c0,0.1,2.3,1.1,0,1.8
			c-1.2-1.9-3.4-2.7-4.5-5.7c0.1-0.7,0.5-2.3,0.8-3.9c-0.2-0.2-0.4-0.4-0.6-0.6c0.4-0.8,0.8-1.6,1.2-2.4
			C1445,474.9,1445.4,474.9,1445.9,474.9z"/>
		<path class="st5" d="M1464,542c-0.8-0.2-1.6-0.4-2.4-0.6c-0.4,0.2-1,0.5-1.9,0.9c0-1.4,0-2.4,0-3.6c-0.6-0.2-1.2-0.3-1.6-0.5
			c-0.4-0.2-0.6-0.6-1.1-1.1c0-1,0-2.1,0-3.5c1.8,0.4,3,1.1,4.2,2.2c0.5,0.4,1.3,0.5,2,0.7c-0.2,0.8-0.5,1.7-0.7,2.6
			c0.5,0.3,1.1,0.7,1.6,1C1464,540.8,1464,541.4,1464,542z"/>
		<path class="st5" d="M1448.6,503c-0.8,0.2-1.6,0.4-2.9,0.8c-0.5-0.2-1.6-0.8-2.6-1.3c0.5-1.6,1.3-2.4,2.8-2.2
			c0.1,0.6,0.2,1.2,0.2,1.3c0.6-0.2,1.2-0.4,1.8-0.7c-0.1-0.2-0.2-0.3-0.3-0.5c-0.5,0-1.1-0.1-1.7-0.1c0-1.1,0.4-2.3-1-3.2
			c1.1-0.7,2.1-1.4,3.4-2.2c0.4,0.6,0.9,1.2,1.3,1.8c-0.3,0.3-0.6,0.6-0.9,0.9c-0.3,0.2-0.6,0.5-0.9,0.7c0.3,0.4,0.6,0.8,0.9,1.1
			C1448.6,500.6,1448.6,501.8,1448.6,503z"/>
		<path class="st5" d="M1476.6,564.8c0.4,2.2,0.8,4.6,1.2,7.3c-1.9-0.6-3.3-1-5.2-1.6c0.8-0.7,1.4-1.2,2.1-1.8c-0.4-0.5-1-1.2-1.7-2
			c0.5-0.9,0.9-1.9,1.3-2.7C1475.1,564.3,1475.9,564.6,1476.6,564.8z"/>
		<path class="st5" d="M1455.9,479.4c-1.9,0.4-3.9,0.8-6.1,1.2c0-1.7,0-3.1,0-4.6c2.3-0.1,4.4,0.3,6.1,1.1
			C1455.9,477.9,1455.9,478.7,1455.9,479.4z"/>
		<path class="st5" d="M1506.6,591c-0.6,0.9-1.2,1.8-1.8,2.7c-0.6-0.6-1.8-1.2-1.7-1.7c0.2-2.2-1.4-2.6-2.8-3.3
			c0.4-1.6,0.8-3.3,1.3-4.9c0.3,0,0.6-0.1,1-0.1c0.5,2.1,1.1,4.3,1.6,6.4c0.6,0,1.1,0,1.5,0C1506,590.4,1506.3,590.7,1506.6,591z"/>
		<path class="st5" d="M1469.8,575.1c-0.7,0.3-1.4,0.6-2.6,1.2c0.2,0.1-0.4-0.2-1-0.6c-0.3,0.2-0.6,0.5-0.8,0.7
			c-0.5-0.5-0.9-0.9-1.4-1.2c0.2-0.9,0.4-1.7,0.6-2.6c0.5-0.6,1.2-1.4,1.9-2.3C1467.5,571.7,1468.5,573.2,1469.8,575.1z"/>
		<path class="st5" d="M1447.7,487.6c0.3,0.5,0.5,0.9,0.8,1.4c-0.2,0.2-0.5,0.5-0.8,0.9c0.8,0.5,1.7,0.9,2.7,1.5c0,0.9,0,1.7,0,2.5
			c-0.7,0-1.5,0-2.5,0c-0.5-0.8-1.1-1.8-1.7-2.7c-0.6,0-1.2,0-2.1,0c-0.1-0.8-0.1-1.6-0.2-2.3C1445.4,488.5,1446.5,488,1447.7,487.6
			z"/>
		<path class="st5" d="M1454,509.4c-0.5,0.7-1,1.3-1.6,2.2c-0.8-0.8-1.5-1.3-2.2-2c0.3-0.6,0.6-1.1,0.9-1.6
			c-1.6-0.6-1.9-2.7-3.4-3.5c0.3-0.6,0.6-1,0.9-1.5c1.9-0.5,1.9,2.1,3.5,2.1c0.7,1-0.9,2.7,1.1,3.3
			C1453.4,508.8,1453.7,509.1,1454,509.4z"/>
		<path class="st5" d="M1496.9,582.6c0.6,0.6,1,1,1.4,1.5c-1.1,2.4-3.2,4.4-2.5,7.7c-1,0-1.8,0.1-2.7,0.1c0-1,0-1.7,0-2.5
			c0.5-0.2,1-0.4,1.6-0.6c-0.3-0.4-0.6-0.9-0.9-1.4C1494.8,586,1495.8,584.4,1496.9,582.6z"/>
		<path class="st5" d="M1445.9,515.7c-0.3,0.2-0.8,0.4-0.9,0.7c-0.4,1-0.7,2-1,3c-0.8-0.5-1.3-0.7-1.8-1c0-0.4,0-0.9,0-1.4
			c0.6-0.3,1.2-0.5,1.8-0.8c-0.3-0.4-0.6-0.7-1.1-1.1c0.5-0.9,0.9-1.9,1.5-3.1c0.9,0.2,1.8,0.5,2.9,0.8c0.1-0.1,0.4-0.3,0.7-0.6
			c0.4,0.4,0.8,0.8,1.3,1.3c-0.4,0.4-0.7,0.8-1.1,1.2c-0.7-0.3-1.4-0.5-2.5-1C1445.9,514.6,1445.9,515.2,1445.9,515.7z"/>
		<path class="st5" d="M1513.3,588.2c0.5,0.4,0.8,0.7,1.3,1.2c0.9-0.7,1.8-1.4,3.3-2.5c0.6,0.6,1.3,1.3,2.3,2.2
			c-1.4,0.8-2.2,1.2-2.8,1.6c-0.6,0.4-1.1,0.9-1.6,1.4c-1.4-0.6-2.6-1-4.1-1.7C1512.3,589.6,1512.8,588.9,1513.3,588.2z"/>
		<path class="st5" d="M1455.1,555.3c-1.1,1.4-2.3,2.7-3.6,4.3c-2.3-1.4-3.2-3.2-2.8-5.7c0.6,0,0.9,0,1.3,0c0.2,0.5,0.3,1,0.7,1.9
			c1.3-0.3,2.6-0.7,3.9-1C1454.8,554.9,1454.9,555.1,1455.1,555.3z"/>
		<path class="st5" d="M1464.5,481.5c0.2,1.2,0.3,2.3,0.5,3.5c-2.4-1-1.7-2.8-1.8-4.3c-1.4-0.7-3.5,0.5-4.4-1.9
			c0.7-0.4,1.6-0.9,2.4-1.3c1.5,1,2.7,1.8,4,2.7C1464.9,480.5,1464.7,481,1464.5,481.5z"/>
		<path class="st5" d="M1483.1,570.1c0.6-0.3,1.2-0.6,2.3-1.2c0.3,0.6,0.6,1.3,0.9,2c-0.2,0.2-0.8,0.8-1.4,1.5
			c1.2,0.4,2.4,0.8,4,1.4c-1,0.9-1.5,1.4-2.5,2.3c-0.4-1-0.7-1.6-0.9-2.2c-1.4-0.2-2.9-0.2-3.4-2
			C1483.5,571.9,1482.9,570.8,1483.1,570.1z"/>
		<path class="st5" d="M1449.6,521.3c0.8,0,1.6,0,2.6,0c0,0.6,0,1,0,1.3c-1.6,0.4-3,0.7-5.1,1.2c-0.1-0.3-0.4-1-1-2.3
			c0.2-1.9,0.2-1.9,3.4-2.1C1449.4,520,1449.5,520.6,1449.6,521.3c0-0.1-0.1-0.2-0.2-0.2c-0.2,0.2-0.5,0.4-0.7,0.6
			c0.1,0.1,0.2,0.2,0.3,0.3C1449.2,521.7,1449.4,521.5,1449.6,521.3z"/>
		<path class="st5" d="M1455.8,514.8c-0.6,1.8-1.2,3.7-1.7,5.4c-0.8-0.5-1.4-0.8-2.4-1.4c1.2-0.2,1.6-0.3,2.4-0.5
			c-0.9-1.4-1.7-2.7-2.5-4.1c0.6-0.6,1.3-1.3,2.6-2.6c0.8,0.8,1.5,1.6,2.3,2.3C1456.1,514.2,1455.9,514.5,1455.8,514.8z"/>
		<path class="st5" d="M1482.2,571.9c-1.1,0-2.3,0-3.5,0c0-1.6,0-3,0-4.6c1.6,0.5,3,0.9,4.4,1.4c0,0.5,0,1,0,1.4
			C1481.7,570.2,1482.3,571.3,1482.2,571.9z"/>
		<path class="st5" d="M1523.5,568.1c1.4,0.7,2,1,2.7,1.3c0.3-0.8,0.5-1.3,0.8-2.3c0.7,1.6,1.2,2.9,1.8,4.4c-2.1,0.6-3.8,1-5.5,1.5
			c-0.2-0.2-0.3-0.5-0.5-0.7c0.9-0.2,1.8-0.4,2.6-0.6c-0.3-0.3-0.6-0.6-0.9-0.9C1524.3,570.1,1524,569.4,1523.5,568.1z"/>
		<path class="st5" d="M1505.7,590.1c0.9-3.1,2.3-4.8,4.5-5.4c0.3,0.6,0.6,1.2,1,1.9c-1.6,1.5-3.1,3-4.6,4.5
			C1506.3,590.7,1506,590.4,1505.7,590.1z"/>
		<path class="st5" d="M1469.5,567.4c0.3-0.2,0.7-0.4,1.1-0.6c-0.4-0.9-0.8-1.6-1.4-2.7c1.1-0.1,1.8-0.3,3.1-0.4
			c-0.2,1.3-0.3,2.3-0.5,3.6c0.1,0.5,0.4,1.4,0.8,2.7c-1.4,0.1-2.5,0.1-3.9,0.2c0-0.7,0-1.3,0-1.9
			C1468.9,568,1469.2,567.7,1469.5,567.4z"/>
		<path class="st5" d="M1448.3,527.3c0.7,0.5,1.5,1.1,2.6,1.9c-0.8,0.5-1.3,0.9-2.2,1.4c-0.1,0.4-0.2,1.2-0.4,2.2
			c-0.9-0.4-1.7-0.8-2.4-1.2C1445.3,529.7,1446.9,528.8,1448.3,527.3z"/>
		<path class="st5" d="M1451.8,544.3c-0.7,0.3-1.4,0.5-2.2,0.8c0.2,0.2,0.3,0.3,0.5,0.5c-1,0-2,0-3,0c-0.5-1.1-0.9-2.1-1.4-3.1
			c2.3-1.5,3.6,1.7,5.8,0C1451.6,543.1,1451.7,543.7,1451.8,544.3z"/>
		<path class="st5" d="M1489,567.7c-0.5-1.6-1-2.9-1.4-4.3c0.4-0.4,0.8-0.8,1.5-1.6c0.3,0.6,0.7,1.2,1,1.8c-0.1,0.1-0.4,0.4-0.9,1.1
			c1.4,0,2.6,0,3.8,0c-0.2,0.5-0.2,0.8-0.4,0.9C1491.4,566.3,1490.2,566.9,1489,567.7z"/>
		<path class="st5" d="M1485.8,591.5c0-1.5,0-2.2,0-2.8c0.9-0.4,1.8-0.9,3-1.4c0.5,0.6,1.1,1.3,2,2.4
			C1489.1,590.2,1487.7,590.7,1485.8,591.5z"/>
		<path class="st5" d="M1497.7,593.9c1.7-0.7,2.7-0.1,3.6,1.4c-0.3,0.4-0.6,1-0.9,1.5c0.2,0.4,0.5,0.8,0.7,1.2
			C1498.8,597.5,1497.1,596.5,1497.7,593.9z"/>
		<path class="st5" d="M1437.9,488.6c0-1.2,0-2.4,0-3.4c1.9-0.9,1.5,0.8,2,1.5c0.7,0.1,1.4,0.1,1.6,0.2c-0.5,0.5-1.3,1.3-2.4,2.4
			C1439.2,489.2,1438.4,488.8,1437.9,488.6z"/>
		<path class="st5" d="M1454.4,551.9c-2,0-3.3,0-4.6,0c1-2.3,1.2-2.6,2.8-3.7C1453.2,549.3,1453.7,550.4,1454.4,551.9z"/>
		<path class="st5" d="M1437.8,489c-0.7,0.3-1.3,0.6-2,0.9c0.3,0.3,0.6,0.7,0.6,0.6c-0.4,0.7-0.7,1.3-1.2,2.2c-1-0.9-1.6-1.4-2.2-2
			c0.2-0.5,0.3-1,0.6-1.2c0.9-0.7,1.8-1.2,2.8-1.9C1436.8,488,1437.3,488.5,1437.8,489z"/>
		<path class="st5" d="M1523.9,587.4c-1.1,0.4-2.1,0.8-3.1,1.1c-0.5-1-0.9-1.7-1.4-2.8c1-0.4,2-0.9,3.1-1.3
			C1523,585.6,1523.5,586.5,1523.9,587.4z"/>
		<path class="st5" d="M1442.2,497.6c-0.5-0.4-1.2-0.9-2.1-1.6c0.6-0.8,1.2-1.5,1.7-2.1c0.4,0.4,0.7,0.7,1.1,1.1
			c0.2,1.2,0.5,2.6,0.8,4.1c-0.4,0.2-1.2,0.6-2.6,1.3C1441.5,499.3,1441.8,498.6,1442.2,497.6z"/>
		<path class="st5" d="M1461.8,562.9c-1.5,0.3-2.6-0.2-3.3-2c0.7-0.5,1.5-1,2.2-1.5c0.7,0.3,1.4,0.7,2.3,1
			C1462.6,561.2,1462.2,562,1461.8,562.9z"/>
		<path class="st5" d="M1485.9,579.4c-0.5,2.3-1.6,2.9-3.5,2.4c-0.7-1.7-0.1-2.8,1.5-3.5C1484.5,578.6,1485.1,578.9,1485.9,579.4z"
			/>
		<path class="st5" d="M1438.5,523.2c-2-1.3-1.9-2.9-1.5-4.6c0.8,0,1.5,0,2.2,0C1439.4,520.9,1439.4,521.3,1438.5,523.2z"/>
		<path class="st5" d="M1462.2,555.8c0.4-0.3,0.7-0.6,1.1-0.8c0.2-0.1,0.5-0.2,1.1-0.4c0.5,1,1.1,2,1.7,3.2
			c-0.6,0.2-0.9,0.5-1.3,0.5C1462.9,558.4,1462.1,557.4,1462.2,555.8z"/>
		<path class="st5" d="M1481.4,584.9c-0.7,0.7-1.1,1.1-1.4,1.4c-0.8,0-1.5,0-2.5,0c0.2-1,0.2-1.9,0.6-2.5c0.6-1.1,1.3-1,2,0.1
			C1480.4,584.3,1481,584.6,1481.4,584.9z"/>
		<path class="st5" d="M1507.5,596.4c-0.6,0.3-1.2,0.6-2.3,1.2c-0.3-0.6-0.6-1.3-0.9-2c0.1-0.3,0.3-1.1,0.5-1.9
			C1506.9,593.9,1507.4,594.4,1507.5,596.4z"/>
		<path class="st5" d="M1519.4,596.8c-0.5,1.1-0.9,2.2-1.5,3.7c-0.9-0.9-1.7-1.5-2.7-2.5c1.5-0.7,2.5-1.3,3.6-1.8
			C1519,596.4,1519.2,596.6,1519.4,596.8z"/>
		<path class="st5" d="M1437.3,525.8c1.6,0,2.6,0,3.9,0c0.1,0.7,0.1,1.5,0.2,2.3C1439.3,528.9,1438.3,528.1,1437.3,525.8z"/>
		<path class="st5" d="M1452.5,472c2,0.4,4,0.8,6,1.2c0,0.5,0,0.9,0,1.3c-1.2,0.6-2.1,0.3-3.2-0.6c-0.8-0.7-2-0.9-3-1.3
			C1452.4,472.5,1452.5,472.2,1452.5,472z"/>
		<path class="st5" d="M1484,562.3c1.3,0.8,2,1.3,2.6,1.7c0,1.2,0,2.2,0,2.7c-0.6-0.6-1.4-1.4-2.6-2.6
			C1484,564.4,1484,563.6,1484,562.3z"/>
		<path class="st5" d="M1444.1,531.4c0.9,1.1,1.5,1.8,2.1,2.6c-1.6,1.4-3.2,0.2-4.4,0.8C1442.5,533.8,1443.2,532.8,1444.1,531.4z"/>
		<path class="st5" d="M1491.6,586.4c-0.1-0.3-0.4-0.6-0.3-0.8c0.2-0.5,0.5-1,0.7-1.4c-0.3-0.6-0.6-1.2-1.1-2.1c1.2,0,2,0,3.2,0
			C1493.3,583.7,1493.2,585.5,1491.6,586.4z"/>
		<path class="st5" d="M1460.8,544.3c0.3,0.9,0.5,1.8,0.8,2.9c-0.1,0.1-1,0.6-1.8,1.1c-0.4-0.4-0.7-0.7-1.1-1.1
			c0.4-0.8,0.8-1.6,1.2-2.4C1460.2,544.6,1460.5,544.4,1460.8,544.3z"/>
		<path class="st5" d="M1472.2,575.8c1.1,1.6,1.9,2.8,2.9,4.2c-1,0-1.7,0-2.5,0C1472.8,578.8,1470.3,578.1,1472.2,575.8z"/>
		<path class="st5" d="M1457,563.6c-1.2,0.5-2.3,0.9-3.7,1.4c0-1.2,0-1.9,0-2.8C1454.7,561.2,1455.8,562.2,1457,563.6z"/>
		<path class="st5" d="M1448.8,471.3c0.8,0,1.4,0,2.3,0c0.1,0.8,0.1,1.6,0.2,2.6c-0.9,0-1.6,0-2.5,0
			C1448.8,473.1,1448.8,472.2,1448.8,471.3z"/>
		<path class="st5" d="M1437.7,535.4c0-0.8,0-1.4,0-2.3c0.8-0.1,1.6-0.1,2.6-0.2c0,0.9,0,1.6,0,2.5
			C1439.5,535.4,1438.6,535.4,1437.7,535.4z"/>
		<path class="st5" d="M1455.9,483.1c-0.3-0.6-0.6-1.2-1-1.8c0.3-0.6,0.7-1.2,1-1.8c1.8,0.5,2.1,1.7,1.6,3.6
			C1457,483.1,1456.4,483.1,1455.9,483.1z"/>
		<path class="st5" d="M1438.8,505.9c0.7,0,1.6,0,2.5,0c0,0.8,0,1.5,0,2.4c-0.8,0-1.5,0-2.5,0
			C1438.8,507.4,1438.8,506.6,1438.8,505.9z"/>
		<path class="st5" d="M1525.1,579.1c-0.1-2.9-0.1-2.9,1.1-4.7c0.4,0.7,0.7,1.2,1.2,2.2C1527.1,577.1,1526.4,577.8,1525.1,579.1z"/>
		<path class="st5" d="M1474.4,558.8c-0.7,0.3-1.4,0.6-2,0.9c-0.1-0.1-0.6-0.7-1-1.3c-0.3-0.4-0.7-0.9-0.6-1.9
			c1.1,0.4,2.3,0.9,3.4,1.3C1474.2,558.1,1474.3,558.4,1474.4,558.8z"/>
		<path class="st5" d="M1440.3,549.9c-1.1-2.2-1.7-3.5-2.5-5.1c0.8,0,1.6-0.1,2.5-0.1C1440.3,546.3,1440.3,547.7,1440.3,549.9z"/>
		<path class="st5" d="M1479.4,583.4c-0.4-1.7-0.7-2.8-1.2-4.9c1.6,1,2.4,1.5,3.4,2.2C1480.9,581.6,1480.3,582.3,1479.4,583.4z"/>
		<path class="st5" d="M1474.1,592.2c0-1.6,0-2.5,0-3.8c0.7,0,1.5-0.1,2.4-0.2c0.1,0.6,0.3,1.1,0.2,1.4
			C1476,590.4,1475.3,591.1,1474.1,592.2z"/>
		<path class="st5" d="M1465.2,561.3c1.7-0.7,2.7-1.1,4-1.6c0,1.3,0,2.2,0,3.4C1468,562.6,1467,562.1,1465.2,561.3z"/>
		<path class="st5" d="M1496.6,590.6c0.6-0.6,0.9-0.9,1.4-1.4c0.7,1.1,2.4,1.5,2.2,3.5C1498.3,593.2,1497.8,591.3,1496.6,590.6z"/>
		<path class="st5" d="M1438.4,505.9c-1.3-1.1-2.2-2-1.4-3.6c1.5,0.3,1.5,0.3,2.6,1.6C1439.3,504.5,1438.9,505.1,1438.4,505.9z"/>
		<path class="st5" d="M1433.8,516c-1,1.2-1.5,1.9-2.3,2.9c-0.7-0.7-1.2-1.2-1.7-1.6C1429.6,516.4,1430.9,515.9,1433.8,516z"/>
		<path class="st5" d="M1457.9,551.1c-1.3-0.1-2.1-0.2-3.7-0.3c1.2-1.3,1.8-2,3-3.3C1457.5,549.1,1457.6,549.8,1457.9,551.1z"/>
		<path class="st5" d="M1438.6,483.5c-0.7-0.4-1.4-0.7-2.9-1.6c1.4-0.5,2.1-0.7,3.1-1.1c-0.1-0.1,0.4,0.4,1.1,1.1
			C1439.2,482.7,1438.7,483.4,1438.6,483.5z"/>
		<path class="st5" d="M1479.6,576.3c-1,0.1-1.8,0.2-2.8,0.3c0-1,0-1.8,0-2.7C1478.7,573.6,1479.2,574.7,1479.6,576.3z"/>
		<path class="st5" d="M1467.4,583.5c0.7-0.6,1.4-1.2,2.5-2.1c0.2,1.3,0.4,2.1,0.5,3.1c-1,0-2,0-2.9,0
			C1467.6,584.1,1467.5,583.8,1467.4,583.5z"/>
		<path class="st5" d="M1494.9,582.9c0-1.1,0-1.8,0-2.7c0.8,0,1.5-0.1,2.2-0.1C1498.1,581.2,1497.3,582.3,1494.9,582.9z"/>
		<path class="st5" d="M1510.3,602.9c0.8,0,1.7,0,2.6,0c0,0.9,0,1.7,0,2.6C1510.9,605.4,1510.2,604.4,1510.3,602.9z"/>
		<path class="st5" d="M1445.9,515.8c0.8,0,1.7,0,2.6,0c0,0.9,0,1.7,0,2.6C1446.5,518.4,1445.8,517.4,1445.9,515.8z"/>
		<path class="st5" d="M1488.1,576.3c1.5,0.7,2.3,1.1,3.5,1.7c-0.9,0.9-1.6,1.6-2.3,2.4c-0.2-0.1-0.4-0.3-0.6-0.4
			c0.2-0.5,0.6-1,0.5-1.4C1489.1,578,1488.7,577.4,1488.1,576.3z"/>
		<path class="st5" d="M1455,547.7c-0.6-0.5-1.3-1-2-1.6c0.7-0.6,1.4-1.1,2.4-1.9c0.2,1.4,0.3,2.2,0.4,3.1
			C1455.6,547.4,1455.3,547.5,1455,547.7z"/>
		<path class="st5" d="M1439.2,475.1c1.3,0,2.1,0,3.3,0c-0.6,1.1-1,1.9-1.6,3C1440.3,476.9,1439.8,476.2,1439.2,475.1z"/>
		<path class="st5" d="M1468.5,568.3c-0.4,0-0.9,0-1.6,0c-0.1-0.8-0.1-1.7-0.2-2.6c1.7-0.3,2.3,0.5,2.7,1.7
			C1469.2,567.7,1468.9,568,1468.5,568.3z"/>
		<path class="st5" d="M1491.6,600.6c1.3-0.8,2-1.2,3.1-1.9c0.1,1.2,0.1,2,0.2,3.4C1493.7,601.6,1492.9,601.2,1491.6,600.6z"/>
		<path class="st5" d="M1514.3,596.7c-0.7-1.1-1.1-1.8-1.7-2.8c1.3,0,2.2,0,3.5,0C1515.5,595,1515,595.7,1514.3,596.7z"/>
		<path class="st5" d="M1447.1,506.2c0.7,1.3,1,2,1.5,3c-0.8,0.1-1.6,0.1-2.9,0.2C1446.2,508.3,1446.5,507.5,1447.1,506.2z"/>
		<path class="st5" d="M1444.6,471.6c1.6,0.9,2.3,1.3,3.3,1.8c-0.5,0.5-0.8,0.9-1.2,1.2C1445.9,475,1445.9,475,1444.6,471.6z"/>
		<path class="st5" d="M1437.9,497.1c-0.4,0.8-0.9,1.6-1.3,2.4c-0.6-0.6-1-1-1.5-1.6c0.7-0.5,1.4-1,2.1-1.5
			C1437.4,496.7,1437.6,496.9,1437.9,497.1z"/>
		<path class="st5" d="M1517.5,576.4c-0.9,0-1.7,0-2.6,0c0-0.5-0.1-0.9-0.1-1.5c0.9,0,1.7,0,2.6,0
			C1517.5,575.4,1517.5,575.9,1517.5,576.4z"/>
		<path class="st5" d="M1444.4,556.6c-0.5-0.9-1-1.5-1.4-2.2c1.6-1.4,2.1,0.2,2.9,0.8C1445.5,555.6,1445.1,556,1444.4,556.6z"/>
		<path class="st5" d="M1462.2,555.4c-0.6,0.5-1,0.8-1.4,1.1c-0.4-0.4-0.8-0.8-1.3-1.3c0.6-0.5,1.3-1,2.3-1.9
			C1462,554.3,1462.2,555,1462.2,555.4z"/>
		<path class="st5" d="M1507.5,596.5c0.9,0,1.7,0,2.6,0c0,0.5,0.1,0.9,0.1,1.5c-0.9,0-1.7,0-2.6,0
			C1507.6,597.5,1507.6,597,1507.5,596.5z"/>
		<path class="st5" d="M1490.5,569.9c0.8,0.8,1.2,1.2,1.7,1.7c-0.8,0.5-1.6,0.9-2.4,1.4c-0.2-0.2-0.3-0.4-0.5-0.6
			c0.3-0.3,0.7-0.6,0.9-0.9C1490.5,571.1,1490.4,570.7,1490.5,569.9z"/>
		<path class="st5" d="M1447.6,527.5c-0.4,0-1-0.1-1.6-0.1c0-0.5-0.1-0.9-0.1-1.6c0.9,0,1.6-0.1,2.7-0.1
			C1448.2,526.4,1447.9,527,1447.6,527.5z"/>
		<path class="st5" d="M1523.8,587.3c0.7,0.1,1.2,0.1,2.2,0.2c-0.5,1.1-0.9,1.8-1.7,3.4C1524,589.2,1523.9,588.3,1523.8,587.3z"/>
		<path class="st5" d="M1526.7,589.9c0-1.1,0-2.2,0-3.4c0.6,0.1,1.6-0.7,1.3,0.7c-0.2,0.9-0.6,1.8-0.9,2.7
			C1527,589.9,1526.9,589.9,1526.7,589.9z"/>
		<path class="st5" d="M1482.1,591.7c0.1-0.7,0.2-1.2,0.4-2.1c1,0.7,1.7,1.2,2.8,2.1C1483.9,591.7,1483.1,591.7,1482.1,591.7z"/>
		<path class="st5" d="M1523.4,594.6c0.4,0.4,0.9,0.9,1.3,1.3c-0.4,0.4-0.8,0.8-1.4,1.5c-0.4-0.5-0.8-1.1-1.2-1.6
			C1522.6,595.5,1523,595,1523.4,594.6z"/>
		<path class="st5" d="M1485.8,579.1c0-0.4,0.1-1,0.1-1.6c0.5,0,0.9-0.1,1.6-0.1c0,0.9,0.1,1.6,0.1,2.7
			C1486.8,579.7,1486.3,579.4,1485.8,579.1z"/>
		<path class="st5" d="M1426.9,509.1c1.1-0.9,1.6-1.3,2.4-1.9c0.2,0.9,0.3,1.3,0.4,1.9C1428.9,509.1,1428.3,509.1,1426.9,509.1z"/>
		<path class="st5" d="M1442.3,506.7c0.7,0,1.1,0,1.6,0c0.1,0.5,0.2,0.9,0.3,1.3C1442.9,508.8,1442.2,508.7,1442.3,506.7z"/>
		<path class="st5" d="M1433.9,537.2c-0.8-1.5-1.2-2.2-1.6-3.1c0.4-0.1,0.9-0.2,1.6-0.3C1433.9,534.8,1433.9,535.6,1433.9,537.2z"/>
		<path class="st5" d="M1478.5,562.9c0,0.5,0,1.1,0,1.8c-0.8,0-1.3,0-1.8,0c0-0.5,0-1.1,0-1.8C1477.5,562.9,1478,562.9,1478.5,562.9
			z"/>
		<path class="st5" d="M1465.8,581.2c0,0.5,0,0.8,0,1.3c-0.5,0.1-1,0.2-1.6,0.3c-0.1-0.6-0.2-1-0.3-1.6
			C1464.6,581.2,1465.2,581.2,1465.8,581.2z"/>
		<path class="st5" d="M1457.7,568.4c0.7,0,1.1,0,1.6,0c0.1,0.5,0.2,0.9,0.3,1.3C1458.3,570.4,1457.6,570.4,1457.7,568.4z"/>
		<path class="st5" d="M1442.3,518.4c0,0.6-0.1,1.1-0.1,1.7c-0.5,0-0.9,0.1-1.5,0.1c-0.1-0.5-0.1-1-0.2-1.7
			C1441.2,518.5,1441.7,518.4,1442.3,518.4z"/>
		<path class="st5" d="M1460.4,532.9c-0.7,0-1.1,0-1.6,0c-0.1-0.5-0.2-0.9-0.3-1.3C1459.7,530.8,1460.5,530.8,1460.4,532.9z"/>
		<path class="st5" d="M1463.6,475.5c0.4,0.7,0.8,1.3,1.2,1.9C1463.6,477.7,1462.6,478,1463.6,475.5z"/>
		<path class="st5" d="M1465.5,565.5c-0.4,0-0.7,0-1.3,0c0-0.6,0-1.1,0-1.6c0.1-0.1,0.3-0.2,0.4-0.3
			C1464.9,564.3,1465.2,564.9,1465.5,565.5z"/>
		<path class="st5" d="M1504.3,584c0.4,0.3,1,0.6,1.9,1.2C1504,585.4,1504,585.4,1504.3,584z"/>
		<path class="st5" d="M1474.1,575.3c0-0.5,0-0.9,0-1.4c0.6,0,1.1,0,2.7,0C1475.3,574.7,1474.8,575,1474.1,575.3z"/>
		<path class="st5" d="M1485.9,583.1c0,0,0-0.4,0-1c0.6,0,1.1,0,1.6,0c0.1,0.1,0.2,0.3,0.3,0.4
			C1487,582.7,1486.3,582.9,1485.9,583.1z"/>
		<path class="st5" d="M1511.6,574c-0.3,0.3-0.8,0.8-1.2,1.2c0-0.2-0.1-0.6-0.2-1.2C1510.9,574,1511.5,574,1511.6,574z"/>
		<path class="st5" d="M1444.6,511.1c-0.4,0-0.8,0-1.3,0c0-0.6,0-1.1,0-1.6c0.1-0.1,0.3-0.2,0.4-0.3
			C1444,509.8,1444.3,510.5,1444.6,511.1z"/>
		<path class="st5" d="M1438.6,522.9c0.5,0,1.1,0.1,1.8,0.1c0,0.6-0.1,1.1-0.1,1.7c-0.8-0.5-1.5-1-2.1-1.4
			C1438.3,523.3,1438.5,523.1,1438.6,522.9z"/>
		<path class="st5" d="M1452.4,534.7c-0.8,0-1.2,0-1.6,0c-0.1-0.1-0.2-0.2-0.3-0.3c0.7-0.2,1.4-0.4,1.7-0.5
			C1452.1,533.5,1452.2,533.9,1452.4,534.7z"/>
		<path class="st5" d="M1472.9,561.8c-0.5,0-1,0-1.5,0c0-0.1,0-0.3-0.1-0.4c0.5-0.1,1-0.2,1.5-0.3
			C1472.9,561.3,1472.9,561.6,1472.9,561.8z"/>
		<path class="st5" d="M1507,582.1c-1.1-0.3-1.7-0.5-2.2-0.6c0.4-0.1,0.8-0.3,1.3-0.4C1506.2,581,1506.4,581.4,1507,582.1z"/>
		<path class="st5" d="M1494.7,593.5c-0.5,0-1,0-1.5,0c0-0.1,0-0.3-0.1-0.4c0.5-0.1,1-0.2,1.5-0.3
			C1494.6,593,1494.7,593.3,1494.7,593.5z"/>
		<path class="st5" d="M1505,606.3c0-0.5,0-1,0-1.5c0.1,0,0.3,0,0.4-0.1c0.1,0.5,0.2,1,0.4,1.5
			C1505.5,606.2,1505.2,606.2,1505,606.3z"/>
		<path class="st5" d="M1433,495.6c-0.5,0-1,0-1.5,0c0-0.1,0-0.3-0.1-0.4c0.5-0.1,1-0.2,1.5-0.4C1433,495.1,1433,495.3,1433,495.6z"
			/>
		<path class="st5" d="M1438.5,514.1c0,0.5,0,1,0,1.5c-0.1,0-0.3,0-0.4,0.1c-0.1-0.5-0.2-1-0.3-1.5
			C1438,514.1,1438.2,514.1,1438.5,514.1z"/>
		<path class="st5" d="M1428,483.1c0-0.6,0-1.2,0-1.8c0.2,0,0.3,0,0.5,0c0,0.6,0,1.2,0,1.8C1428.3,483.1,1428.1,483.1,1428,483.1z"
			/>
		<path class="st5" d="M1446.6,535.8c0,0.5,0,1,0,1.5c-0.1,0-0.3,0-0.4,0.1c-0.1-0.5-0.2-1-0.3-1.5
			C1446.1,535.9,1446.4,535.8,1446.6,535.8z"/>
		<path class="st5" d="M1458,542c0-0.3,0-0.6,0-0.9c0.1,0,0.2,0,0.3,0c0,0.3,0,0.6,0,0.9C1458.2,542,1458.1,542,1458,542z"/>
		<path class="st5" d="M1458,575.6c0-0.3,0-0.6,0-0.9c0.1,0,0.2,0,0.3,0c0,0.3,0,0.6,0,0.9C1458.2,575.6,1458.1,575.6,1458,575.6z"
			/>
		<path class="st5" d="M1527.8,574.7c0-0.3,0-0.6,0-0.9c0.1,0,0.2,0,0.3,0c0,0.3,0,0.6,0,0.9C1528,574.7,1527.9,574.7,1527.8,574.7z
			"/>
		<ellipse class="st5" cx="1475.3" cy="583.3" rx="0.6" ry="0.2"/>
		<path class="st5" d="M1528.4,584.3c-0.3,0-0.6,0-0.9,0c0-0.1,0-0.2,0-0.3c0.3,0,0.6,0,0.9,0
			C1528.4,584.1,1528.4,584.2,1528.4,584.3z"/>
		<path class="st5" d="M1512,589.3c-0.2-0.2-0.5-0.4-0.7-0.6c0.1-0.1,0.2-0.2,0.3-0.3c0.2,0.2,0.4,0.5,0.6,0.7
			C1512.1,589.1,1512.1,589.2,1512,589.3z"/>
		<path class="st5" d="M1510.2,602.9c-0.2-0.2-0.5-0.4-0.7-0.6c0.1-0.1,0.2-0.2,0.3-0.3c0.2,0.2,0.4,0.5,0.6,0.7
			C1510.3,602.7,1510.2,602.8,1510.2,602.9z"/>
		<path class="st5" d="M1449.8,483.1c0-0.3,0-0.6,0-0.9c0.1,0,0.2,0,0.3,0c0,0.3,0,0.6,0,0.9C1450,483.1,1449.9,483.1,1449.8,483.1z
			"/>
		<path class="st5" d="M1465.8,477c0.3,0,0.6,0,0.9,0c0,0.1,0,0.2,0,0.3c-0.3,0-0.6,0-0.9,0C1465.8,477.2,1465.8,477.1,1465.8,477z"
			/>
		<path class="st5" d="M1439.8,472.2c0-0.3,0-0.6,0-0.9c0.1,0,0.2,0,0.3,0c0,0.3,0,0.6,0,0.9C1440,472.2,1439.9,472.2,1439.8,472.2z
			"/>
		<path class="st5" d="M1454.9,513c0.3-0.3,0.6-0.6,0.9-0.9C1455.6,512.4,1455.2,512.7,1454.9,513z"/>
	</g>
	<g>
		<path class="st7" d="M435.6,604.6c-0.3,0-0.6-0.1-0.8-0.2c-0.7-0.4-0.9-1.4-0.5-2.1c2-3.1,5.1-5.3,8.6-6.1
			c3.5-0.8,7.4-0.2,10.5,1.6c0.7,0.4,0.9,1.4,0.5,2.1c-0.4,0.7-1.4,0.9-2.1,0.5c-2.4-1.5-5.4-1.9-8.2-1.3c-2.8,0.7-5.3,2.4-6.8,4.8
			C436.5,604.4,436.1,604.6,435.6,604.6z"/>
	</g>
	<g>
		<path class="st7" d="M651.7,602.8c-0.7,0-1.4-0.6-1.5-1.3c-0.1-0.8,0.5-1.6,1.3-1.7c4.9-0.6,10.6-3.7,12.3-9.2
			c2-6.2-2-12.6-3.8-15c-1.8-2.4-3.9-4.6-6-6.8c-1.9-2-3.9-4-5.6-6.3c-2.2-2.9-4.2-6.2-6.1-10.2c-0.4-0.8,0-1.7,0.7-2
			c0.8-0.4,1.7,0,2,0.7c1.8,3.8,3.7,7,5.8,9.7c1.6,2.1,3.6,4.1,5.4,6c2.1,2.2,4.3,4.5,6.2,7.1c4.4,6,5.9,12.4,4.3,17.7
			c-1.8,5.8-7.8,10.4-14.8,11.3C651.9,602.8,651.8,602.8,651.7,602.8z"/>
	</g>
	<g>
		<path class="st7" d="M807.3,83.8c-0.7,0-1.3-0.4-1.5-1.1c-2.3-8.3-4.7-16.4-9.3-23.3c-3.3-5-7.8-9-12.6-11.3
			c-0.8-0.4-1.1-1.3-0.7-2c0.4-0.8,1.3-1.1,2-0.7c5.3,2.5,10.2,6.9,13.8,12.4c4.8,7.3,7.3,15.6,9.7,24.2c0.2,0.8-0.3,1.6-1.1,1.9
			C807.6,83.8,807.5,83.8,807.3,83.8z"/>
	</g>
	<g>
		<path class="st7" d="M796.2,161.3c-0.3,0-0.6-0.1-0.9-0.3c-0.7-0.5-0.8-1.4-0.3-2.1c8.3-11.6,10.3-27.6,5.2-40.9
			c-0.2-0.4-0.1-0.9,0.1-1.2c0.2-0.4,0.6-0.7,1-0.8c7.6-1.9,16.1-4.6,22.1-10.4c5.2-5.1,8.6-14.3,4.5-21.3c-1.3-2.3-3.2-3.8-5.2-4.2
			c-2.1-0.4-4.4,0.3-6.4,1l-32.5,10.4c-6.1,1.9-12.4,4-17.7,7.5c-5.8,3.8-9.6,9.2-10.4,14.7c-0.1,0.8-0.9,1.4-1.7,1.3
			c-0.8-0.1-1.4-0.9-1.3-1.7c1-6.3,5.2-12.4,11.7-16.7c5.7-3.8,12.2-5.9,18.5-7.9l32.5-10.4c2.3-0.7,5.1-1.6,7.9-1.1
			c2.8,0.6,5.5,2.6,7.2,5.7c4.9,8.4,1.2,18.9-5,25c-6,5.9-14.3,8.8-21.8,10.8c4.7,13.9,2.4,30.2-6.1,42.1
			C797.1,161.1,796.6,161.3,796.2,161.3z"/>
	</g>
	<g>
		<path class="st7" d="M772.9,95.1c-0.6,0-1.2-0.4-1.4-1c-1.7-5.2-4.4-10-7.9-14.2c-0.5-0.6-0.4-1.6,0.2-2.1
			c0.6-0.5,1.6-0.4,2.1,0.2c3.7,4.5,6.6,9.6,8.4,15.2c0.3,0.8-0.2,1.6-1,1.9C773.2,95.1,773,95.1,772.9,95.1z"/>
	</g>
	<g>
		<path class="st7" d="M804.4,131.4c-0.5,0-1.1-0.3-1.3-0.8c-0.4-0.7-0.1-1.6,0.7-2c5.7-2.9,9.6-8.9,9.9-15.3c0-0.8,0.8-1.5,1.6-1.4
			c0.8,0,1.5,0.8,1.4,1.6c-0.4,7.5-4.9,14.5-11.6,17.9C804.8,131.4,804.6,131.4,804.4,131.4z"/>
	</g>
	<g>
		<path class="st7" d="M817.7,127.8c-2.7,0-5.2-0.5-7.4-1.5c-0.8-0.3-1.1-1.2-0.8-2c0.3-0.8,1.2-1.1,2-0.8
			c8.5,3.9,18.9-1.5,23.7-8.6c4.5-6.8,6.3-16.1,5.3-28.4c-0.7-8.3-2.3-16.6-4.8-24.6c-1.5-5-3.5-9.3-5.8-13
			c-0.4-0.7-0.2-1.6,0.5-2.1c0.7-0.4,1.6-0.2,2.1,0.5c2.4,3.9,4.5,8.5,6.1,13.7c2.6,8.2,4.2,16.7,4.9,25.3c1,13-0.9,22.9-5.8,30.3
			C832.6,124.3,824.7,127.8,817.7,127.8z"/>
	</g>
	<g>
		<path class="st7" d="M840.3,126.7c-3.7,0-7.4-0.8-10.9-2.6c-0.7-0.4-1-1.3-0.6-2c0.4-0.7,1.3-1,2-0.6c9.2,4.7,24.3,2,32.9-10.6
			c8-11.9,7.5-26.9,5.7-37.5c-0.9-5.1-2.2-9.7-3.9-13.4c-0.3-0.8,0-1.7,0.8-2c0.8-0.3,1.7,0,2,0.8c1.8,4.1,3.2,8.7,4.1,14.2
			c1.9,11.1,2.4,26.9-6.2,39.7C860.7,120.5,850.6,126.7,840.3,126.7z"/>
	</g>
	<g>
		<path class="st7" d="M866.8,128.5c-5.6,0-10.8-1.8-14.8-5.3c-0.6-0.5-0.7-1.5-0.1-2.1c0.5-0.6,1.5-0.7,2.1-0.1
			c5.3,4.6,13.4,5.8,21.1,3c0.8-0.3,1.6,0.1,1.9,0.9c0.3,0.8-0.1,1.6-0.9,1.9C873,128,869.8,128.5,866.8,128.5z"/>
	</g>
	<g>
		<path class="st0" d="M860.1,235.1c-4.3-0.1-8.4-0.1-12.4-0.2c-18.3-0.2-34.2-0.3-59-4.6l0.8-4.5c24.4,4.3,40.1,4.4,58.2,4.6
			c4,0,8.1,0.1,12.5,0.2L860.1,235.1z"/>
	</g>
	<g>
		<path class="st7" d="M174.4,172.5c-0.6,0-1.2-0.4-1.4-1c-5.3-14.4-4.6-31,1.8-45c-7,1.8-14.8,3.8-22.4,1.8
			c-5.2-1.4-10-5.5-12.2-10.4c-1.7-3.8-1.7-7.8,0-11.1c3.5-7,12.1-8.7,20.1-9.5l27.6-2.8c2.3-0.2,4.9-0.5,7.5-0.5
			c0.8,0,1.5,0.7,1.5,1.5c0,0.8-0.7,1.5-1.5,1.5c0,0-0.1,0-0.1,0c-2.4,0-4.9,0.3-7.1,0.5l-27.6,2.8c-7.1,0.7-14.8,2.2-17.7,7.9
			c-1.6,3.3-0.9,6.4,0.1,8.6c1.9,4.1,5.9,7.6,10.2,8.7c7,1.8,14.3-0.1,21.3-1.9c0.9-0.2,1.8-0.5,2.7-0.7c0.6-0.1,1.2,0.1,1.6,0.5
			c0.4,0.5,0.4,1.1,0.1,1.6c-7.3,13.9-8.4,30.9-3,45.6c0.3,0.8-0.1,1.6-0.9,1.9C174.7,172.5,174.6,172.5,174.4,172.5z"/>
	</g>
	<g>
		<path class="st7" d="M156.7,100.6c-0.7,0-1.3-0.4-1.5-1.1c-2.1-8.1-5.6-15.7-10.2-22.7c-1.8-2.7-3.5-4.9-5.3-6.8
			c-0.6-0.6-0.6-1.6,0.1-2.1c0.6-0.6,1.6-0.6,2.1,0.1c1.9,2,3.8,4.4,5.6,7.2c4.8,7.2,8.4,15.2,10.6,23.6c0.2,0.8-0.3,1.6-1.1,1.8
			C156.9,100.6,156.8,100.6,156.7,100.6z"/>
	</g>
	<g>
		<path class="st7" d="M139.2,148c-4.2,0-8.3-1.3-11.5-3.7c-0.7-0.5-0.8-1.5-0.3-2.1c0.5-0.7,1.5-0.8,2.1-0.3
			c4.5,3.5,11.6,4,17.3,1.4c5.8-2.7,10.6-8.4,13.6-15.9c0.3-0.8,1.2-1.2,2-0.9c0.8,0.3,1.2,1.2,0.9,2c-3.3,8.3-8.6,14.5-15.1,17.5
			C145.3,147.3,142.2,148,139.2,148z"/>
	</g>
	<g>
		<path class="st7" d="M104.8,151.9c-0.8,0-1.5-0.7-1.5-1.5c0-0.8,0.7-1.5,1.5-1.5c8.4-0.1,17.7-1,22.5-7.2c5-6.5,3.2-16.2,1.3-22.9
			c-3-10.8-7-21.4-12.1-31.4c-1.8-3.6-4.1-7.8-7.5-10.4c-1.1-0.8-2.3-1.5-3.6-2c-0.8-0.3-1.2-1.2-0.9-2c0.3-0.8,1.2-1.2,2-0.9
			c1.6,0.6,3.1,1.4,4.4,2.5c3.9,3,6.4,7.5,8.4,11.4c5.1,10.2,9.3,21,12.3,32c2,7.4,4,18-1.8,25.6C124.1,150.7,114,151.8,104.8,151.9
			C104.8,151.9,104.8,151.9,104.8,151.9z"/>
	</g>
	<g>
		<path class="st7" d="M92.6,158.3c-2.8,0-5.5-0.6-7.9-1.8c-6.8-3.3-12-10.6-14.8-20.4c-0.2-0.8,0.2-1.6,1-1.9
			c0.8-0.2,1.6,0.2,1.9,1c1.5,5.2,5.1,14.5,13.2,18.5c3.7,1.8,8.5,2,12.4,0.4c3.1-1.2,5.4-3.4,6.4-6.2c1.1-2.9,0.8-6.1,0.4-9.2
			c-1.9-14.7-7.8-28.6-16.9-40.2c-1.7-2.1-4-4.8-6.7-6.1c-0.8-0.4-1.1-1.3-0.7-2c0.4-0.8,1.3-1.1,2-0.7c3.3,1.6,5.9,4.6,7.8,7
			c9.5,12,15.5,26.5,17.5,41.6c0.5,3.5,0.7,7.2-0.6,10.7c-1.3,3.6-4.2,6.4-8.1,7.9C97.4,157.9,95,158.3,92.6,158.3z"/>
	</g>
	<g>
		<path class="st7" d="M172,139.9C171.9,139.9,171.9,139.9,172,139.9c-5.1-0.3-9.8-2.6-13.2-6.3c-0.6-0.6-0.5-1.6,0.1-2.1
			c0.6-0.6,1.6-0.5,2.1,0.1c2.8,3.1,6.8,5,11,5.3c0.8,0,1.5,0.8,1.4,1.6C173.4,139.3,172.8,139.9,172,139.9z"/>
	</g>
	<g>
		<path class="st0" d="M580.8,819.8c-6.3,0-12.5-0.5-18.7-1.9c-14.4-3.3-27.1-10.8-39.4-18.2l2.3-3.9c12,7.2,24.3,14.6,38,17.7
			c14.6,3.3,30.1,1.5,44.8-0.6l0.6,4.5C599.5,818.6,590.1,819.8,580.8,819.8z"/>
	</g>
	<g>
		<path class="st0" d="M156.3,287.5l-0.7-4.5c17.4-2.9,34.4-9.4,49.2-18.9l2.4,3.8C191.9,277.8,174.2,284.6,156.3,287.5z"/>
	</g>
	<g>
		<g>
			<rect x="205.2" y="1244.6" class="st0" width="225.7" height="4.5"/>
		</g>
		<g>
			<rect x="541.7" y="1244.9" class="st0" width="1295.4" height="4.5"/>
		</g>
		<g>
			<rect x="430.9" y="1244.7" class="st0" width="110.8" height="4.5"/>
		</g>
	</g>
	<g>
		<g>
			<path class="st4" d="M542.9,1287.4c-1.3,5.6-2.7,11.3-4.2,17l-0.2,0.7l-97.2,0.1c-3.4-5.2-6.4-11.3-9.2-17.9
				c-5.7-13.5-10.2-29.5-13.7-45.7c-1-4.4-1.9-8.8-2.7-13.2c-2.9-15-5-29.6-6.5-42c-0.7-6.2-1.4-11.8-1.8-16.7
				c-1.2-12-1.6-19.6-1.6-19.6l12.2-0.3l140.9-4C558.9,1145.6,560.9,1210.2,542.9,1287.4z"/>
		</g>
		<g>
			<path class="st4" d="M415.7,1228.4c0.8,4.4,1.7,8.8,2.7,13.2c-17.6,4.7-38-0.8-49.6-14.9c-11.9-14.3-13-37-1.5-51.6
				c5.1-6.5,12.8-11.3,21-11.6c6.8-0.2,13.2,2.5,19.1,6.2c0.5,4.9,1.1,10.6,1.8,16.7c-6.9-6.6-18.5-7.6-26.4-2.2
				c-7.6,5.3-10.9,15.6-8.7,24.5c2.2,8.9,9.5,16.3,18.1,19.4C399.7,1230.8,408,1230.7,415.7,1228.4z"/>
		</g>
	</g>
	<g>
		<g>
			
				<rect x="441.3" y="1302.8" transform="matrix(1 -1.635718e-03 1.635718e-03 1 -2.1341 0.8031)" class="st0" width="97.2" height="4.5"/>
		</g>
	</g>
	<g>
		<path class="st0" d="M1476.4,1267.6c-10.5-30.8-15.7-63.3-15.4-95.8l0-0.3l43.2-0.8l33.4-0.6l45.3-0.8l0,1.1
			c1.4,40.3-5.9,80.9-21.2,118.2l-76.9,0.9C1481.8,1282.3,1478.9,1275,1476.4,1267.6z"/>
	</g>
	<g>
		<path class="st1" d="M1532.1,1036.4c1.4,44.2,5.4,97.6,5.6,133.4l0,0.3l-33.4,0.6l0-0.2c-0.8-8.2-1.5-16.5-2.3-24.7
			c-0.6-6.3-1.3-12.9-5.2-17.8c-4.5-6-14.7-10.8-24-16.7c-4.6-2.9-9.1-6.2-11.6-11c-2.5-4.8-2.4-11.3,1.6-15c2.6-2.4,6.5-3.2,10-2.5
			c3.5,0.7,6.7,2.6,9.3,5c2.5,2.3,4.7,5,7.5,6.9c2.3,1.6,6.3,3.4,8.2,0.3c0.7-1.1,0.8-2.4,0.9-3.7c0-0.5,0-1.1,0-1.6
			c0.1-5.1-1-10.5-1.4-15.6c-0.5-5.8-0.9-11.5-1.1-17.3c-0.6-11.6-0.7-23.2,0.2-34.8c0.5-6.6,1.6-13.9,6.8-17.9
			c7.1-5.5,18.3-1.3,23.2,6.2C1531.3,1017.9,1531.8,1027.4,1532.1,1036.4z"/>
	</g>
</g>
</svg>
