<?xml version="1.0" encoding="utf-8"?>
<!-- Generator: Adobe Illustrator 25.3.1, SVG Export Plug-In . SVG Version: 6.00 Build 0)  -->
<svg version="1.1" id="Layer_1" xmlns="http://www.w3.org/2000/svg" xmlns:xlink="http://www.w3.org/1999/xlink" x="0px" y="0px"
	 viewBox="0 0 1113.6 1149.7" style="enable-background:new 0 0 1113.6 1149.7;" xml:space="preserve">
<style type="text/css">
	.st0{fill:#FF5722;}
</style>
<path class="st0" d="M1031.5,816.7c-24.2,49.2-55.6,94.1-92.9,133.4c-19.3,20.2-40.1,38.9-62.2,56
	c-90.7,69.9-203.9,111.8-327.1,112.4h-3c-39.3,0-77.8-4.2-114.7-12.3c-55.6-11.9-108-32.5-155.8-60.1
	c-62.1-35.9-116.3-83.7-159.6-140.5C46.7,814.8,5.4,701,5.4,577.6C5.4,279,247.5,36.8,546.3,36.8h1.9C622,37,692.5,52.1,756.6,79.2
	c52,22,99.8,51.8,142,88.1L816,333.4c-37.8-41.7-85.1-74.6-138.5-95.1c-40.7-15.9-85-24.5-131.2-24.5c-31.7,0-62.6,4.1-91.9,11.8
	c-156.4,40.7-272,182.8-272,352c0,49.4,9.9,96.5,27.7,139.3c29.3,70.8,80.4,130.4,144.9,170.2c47,29.2,101.3,47.9,159.3,52.8
	c10.5,1,21.2,1.5,32,1.5c33.9,0,66.6-4.7,97.7-13.4c69.4-19.2,130.5-58.5,176.5-111.4L1031.5,816.7L1031.5,816.7z"/>
<path class="st0" d="M1087.2,577.6c0,20.7-1.1,41.2-3.4,61.3c-1,9.1-2.3,18.2-3.8,27.3c-3.5,21.1-8.2,41.7-14,62H619.6l30.8-62
	l13.5-27.3l30.5-61.3H1087.2z"/>
<image style="overflow:visible;enable-background:new    ;" width="400" height="400" xlink:href="../../../../../Color Hunt Palette 30384100adb5eeeeeeff5722.png"  transform="matrix(1 0 0 1 -1000.6368 -224.3872)">
</image>
</svg>
