<?xml version="1.0" encoding="utf-8"?>
<!-- Generator: Adobe Illustrator 25.3.1, SVG Export Plug-In . SVG Version: 6.00 Build 0)  -->
<svg version="1.1" id="Layer_1" xmlns="http://www.w3.org/2000/svg" xmlns:xlink="http://www.w3.org/1999/xlink" x="0px" y="0px"
	 viewBox="0 0 800 800" style="enable-background:new 0 0 800 800;" xml:space="preserve">
<style type="text/css">
	.st0{fill:#303841;}
</style>
<g>
	<path class="st0" d="M598.5,148h-397c-13.9,0-25.2,11.3-25.2,25.2v453.7c0,13.9,11.3,25.2,25.2,25.2h397
		c13.9,0,25.2-11.3,25.2-25.2V173.2C623.7,159.3,612.4,148,598.5,148z M194.1,173.2c0-4.1,3.3-7.4,7.4-7.4h397
		c4.1,0,7.4,3.3,7.4,7.4v453.7c0,4.1-3.3,7.4-7.4,7.4h-397c-4.1,0-7.4-3.3-7.4-7.4L194.1,173.2L194.1,173.2z"/>
	<path class="st0" d="M243.6,602.7H256c13.9,0,25.2-11.3,25.2-25.2V451.6c0-13.9-11.3-25.2-25.2-25.2h-12.3
		c-13.9,0-25.2,11.3-25.2,25.2v125.9C218.5,591.4,229.8,602.7,243.6,602.7z M236.3,577.5V451.6c0-4.1,3.3-7.4,7.4-7.4H256
		c4.1,0,7.4,3.3,7.4,7.4v125.9c0,4.1-3.3,7.4-7.4,7.4h-12.3C239.6,584.9,236.3,581.6,236.3,577.5z"/>
	<path class="st0" d="M356.1,366.1h-12.3c-13.9,0-25.2,11.3-25.2,25.2v186.3c0,13.9,11.3,25.2,25.2,25.2h12.3
		c13.9,0,25.2-11.3,25.2-25.2V391.2C381.3,377.4,370,366.1,356.1,366.1z M363.5,391.2v186.3c0,4.1-3.3,7.4-7.4,7.4h-12.3
		c-4.1,0-7.4-3.3-7.4-7.4V391.2c0-4.1,3.3-7.4,7.4-7.4h12.3C360.2,383.9,363.5,387.2,363.5,391.2z"/>
	<path class="st0" d="M456.2,392.4h-12.3c-13.9,0-25.2,11.3-25.2,25.2v159.9c0,13.9,11.3,25.2,25.2,25.2h12.3
		c13.9,0,25.2-11.3,25.2-25.2V417.6C481.4,403.7,470.1,392.4,456.2,392.4z M463.6,417.6v159.9c0,4.1-3.3,7.4-7.4,7.4h-12.3
		c-4.1,0-7.4-3.3-7.4-7.4V417.6c0-4.1,3.3-7.4,7.4-7.4h12.3C460.3,410.2,463.6,413.5,463.6,417.6z"/>
	<path class="st0" d="M556.4,307.2H544c-13.9,0-25.2,11.3-25.2,25.2v245.1c0,13.9,11.3,25.2,25.2,25.2h12.3
		c13.9,0,25.2-11.3,25.2-25.2V332.4C581.5,318.5,570.2,307.2,556.4,307.2z M563.7,332.4v245.1c0,4.1-3.3,7.4-7.4,7.4H544
		c-4.1,0-7.4-3.3-7.4-7.4V332.4c0-4.1,3.3-7.4,7.4-7.4h12.3C560.4,325,563.7,328.3,563.7,332.4z"/>
	<path class="st0" d="M249.8,407.2c16.1,0,29.2-13.1,29.2-29.2c0-3.2-0.5-6.2-1.4-9.1l56.1-38.2c4.6,3.1,10.2,4.9,16.2,4.9
		c7.1,0,13.5-2.5,18.6-6.7l52.6,28.2c-0.2,1.5-0.4,3-0.4,4.6c0,16.1,13.1,29.2,29.2,29.2s29.2-13.1,29.2-29.2c0-6.7-2.3-12.9-6-17.8
		l68.9-102.5c2.9,0.9,5.9,1.5,9.1,1.5c16.1,0,29.2-13.1,29.2-29.2c0-16.1-13.1-29.2-29.2-29.2s-29.2,13.1-29.2,29.2
		c0,6.5,2.1,12.4,5.7,17.3l-69.1,102.8c-2.7-0.8-5.6-1.3-8.6-1.3c-8.2,0-15.5,3.4-20.9,8.8l-51-27.3c0.6-2.4,1-4.9,1-7.5
		c0-16.1-13.1-29.2-29.2-29.2c-16.1,0-29.2,13.1-29.2,29.2c0,3.6,0.7,7.1,1.9,10.3l-55.4,37.8c-4.9-3.6-10.9-5.7-17.4-5.7
		c-16.1,0-29.2,13.1-29.2,29.2C220.6,394,233.7,407.2,249.8,407.2z M261.2,377.9c0,6.3-5.1,11.4-11.4,11.4
		c-6.3,0-11.4-5.1-11.4-11.4s5.1-11.4,11.4-11.4C256.1,366.5,261.2,371.6,261.2,377.9z M359.8,312.1c-0.3,0.4-0.6,0.8-0.8,1.2
		c-2.1,2.7-5.4,4.4-9,4.4c-6.3,0-11.4-5.1-11.4-11.4s5.1-11.4,11.4-11.4s11.4,5.1,11.4,11.4C361.4,308.5,360.8,310.4,359.8,312.1z
		 M456.5,352.2c0.1,0.1,0.2,0.2,0.3,0.2l0,0c2.9,2.1,4.7,5.4,4.7,9.2c0,6.3-5.1,11.4-11.4,11.4s-11.4-5.1-11.4-11.4
		s5.1-11.4,11.4-11.4C452.4,350.2,454.6,350.9,456.5,352.2z M539.9,213.6c0-6.3,5.1-11.4,11.4-11.4s11.4,5.1,11.4,11.4
		s-5.1,11.4-11.4,11.4c-2.3,0-4.4-0.7-6.2-1.9c-0.3-0.2-0.6-0.5-0.9-0.7c-0.1-0.1-0.2-0.1-0.2-0.1
		C541.5,220.2,539.9,217.1,539.9,213.6z"/>
</g>
</svg>
