<?xml version="1.0" standalone="no"?>
<!DOCTYPE svg PUBLIC "-//W3C//DTD SVG 20010904//EN"
 "http://www.w3.org/TR/2001/REC-SVG-20010904/DTD/svg10.dtd">
<svg version="1.0" xmlns="http://www.w3.org/2000/svg"
 width="750.000000pt" height="519.000000pt" viewBox="0 0 750.000000 519.000000"
 preserveAspectRatio="xMidYMid meet">
<metadata>
Created by potrace 1.10, written by Peter Selinger 2001-2011
</metadata>
<g transform="translate(0.000000,519.000000) scale(0.100000,-0.100000)"
fill="#ffffff" stroke="none">
<path d="M4098 5168 c-3 -18 -10 -22 -57 -24 -29 -1 -58 -7 -64 -13 -6 -6 -18
-11 -26 -11 -19 0 -75 -51 -116 -105 -53 -70 -65 -107 -65 -206 0 -84 3 -96
36 -162 20 -40 42 -80 51 -89 16 -18 106 -43 122 -34 6 4 -5 36 -26 79 -20 39
-42 85 -50 100 -19 42 -17 158 5 199 44 85 157 158 243 158 34 0 98 -22 155
-52 43 -23 110 -102 124 -144 6 -19 15 -34 19 -34 5 0 12 -23 15 -52 10 -74
18 -80 32 -23 l12 50 1 -45 c0 -25 -6 -58 -14 -74 -8 -15 -15 -40 -15 -54 0
-32 -17 -127 -36 -204 -8 -32 -14 -72 -14 -90 -1 -18 -7 -44 -15 -58 -8 -14
-15 -38 -15 -55 0 -16 -7 -39 -15 -49 -8 -11 -15 -30 -15 -42 0 -12 -7 -27
-15 -34 -8 -7 -15 -20 -15 -30 0 -10 -7 -23 -15 -30 -8 -7 -15 -17 -15 -23 0
-6 -18 -32 -40 -58 -22 -26 -40 -52 -40 -58 0 -7 24 -11 59 -11 l59 0 39 53
c22 29 43 62 47 75 4 12 12 22 17 22 5 0 9 11 9 24 0 13 7 29 15 36 8 7 15 22
15 34 1 11 7 32 15 46 8 14 14 38 15 55 0 16 6 47 14 70 27 77 40 181 43 345
4 175 6 167 -50 290 -26 57 -128 160 -188 188 -25 12 -64 22 -87 22 -35 0 -42
3 -42 20 0 18 -7 20 -54 20 -48 0 -55 -3 -58 -22z m96 -39 c-7 -12 -61 -12
-69 0 -3 5 7 11 22 13 35 4 55 -1 47 -13z"/>
<path d="M3380 4523 c-54 -6 -161 -56 -215 -99 -39 -31 -96 -103 -128 -163
-29 -54 -30 -271 -2 -327 47 -93 114 -160 203 -206 48 -24 242 -27 262 -3 7 8
23 15 35 15 12 0 28 7 35 15 7 8 18 15 24 15 31 0 84 101 75 143 -3 14 -7 15
-26 4 -85 -47 -106 -57 -121 -57 -10 0 -29 -8 -42 -17 -17 -12 -44 -17 -90
-17 -100 0 -174 44 -236 139 -15 25 -19 48 -19 130 0 93 2 103 29 145 58 89
141 150 229 165 46 9 48 21 5 34 -68 19 55 12 153 -10 52 -11 126 -24 164 -28
39 -4 80 -13 92 -19 12 -7 39 -12 60 -12 21 0 47 -7 57 -15 11 -8 31 -15 45
-15 14 0 35 -7 45 -15 11 -8 30 -15 42 -15 12 0 27 -7 34 -15 7 -8 20 -15 30
-15 10 0 23 -7 30 -15 7 -8 18 -15 25 -15 6 0 29 -16 49 -36 52 -50 68 -41 60
33 -5 42 -13 62 -28 73 -45 33 -128 80 -140 80 -8 0 -19 7 -26 15 -7 8 -22 15
-34 15 -11 0 -30 7 -40 15 -11 8 -37 15 -57 15 -21 0 -40 4 -44 9 -3 6 -27 13
-53 16 -26 4 -69 13 -97 20 -51 14 -320 27 -385 18z"/>
<path d="M4785 4406 c-68 -15 -160 -61 -178 -89 -17 -26 -32 -102 -23 -116 4
-6 25 3 50 20 24 16 48 29 52 29 5 0 36 11 69 25 97 40 159 31 248 -33 119
-86 140 -256 47 -385 -35 -49 -121 -117 -148 -117 -9 0 -28 -7 -41 -17 -30
-20 -195 -22 -286 -3 -33 7 -87 16 -120 19 -33 4 -70 12 -82 19 -12 7 -37 12
-55 12 -18 0 -42 7 -52 15 -11 8 -28 15 -37 15 -10 0 -30 7 -46 14 -15 8 -35
18 -43 21 -8 3 -28 14 -45 25 -16 11 -37 23 -45 26 -8 4 -23 14 -32 23 -61 57
-69 55 -65 -15 3 -45 9 -61 32 -86 16 -16 38 -34 49 -39 12 -5 41 -21 65 -34
24 -14 52 -25 61 -25 10 0 23 -6 29 -14 6 -8 24 -16 39 -19 66 -14 149 -36
175 -46 16 -6 48 -11 72 -11 24 0 70 -7 102 -15 75 -20 258 -20 293 0 14 8 34
14 46 15 11 0 41 11 65 25 24 14 51 28 59 32 14 6 102 95 125 125 51 68 71
200 50 333 -19 119 -145 244 -273 271 -77 16 -88 16 -157 0z"/>
<path d="M3865 4184 c-29 -35 -79 -114 -91 -144 -3 -8 -11 -28 -19 -45 -7 -16
-16 -41 -19 -55 -9 -45 -27 -115 -38 -145 -6 -16 -14 -61 -18 -100 -5 -38 -13
-86 -19 -105 -17 -55 -14 -234 6 -294 42 -129 118 -239 194 -281 99 -54 101
-55 223 -55 111 0 121 2 179 31 75 37 117 76 163 152 35 56 36 59 36 167 0
109 0 112 -38 187 -22 43 -47 79 -59 83 -42 15 -92 30 -103 30 -20 0 -13 -27
18 -73 17 -25 30 -53 30 -64 0 -10 8 -30 18 -43 13 -19 17 -45 17 -105 0 -74
-2 -84 -34 -131 -19 -29 -56 -66 -85 -85 -48 -31 -56 -33 -136 -33 -68 1 -93
5 -126 22 -53 29 -123 89 -135 116 -5 12 -13 28 -19 36 -38 60 -45 96 -44 225
1 94 6 142 18 174 9 24 16 61 16 83 0 21 7 55 15 75 8 19 15 45 15 57 0 12 7
31 15 42 8 10 15 31 15 45 0 15 7 32 15 39 8 7 15 19 15 27 0 27 88 161 112
171 5 2 8 10 8 18 0 10 -15 14 -58 14 -53 0 -59 -2 -87 -36z"/>
<path d="M2533 2750 c-12 -5 -24 -18 -28 -29 -5 -17 -24 -35 -106 -104 -8 -7
-52 -41 -97 -75 -45 -35 -94 -74 -109 -88 -14 -13 -43 -34 -62 -46 -20 -12
-39 -26 -42 -31 -6 -8 -26 -20 -111 -64 -49 -24 -60 -47 -36 -71 16 -16 53
-15 70 1 20 18 76 57 83 57 15 0 241 178 332 262 28 26 57 48 63 48 16 0 23
-27 11 -42 -27 -32 -81 -107 -81 -113 0 -4 -13 -24 -30 -45 -16 -21 -30 -41
-30 -45 0 -4 -12 -24 -27 -44 -16 -20 -32 -44 -38 -53 -5 -9 -37 -56 -70 -103
-33 -48 -64 -94 -70 -103 -5 -9 -21 -29 -34 -44 -13 -15 -29 -36 -35 -46 -31
-55 -100 -152 -107 -152 -5 0 -9 -5 -9 -10 0 -14 -102 -150 -112 -150 -5 0 -8
-6 -8 -13 0 -6 -20 -35 -46 -62 -25 -28 -57 -65 -71 -82 -22 -29 -157 -129
-217 -160 -12 -7 -34 -23 -48 -35 -32 -29 -59 -47 -80 -54 -9 -3 -19 -12 -22
-20 -3 -8 -13 -14 -22 -14 -9 0 -33 -13 -54 -30 -21 -16 -40 -30 -43 -30 -3 0
-34 -19 -69 -43 -35 -24 -70 -46 -78 -50 -8 -4 -28 -16 -45 -27 -16 -11 -37
-23 -45 -27 -8 -3 -31 -18 -50 -33 -19 -15 -39 -29 -45 -31 -5 -2 -43 -26 -83
-54 -41 -27 -81 -54 -90 -60 -9 -5 -33 -22 -53 -37 -20 -16 -41 -28 -46 -28
-5 0 -23 -13 -39 -30 -16 -16 -33 -30 -37 -30 -13 0 -163 -116 -271 -209 -161
-139 -276 -284 -276 -349 0 -11 -5 -24 -10 -27 -13 -8 -13 -65 0 -65 6 0 10
-6 10 -14 0 -26 49 -48 91 -42 21 3 58 9 82 12 23 4 51 13 62 20 11 8 26 14
33 14 8 0 31 13 52 30 21 16 41 30 44 30 4 0 52 35 108 78 55 42 110 84 122
92 21 15 66 53 91 77 7 6 34 31 61 54 190 163 826 795 988 982 32 37 62 67 67
67 4 0 36 19 71 43 88 58 100 66 123 77 11 6 34 19 50 30 17 11 37 23 45 27 8
3 33 18 55 32 60 38 78 49 95 57 8 4 33 19 55 33 56 36 77 49 100 61 11 6 34
19 50 30 17 11 39 24 50 30 11 6 34 19 50 30 17 11 39 24 50 30 11 6 34 19 50
30 17 11 39 24 50 30 11 6 34 19 50 30 17 11 39 24 50 30 11 6 34 19 50 30 17
11 38 23 48 26 9 4 17 10 17 15 0 7 11 15 78 50 32 18 53 -3 29 -29 -11 -12
-17 -36 -17 -68 0 -43 4 -54 33 -82 30 -29 39 -32 92 -32 37 1 68 6 79 15 11
8 31 15 45 15 14 0 35 7 45 15 11 8 28 15 39 15 10 0 25 7 33 15 9 8 24 15 33
15 10 0 24 7 31 15 7 8 21 15 31 15 10 0 21 5 24 11 4 5 17 15 28 20 12 5 36
18 52 29 17 11 38 23 47 26 9 3 19 12 22 20 3 8 11 14 18 14 8 0 28 14 46 30
18 17 37 30 42 30 5 0 8 -33 7 -74 -2 -70 0 -76 27 -105 28 -30 33 -31 112
-31 53 0 92 5 110 15 16 8 39 15 50 15 12 0 27 7 34 15 7 8 20 15 29 15 9 0
50 18 91 40 116 62 134 69 144 60 5 -5 1 -20 -9 -37 -13 -19 -19 -48 -19 -94
-1 -62 1 -69 29 -95 l30 -29 146 1 c112 1 152 5 177 18 17 9 44 16 59 16 15 0
37 7 47 15 11 8 31 15 45 15 14 0 35 7 45 15 11 8 28 15 37 15 10 0 30 6 46
14 15 8 45 22 65 30 21 9 55 24 75 33 21 9 50 22 65 30 14 7 33 13 41 13 8 0
20 7 27 15 7 8 20 15 30 15 10 0 23 7 30 15 7 8 20 15 30 15 10 0 23 7 30 15
7 8 21 15 31 15 11 0 19 4 19 9 0 5 12 14 28 20 15 6 41 20 57 31 17 11 40 24
52 29 11 5 24 15 28 20 3 6 12 11 20 11 8 0 49 25 92 55 43 30 87 59 98 64 11
5 40 28 65 50 74 67 96 51 66 -48 -14 -46 -30 -104 -45 -171 -21 -91 -98 -236
-155 -292 -26 -26 -54 -48 -61 -48 -7 0 -18 -7 -25 -15 -8 -10 -31 -15 -67
-15 -62 0 -109 23 -183 90 -37 34 -50 40 -80 38 -29 -3 -35 -7 -38 -28 -2 -21
6 -33 45 -60 53 -39 81 -56 103 -65 8 -4 29 -13 46 -22 50 -24 164 -20 221 8
55 27 151 120 165 161 6 15 14 28 19 28 5 0 9 7 9 16 0 9 6 28 14 42 26 51 46
103 46 120 0 9 7 30 15 46 8 15 15 39 15 52 0 14 7 41 15 61 8 19 15 53 15 75
0 21 6 53 14 71 7 18 16 58 20 90 10 81 -9 86 -78 18 -28 -28 -55 -51 -58 -51
-4 0 -36 -20 -72 -45 -37 -25 -69 -45 -72 -45 -3 0 -23 -13 -43 -28 -20 -16
-43 -32 -51 -35 -8 -4 -28 -16 -45 -27 -16 -10 -50 -29 -75 -42 -25 -13 -49
-29 -53 -35 -4 -7 -16 -13 -26 -13 -10 0 -24 -7 -31 -15 -7 -8 -21 -15 -31
-15 -10 0 -20 -4 -23 -9 -8 -12 -204 -111 -221 -111 -7 0 -18 -7 -25 -15 -7
-8 -23 -15 -36 -15 -13 0 -24 -4 -24 -10 0 -5 -12 -13 -27 -16 -16 -4 -37 -13
-48 -20 -11 -8 -29 -14 -40 -14 -11 0 -29 -7 -39 -15 -11 -8 -29 -15 -40 -15
-12 0 -30 -7 -40 -15 -11 -8 -31 -15 -45 -15 -14 0 -35 -7 -45 -15 -11 -8 -31
-15 -45 -15 -14 0 -44 -7 -66 -15 -58 -20 -179 -19 -216 2 -37 22 -44 45 -25
85 9 17 16 39 16 50 0 25 184 210 245 244 137 79 231 111 254 89 20 -19 4 -37
-82 -92 -49 -31 -67 -48 -63 -59 3 -9 6 -20 6 -25 0 -15 57 -10 70 6 7 8 16
15 21 15 9 0 46 30 93 76 24 23 56 79 56 99 0 7 -14 25 -31 39 -24 21 -41 26
-82 26 -29 -1 -63 -7 -77 -15 -14 -8 -34 -14 -44 -15 -30 0 -170 -72 -236
-121 -19 -14 -42 -29 -50 -32 -8 -4 -28 -16 -45 -27 -16 -11 -39 -24 -50 -30
-11 -6 -33 -19 -50 -30 -16 -11 -37 -22 -45 -26 -8 -3 -22 -10 -30 -15 -8 -5
-19 -11 -25 -13 -5 -2 -17 -7 -25 -10 -8 -4 -35 -17 -59 -31 -24 -14 -50 -25
-56 -25 -7 0 -18 -7 -25 -15 -7 -8 -23 -15 -35 -15 -12 0 -28 -7 -35 -15 -7
-8 -23 -15 -36 -15 -13 0 -39 -7 -58 -16 -33 -16 -36 -16 -70 5 -32 20 -36 27
-36 66 0 26 6 47 15 55 8 7 15 20 15 30 0 16 61 85 108 122 26 21 28 41 6 62
-25 26 -40 21 -104 -37 -38 -34 -162 -121 -190 -134 -8 -3 -31 -18 -50 -33
-19 -15 -42 -30 -50 -33 -8 -4 -28 -16 -45 -27 -16 -10 -54 -31 -82 -45 -29
-15 -55 -30 -58 -36 -4 -5 -14 -9 -24 -9 -10 0 -24 -7 -31 -15 -7 -8 -23 -15
-35 -15 -12 0 -28 -6 -34 -14 -11 -13 -73 -28 -120 -28 -39 0 -54 24 -47 74 8
51 81 144 161 204 28 21 52 41 55 45 3 4 17 13 30 19 14 5 45 22 70 37 40 23
55 27 136 27 88 0 93 -2 132 -32 50 -40 82 -42 82 -7 0 43 -51 81 -148 110
-56 16 -69 17 -110 6 -26 -8 -63 -17 -82 -20 -31 -7 -53 -16 -100 -43 -8 -4
-22 -11 -30 -15 -8 -3 -41 -26 -72 -50 -31 -24 -59 -43 -62 -43 -3 0 -35 -20
-72 -45 -36 -25 -70 -45 -75 -45 -5 0 -28 -13 -51 -30 -22 -16 -47 -30 -53
-30 -7 0 -15 -7 -19 -15 -3 -8 -12 -15 -21 -15 -8 0 -34 -13 -57 -30 -22 -16
-47 -30 -53 -30 -7 0 -15 -7 -19 -15 -3 -8 -12 -15 -21 -15 -8 0 -34 -13 -57
-30 -22 -17 -47 -30 -55 -30 -7 0 -13 -4 -13 -9 0 -5 -10 -13 -22 -17 -12 -3
-39 -19 -61 -35 -22 -16 -46 -29 -54 -29 -7 0 -13 -4 -13 -9 0 -5 -12 -14 -27
-20 -16 -6 -41 -20 -58 -31 -16 -11 -39 -24 -50 -30 -27 -14 -48 -28 -120 -75
-77 -51 -95 -62 -122 -74 -13 -6 -23 -14 -23 -18 0 -9 -57 -43 -71 -43 -26 0
7 66 60 118 10 9 28 34 40 55 12 20 27 37 32 37 5 0 9 7 9 15 0 7 6 18 13 22
6 4 17 16 22 25 6 9 37 56 70 103 33 47 66 97 73 111 7 13 17 24 21 24 5 0 11
8 15 18 3 9 11 26 18 36 7 11 32 49 56 84 23 35 42 67 42 72 0 5 6 15 13 22 6
8 20 29 31 48 38 70 58 106 77 135 10 17 24 42 30 58 6 15 15 27 20 27 20 0 7
37 -27 73 -19 20 -36 37 -37 36 -1 0 -12 -4 -24 -9z m-1073 -1559 c0 -11 -15
-31 -32 -46 -18 -15 -130 -122 -248 -238 -118 -117 -244 -239 -280 -271 -36
-33 -90 -82 -120 -110 -30 -29 -83 -73 -118 -100 -34 -26 -77 -61 -94 -77 -18
-16 -37 -29 -44 -29 -6 0 -24 -13 -40 -30 -16 -16 -33 -30 -37 -30 -5 0 -35
-20 -67 -45 -32 -25 -61 -45 -64 -45 -4 0 -25 -13 -48 -30 -22 -16 -46 -30
-51 -30 -6 0 -18 -7 -28 -15 -9 -9 -36 -17 -60 -18 -42 -2 -44 -1 -47 29 -2
19 3 36 12 44 9 7 16 17 16 22 0 22 206 227 300 298 25 18 50 39 55 45 17 19
334 255 343 255 5 0 22 13 38 30 16 16 33 30 38 30 4 0 25 12 45 28 20 15 44
32 53 37 62 37 375 252 413 283 16 13 49 31 58 32 4 0 7 -9 7 -19z"/>
<path d="M2824 1656 c-7 -18 0 -100 11 -133 6 -18 3 -23 -19 -29 -14 -3 -26
-10 -26 -16 0 -16 22 -52 36 -61 19 -11 17 -24 -7 -48 -24 -24 -22 -62 5 -67
29 -6 36 16 37 123 0 55 1 131 2 170 2 59 -1 70 -16 73 -9 2 -20 -3 -23 -12z"/>
<path d="M3194 1605 c-4 -9 -2 -21 4 -27 15 -15 44 -1 40 19 -4 23 -36 29 -44
8z"/>
<path d="M4602 1597 c-12 -13 -22 -29 -22 -35 0 -16 22 -15 39 1 11 10 14 10
18 0 3 -8 23 -13 49 -13 36 0 44 3 44 18 0 27 -9 32 -36 20 -20 -10 -28 -8
-47 10 l-23 22 -22 -23z"/>
<path d="M3592 1508 c-45 -33 -49 -54 -16 -89 16 -16 34 -27 41 -25 21 9 63
-37 56 -62 -8 -31 -69 -32 -78 -1 -4 12 -14 19 -23 17 -24 -5 -27 -37 -5 -45
10 -4 24 -13 31 -20 22 -21 57 -15 93 16 30 26 32 33 24 57 -6 16 -24 35 -40
44 -17 8 -31 18 -33 23 -2 4 -9 7 -16 7 -23 0 -36 22 -25 42 12 22 37 24 45 3
7 -16 39 -20 48 -6 6 9 -48 61 -62 61 -4 0 -22 -10 -40 -22z"/>
<path d="M5170 1523 c-8 -3 -19 -10 -25 -15 -5 -4 -22 -17 -37 -29 -16 -11
-28 -28 -28 -38 0 -9 -5 -22 -11 -28 -9 -9 -6 -23 10 -57 11 -25 25 -46 30
-46 4 0 18 -9 31 -20 36 -31 72 -25 124 21 42 38 46 45 46 88 -1 50 -26 84
-85 115 -32 17 -33 17 -55 9z m73 -64 c34 -40 35 -84 2 -122 -37 -42 -80 -35
-116 18 -25 37 -26 42 -13 68 39 74 83 86 127 36z"/>
<path d="M5652 1504 c-18 -15 -32 -35 -32 -44 0 -25 33 -63 56 -65 26 -1 64
-35 64 -56 0 -29 -66 -41 -76 -14 -7 16 -39 21 -48 6 -3 -5 9 -21 27 -35 26
-22 38 -26 66 -21 33 6 81 47 81 70 0 17 -54 65 -73 65 -9 0 -17 5 -17 10 0 6
-6 10 -14 10 -20 0 -29 16 -21 40 8 26 37 26 53 -1 11 -17 16 -18 28 -8 13 10
11 16 -12 41 -34 35 -42 35 -82 2z"/>
<path d="M2665 1486 c-30 -27 -38 -44 -42 -79 -5 -43 -3 -47 41 -91 46 -46 71
-55 107 -35 27 14 15 29 -23 29 -72 0 -107 104 -52 155 16 15 39 25 55 25 19
0 29 5 29 15 0 11 -11 15 -39 15 -30 0 -47 -8 -76 -34z"/>
<path d="M4090 1505 c-7 -8 -18 -15 -26 -15 -7 0 -23 -21 -34 -47 -20 -44 -20
-50 -6 -75 9 -14 16 -33 16 -42 0 -9 4 -16 9 -16 5 0 17 -7 26 -16 9 -9 35
-19 58 -21 37 -4 46 -1 71 26 25 26 27 31 12 37 -10 4 -24 0 -35 -10 -22 -20
-60 -21 -89 0 -19 13 -22 24 -21 67 2 58 28 97 65 97 28 0 58 -35 59 -68 0
-22 5 -27 25 -27 29 0 41 33 16 47 -9 5 -16 17 -16 26 0 39 -104 68 -130 37z"/>
<path d="M4640 1505 c0 -8 9 -15 20 -15 12 0 32 -12 46 -27 22 -25 24 -34 19
-80 -7 -60 0 -93 20 -93 18 0 25 23 25 87 0 59 -22 109 -52 119 -10 3 -18 10
-18 15 0 5 -13 9 -30 9 -20 0 -30 -5 -30 -15z"/>
<path d="M3197 1494 c-13 -14 -8 -179 7 -199 13 -18 14 -18 25 3 7 14 11 56 9
109 -2 70 -6 88 -18 91 -9 1 -19 0 -23 -4z"/>
<path d="M4575 1488 c-3 -7 -6 -51 -7 -98 -3 -79 -2 -85 17 -85 18 0 20 6 17
50 -1 28 4 67 13 89 18 43 18 41 -13 50 -14 5 -24 3 -27 -6z"/>
</g>
</svg>
