<?xml version="1.0" encoding="utf-8"?>
<!-- Generator: Adobe Illustrator 25.3.1, SVG Export Plug-In . SVG Version: 6.00 Build 0)  -->
<svg version="1.1" id="Layer_1" xmlns="http://www.w3.org/2000/svg" xmlns:xlink="http://www.w3.org/1999/xlink" x="0px" y="0px"
	 viewBox="0 0 6006.5 1207.7" style="enable-background:new 0 0 6006.5 1207.7;" xml:space="preserve">
<style type="text/css">
	.st0{fill:#EEEEEE;}
	.st1{fill:#FF5722;}
</style>
<g>
	<polygon class="st0" points="2164.7,1143.1 2164.7,1147.8 1747.9,1147.8 1673.7,997.2 1212.1,59.9 1399.5,59.9 1861.2,997.2 
		2092.7,997.2 	"/>
	<path class="st0" d="M1031.5,839.8c-24.2,49.2-55.6,94.1-92.9,133.4c-19.3,20.2-40.1,38.9-62.2,56
		c-90.7,69.9-203.9,111.8-327.1,112.4h-3c-39.3,0-77.8-4.2-114.7-12.3c-55.6-11.9-108-32.5-155.8-60.1
		c-62.1-35.9-116.3-83.7-159.6-140.5C46.7,837.9,5.4,724.1,5.4,600.7c0-298.6,242.1-540.8,540.9-540.8h1.9
		c73.8,0.2,144.3,15.3,208.4,42.4c52,22,99.8,51.8,142,88.1L816,356.5c-37.8-41.7-85.1-74.6-138.5-95.1
		c-40.7-15.9-85-24.5-131.2-24.5c-31.7,0-62.6,4.1-91.9,11.8c-156.4,40.7-272,182.8-272,352c0,49.4,9.9,96.5,27.7,139.3
		c29.3,70.8,80.4,130.4,144.9,170.2c47,29.2,101.3,47.9,159.3,52.8c10.5,1,21.2,1.5,32,1.5c33.9,0,66.6-4.7,97.7-13.4
		c69.4-19.2,130.5-58.5,176.5-111.4L1031.5,839.8L1031.5,839.8z"/>
	<path class="st1" d="M1087.2,600.7c0,20.7-1.1,41.2-3.4,61.3c-1,9.1-2.3,18.2-3.8,27.3c-3.5,21.1-8.2,41.7-14,62H619.6l30.8-62
		l13.5-27.3l30.5-61.3H1087.2z"/>
	<polygon class="st1" points="1027,973.2 1358.3,973.2 1097.3,443.4 1075.3,487.7 1063.5,511.4 862.6,511.4 884.8,467.2 
		979.3,276.7 1087.2,59.9 1623,1147.8 1027,1147.8 	"/>
</g>
<image style="overflow:visible;enable-background:new    ;" width="400" height="400" xlink:href="../../../../../Color Hunt Palette 30384100adb5eeeeeeff5722.png"  transform="matrix(1 0 0 1 -1000.6368 -201.2904)">
</image>
<g>
	<g>
		<path class="st0" d="M2429.2,718.5c8.7,0,16.7-0.4,23.9-1.3c7.2-0.9,13.8-2.2,20-4c6.2-1.8,12-4,17.6-6.6
			c5.6-2.6,11.2-5.5,16.8-8.7v-68.4h-48.8c-1.3,0-2.4-0.4-3.3-1.3c-0.9-0.8-1.3-1.8-1.3-2.9v-10.1h70.2v90.3
			c-6.3,4.4-12.9,8.4-19.7,11.8c-6.8,3.5-14.1,6.4-21.9,8.7c-7.8,2.3-16.2,4.1-25.1,5.4c-9,1.3-18.8,1.9-29.4,1.9
			c-18.3,0-35-3.1-50.2-9.2c-15.1-6.2-28.1-14.9-39-26.2c-10.8-11.3-19.2-25-25.2-41c-6-16-9-33.9-9-53.5c0-19.6,3-37.4,9-53.4
			c6-16,14.5-29.6,25.5-40.9c11-11.3,24.4-20,40.1-26.2c15.7-6.2,33.4-9.2,52.9-9.2c9.7,0,18.6,0.7,26.8,2
			c8.2,1.3,15.8,3.3,22.9,5.8c7.1,2.6,13.6,5.7,19.7,9.5c6.1,3.8,12,8.1,17.6,13l-4.8,7.9c-1.1,1.8-2.6,2.7-4.5,2.7
			c-1.1,0-2.1-0.2-3.1-0.7c-1.8-0.7-4.4-2.4-7.8-5c-3.4-2.6-8-5.4-13.8-8.3c-5.8-2.9-13.1-5.4-21.8-7.7c-8.7-2.3-19.3-3.4-31.8-3.4
			c-16.5,0-31.4,2.6-44.7,7.9c-13.3,5.3-24.6,12.8-34,22.6c-9.4,9.8-16.6,21.8-21.7,35.9c-5.1,14.1-7.6,30-7.6,47.6
			c0,18,2.6,34,7.7,48.3c5.1,14.2,12.4,26.3,21.6,36.2c9.3,9.9,20.4,17.4,33.4,22.7C2399.2,715.9,2413.5,718.5,2429.2,718.5z"/>
		<path class="st0" d="M2815.3,603.5c0,19.6-2.9,37.4-8.8,53.4c-5.9,16-14.1,29.6-24.8,40.9c-10.7,11.3-23.4,20-38.2,26.2
			c-14.8,6.2-31.3,9.2-49.4,9.2c-17.8,0-34.2-3.1-49-9.2c-14.8-6.2-27.6-14.9-38.2-26.2c-10.7-11.3-18.9-25-24.9-40.9
			s-8.9-33.8-8.9-53.4c0-19.5,3-37.2,8.9-53.2s14.2-29.6,24.9-40.9c10.6-11.3,23.4-20.1,38.2-26.3c14.8-6.2,31.2-9.3,49-9.3
			c18.1,0,34.5,3.1,49.4,9.2c14.8,6.2,27.6,14.9,38.2,26.3c10.6,11.4,18.9,25,24.8,41C2812.4,566.2,2815.3,584,2815.3,603.5z
			 M2796.3,603.5c0-17.7-2.5-33.6-7.4-47.7c-4.9-14.1-11.8-26.1-20.7-35.9c-8.9-9.8-19.7-17.3-32.2-22.5
			c-12.6-5.2-26.5-7.8-41.8-7.8c-15.1,0-28.9,2.6-41.4,7.8c-12.5,5.2-23.3,12.7-32.3,22.5c-9,9.8-16,21.8-21,35.9
			c-5,14.1-7.4,30-7.4,47.7c0,17.8,2.5,33.8,7.4,47.8c5,14.1,12,26,21,35.8c9,9.8,19.8,17.3,32.3,22.4c12.5,5.1,26.3,7.7,41.4,7.7
			c15.3,0,29.3-2.6,41.8-7.7c12.6-5.1,23.3-12.6,32.2-22.4c8.9-9.8,15.8-21.7,20.7-35.8C2793.8,637.3,2796.3,621.3,2796.3,603.5z
			 M2746.4,412.9l-52.4,38.8c-1.2,0.8-2.3,1.4-3.3,1.7c-1,0.3-2.2,0.4-3.7,0.4h-12.6l40.7-37c1.7-1.6,3.2-2.6,4.7-3.1
			c1.4-0.5,3.6-0.8,6.5-0.8H2746.4z"/>
		<path class="st0" d="M3001.8,667.4c0.7-1.9,1.5-3.8,2.2-5.7c0.8-1.9,1.6-3.6,2.6-5.3l99.8-176.4c1-1.6,1.9-2.5,2.9-2.9
			c1-0.4,2.3-0.5,3.9-0.5h12.7v254h-16.2V514.1c0-3.1,0.2-6.4,0.5-9.9l-100,177.5c-1.7,3.1-4.1,4.7-7.2,4.7h-2.9
			c-3,0-5.4-1.6-7.2-4.7L2890.5,504c0.4,3.5,0.5,6.8,0.5,10.1v216.5h-16v-254h12.6c1.7,0,3,0.2,4,0.5c1,0.4,2,1.3,3,2.9l102.5,176.6
			C2998.9,660,3000.5,663.6,3001.8,667.4z"/>
		<path class="st0" d="M3353.6,476.6v15.3h-133.7v102.7h111.3v14.9h-111.3v105.9h133.7v15.3h-152.2v-254H3353.6z"/>
		<path class="st0" d="M3584.6,476.6v6.3c0,2.5-0.8,5-2.5,7.4l-161.2,225.1h162.3v15.3h-186.7v-6.6c0-2.3,0.7-4.4,2.2-6.5
			l161.5-225.6h-159v-15.3H3584.6z"/>
		<path class="st0" d="M3926.8,730.6h-37.3c-4.2,0-7.6-1-10.3-3.1c-2.7-2.1-4.6-4.7-5.8-7.8l-19.4-53h-107.5l-19.4,53
			c-1,2.8-2.8,5.3-5.7,7.5c-2.8,2.3-6.3,3.4-10.3,3.4h-37.5l102-259.6h49.4L3926.8,730.6z M3758.7,632.6h82.7l-31.6-86.3
			c-1.4-3.8-3-8.3-4.8-13.6c-1.7-5.2-3.4-10.9-5.1-17c-1.7,6.1-3.3,11.8-4.9,17.1c-1.6,5.3-3.2,9.9-4.8,13.8L3758.7,632.6z"/>
		<path class="st0" d="M3897.7,471h39c4.2,0,7.6,1,10.2,3.1c2.6,2,4.6,4.7,5.9,7.9l61,158.3c2,5.1,4,10.8,5.8,17
			c1.9,6.2,3.6,12.7,5.3,19.5c2.8-13.8,6.2-25.9,10.2-36.4L4096,482c1.1-2.8,3-5.3,5.7-7.5c2.8-2.3,6.2-3.4,10.2-3.4h39
			l-104.8,259.6h-43.6L3897.7,471z"/>
		<path class="st0" d="M4232.4,730.6H4184V471h48.5V730.6z"/>
		<path class="st0" d="M4339.1,690.7H4443v39.8h-152.2V471h48.3V690.7z"/>
		<path class="st0" d="M4640.1,471v38.4H4525v72h90.6v37.2H4525V692h115.1v38.6h-163.7V471H4640.1z M4629.9,409.1l-53.1,38.8
			c-1.3,1-2.5,1.7-3.7,2.3c-1.1,0.6-2.3,1.1-3.4,1.4c-1.1,0.4-2.3,0.6-3.6,0.7c-1.3,0.1-2.7,0.2-4.4,0.2h-34.8l35.2-36.3
			c1.4-1.4,2.8-2.6,4-3.6c1.3-1,2.5-1.7,3.9-2.2c1.3-0.5,2.8-0.9,4.5-1.1c1.7-0.2,3.7-0.3,6.1-0.3H4629.9z"/>
		<path class="st0" d="M4821,518.2c-1.3,2.6-2.8,4.5-4.6,5.6c-1.7,1.1-3.8,1.6-6.2,1.6c-2.4,0-5.1-0.9-8.1-2.8
			c-3-1.9-6.5-3.9-10.6-6.2c-4.1-2.3-8.8-4.3-14.3-6.2c-5.4-1.9-11.9-2.8-19.3-2.8c-6.7,0-12.5,0.8-17.5,2.4
			c-5,1.6-9.2,3.9-12.6,6.7c-3.4,2.9-6,6.3-7.6,10.3c-1.7,4-2.5,8.4-2.5,13.2c0,6.1,1.7,11.2,5.1,15.3c3.4,4.1,7.9,7.5,13.6,10.4
			c5.6,2.9,12,5.4,19.2,7.7c7.2,2.3,14.5,4.7,22,7.3c7.5,2.6,14.8,5.6,22,9c7.2,3.4,13.6,7.7,19.2,12.9c5.6,5.2,10.1,11.6,13.6,19.1
			s5.1,16.7,5.1,27.5c0,11.7-2,22.7-6,32.9c-4,10.2-9.9,19.1-17.6,26.7c-7.7,7.6-17.1,13.6-28.3,18s-23.9,6.6-38.2,6.6
			c-8.3,0-16.4-0.8-24.4-2.4c-8-1.6-15.7-3.9-23.1-6.9c-7.4-3-14.2-6.6-20.6-10.8c-6.4-4.2-12.1-8.9-17.1-14l14-23.2
			c1.3-1.7,2.9-3.1,4.8-4.2c1.9-1.1,3.9-1.7,6.2-1.7c3,0,6.2,1.2,9.7,3.7c3.5,2.5,7.6,5.2,12.3,8.2c4.7,3,10.3,5.7,16.7,8.2
			c6.4,2.5,14.1,3.7,23.1,3.7c13.8,0,24.4-3.3,32-9.8c7.5-6.5,11.3-15.9,11.3-28.1c0-6.8-1.7-12.4-5.1-16.7
			c-3.4-4.3-7.9-7.9-13.6-10.9c-5.6-2.9-12-5.4-19.2-7.4c-7.2-2-14.5-4.2-21.9-6.6c-7.4-2.4-14.7-5.3-21.9-8.6
			c-7.2-3.3-13.6-7.7-19.2-13.1c-5.6-5.4-10.1-12.1-13.6-20.2c-3.4-8.1-5.1-18-5.1-29.9c0-9.5,1.9-18.7,5.7-27.6s9.3-16.9,16.5-23.9
			c7.2-6.9,16.1-12.5,26.7-16.7c10.5-4.2,22.6-6.3,36.1-6.3c15.3,0,29.4,2.4,42.4,7.2c12.9,4.8,23.9,11.5,33,20.1L4821,518.2z"/>
		<path class="st0" d="M4983.6,701.3h111.3v29.3h-146.1V473.4h34.8V701.3z"/>
		<path class="st0" d="M5233.3,702.9c10.6,0,20.2-1.8,28.5-5.4c8.4-3.6,15.5-8.6,21.3-15.1c5.8-6.5,10.2-14.2,13.3-23.2
			c3.1-9,4.6-18.8,4.6-29.6V473.4h34.6v156.3c0,14.8-2.4,28.6-7.1,41.3c-4.7,12.7-11.5,23.7-20.3,32.9c-8.8,9.3-19.5,16.5-32.2,21.8
			c-12.7,5.3-26.9,7.9-42.7,7.9s-30-2.6-42.7-7.9c-12.7-5.3-23.5-12.5-32.3-21.8c-8.9-9.3-15.6-20.3-20.4-32.9
			c-4.7-12.7-7.1-26.4-7.1-41.3V473.4h34.6v156.2c0,10.8,1.5,20.6,4.6,29.6c3.1,9,7.5,16.7,13.3,23.2c5.8,6.5,12.9,11.5,21.4,15.2
			C5213.1,701.1,5222.7,702.9,5233.3,702.9z"/>
		<path class="st0" d="M5436.7,730.6h-34.8V473.4h34.8V730.6z"/>
		<path class="st0" d="M5637.4,513.6c-1.1,1.8-2.2,3.1-3.4,4c-1.2,0.9-2.8,1.3-4.7,1.3c-2,0-4.4-1-7.1-3.1c-2.7-2-6.1-4.3-10.2-6.7
			c-4.1-2.5-9.1-4.7-14.9-6.7c-5.8-2-12.8-3.1-21.1-3.1c-7.8,0-14.7,1-20.6,3.1c-6,2.1-11,4.9-15,8.5c-4,3.6-7,7.8-9.1,12.7
			c-2,4.8-3.1,10.1-3.1,15.7c0,7.2,1.8,13.1,5.3,17.9c3.5,4.7,8.2,8.8,14,12.1c5.8,3.4,12.4,6.3,19.7,8.7c7.4,2.5,14.9,5,22.6,7.6
			c7.7,2.6,15.3,5.6,22.6,8.9c7.4,3.3,13.9,7.4,19.7,12.5c5.8,5,10.5,11.2,14,18.5c3.5,7.3,5.3,16.3,5.3,26.9
			c0,11.2-1.9,21.8-5.7,31.7c-3.8,9.9-9.4,18.5-16.8,25.8c-7.4,7.3-16.4,13-27.1,17.2c-10.7,4.2-22.9,6.3-36.5,6.3
			c-16.6,0-31.8-3-45.5-9.1c-13.7-6-25.4-14.2-35.1-24.5l10.1-16.5c1-1.3,2.1-2.4,3.5-3.3c1.4-0.9,2.9-1.3,4.6-1.3
			c2.5,0,5.4,1.3,8.6,4c3.2,2.7,7.3,5.7,12.1,8.9c4.8,3.2,10.7,6.2,17.6,8.9c6.9,2.7,15.3,4,25.2,4c8.3,0,15.6-1.1,22.1-3.4
			c6.5-2.3,11.9-5.5,16.4-9.6c4.5-4.1,7.9-9.1,10.3-14.8c2.4-5.7,3.6-12.1,3.6-19.2c0-7.8-1.8-14.1-5.3-19.1
			c-3.5-5-8.2-9.1-13.9-12.5c-5.7-3.3-12.3-6.2-19.7-8.5c-7.4-2.3-14.9-4.7-22.6-7.2c-7.7-2.5-15.3-5.3-22.6-8.5
			c-7.4-3.2-13.9-7.4-19.7-12.6c-5.7-5.1-10.4-11.6-13.9-19.3c-3.5-7.7-5.3-17.3-5.3-28.6c0-9.1,1.8-17.9,5.3-26.4
			c3.5-8.5,8.6-16,15.3-22.6c6.7-6.6,15-11.8,24.9-15.8c9.9-3.9,21.2-5.9,34-5.9c14.4,0,27.5,2.3,39.3,6.8
			c11.8,4.5,22.2,11.1,31.1,19.7L5637.4,513.6z"/>
		<path class="st0" d="M5907.5,730.6h-26.9c-3.1,0-5.6-0.8-7.5-2.3c-1.9-1.6-3.4-3.5-4.3-5.9l-24.1-62.1h-115.4l-24.1,62.1
			c-0.8,2.2-2.3,4.1-4.3,5.7c-2,1.7-4.5,2.5-7.5,2.5h-26.9l102.9-257.2h35.4L5907.5,730.6z M5739,635.1h96l-40.4-104.6
			c-2.6-6.5-5.2-14.5-7.7-24.2c-1.3,4.9-2.6,9.4-3.9,13.6c-1.3,4.1-2.5,7.7-3.7,10.9L5739,635.1z"/>
	</g>
</g>
</svg>
