<?xml version="1.0" encoding="UTF-8"?>
<svg id="Capa_2" data-name="Capa 2" xmlns="http://www.w3.org/2000/svg" viewBox="0 0 407.65 205.38">
  <defs>
    <style>
      .cls-1 {
        fill: #ff5722;
      }

      .cls-2 {
        fill: #ffe7d6;
      }
    </style>
  </defs>
  <g id="Layer_1" data-name="Layer 1">
    <g>
      <polygon class="cls-2" points="407.65 204.49 407.65 205.38 328.96 205.38 314.95 176.95 227.81 0 263.19 0 350.35 176.95 394.05 176.95 407.65 204.49"/>
      <path class="cls-2" d="m193.71,147.23c-4.57,9.29-10.5,17.76-17.54,25.18-3.64,3.81-7.57,7.34-11.74,10.57-17.12,13.2-38.49,21.11-61.75,21.22h-.57c-7.42,0-14.69-.79-21.65-2.32-10.5-2.25-20.39-6.14-29.41-11.35-11.72-6.78-21.96-15.8-30.13-26.52C7.8,146.88,0,125.39,0,102.1,0,45.72,45.71,0,102.11,0h.36c13.93.04,27.24,2.89,39.34,8,9.82,4.15,18.84,9.78,26.81,16.63l-15.59,31.36c-7.14-7.87-16.07-14.08-26.15-17.95-7.68-3-16.05-4.63-24.77-4.63-5.98,0-11.82.77-17.35,2.23-29.53,7.68-51.35,34.51-51.35,66.45,0,9.33,1.87,18.22,5.23,26.3,5.53,13.37,15.18,24.62,27.36,32.13,8.87,5.51,19.12,9.04,30.07,9.97,1.98.19,4,.28,6.04.28,6.4,0,12.57-.89,18.44-2.53,13.1-3.62,24.64-11.04,33.32-21.03l39.83.02h0Z"/>
      <path class="cls-1" d="m204.23,102.1c0,3.91-.21,7.78-.64,11.57-.19,1.72-.43,3.44-.72,5.15-.66,3.98-1.55,7.87-2.64,11.7h-84.27l5.81-11.7,2.55-5.15,5.76-11.57h74.16Z"/>
      <polygon class="cls-1" points="192.86 172.42 255.41 172.42 206.14 72.4 201.98 80.76 199.76 85.24 161.83 85.24 166.02 76.89 183.86 40.93 204.23 0 305.38 205.38 192.86 205.38 192.86 172.42"/>
    </g>
  </g>
</svg>