<?xml version="1.0" encoding="utf-8"?>
<!-- Generator: Adobe Illustrator 28.0.0, SVG Export Plug-In . SVG Version: 6.00 Build 0)  -->
<svg version="1.1" id="Capa_2" xmlns="http://www.w3.org/2000/svg" xmlns:xlink="http://www.w3.org/1999/xlink" x="0px" y="0px"
	 viewBox="0 0 407.6 205.4" style="enable-background:new 0 0 407.6 205.4;" xml:space="preserve">
<style type="text/css">
	.st0{fill:#EBEBEB;}
	.st1{fill:#FF5722;}
</style>
<g>
	<g id="Layer_1_00000026134310251522714440000007438655577517343657_">
		<g>
			<path class="st0" d="M403,202.2v0.9h-74.1c-1.7,0-3.3-1-4.1-2.5l-12.4-25.3L230.5,8.9c-1.5-3,0.7-6.5,4.1-6.5H259
				c1.7,0,3.3,1,4.1,2.5l82.7,167.9c0.8,1.5,2.3,2.5,4.1,2.5h37.1c1.7,0,3.3,1,4.1,2.5L403,202.2z"/>
			<path class="st0" d="M193.9,146.2c-4.5,9.1-10.3,17.4-17.1,24.6c-3.6,3.7-7.4,7.2-11.5,10.3c-16.7,12.9-37.6,20.6-60.3,20.7h-0.6
				c-7.3,0-14.4-0.8-21.2-2.3c-10.3-2.2-19.9-6-28.7-11.1c-11.5-6.6-21.5-15.4-29.4-25.9c-12.8-16.7-20.4-37.7-20.4-60.5
				C4.6,47,49.3,2.3,104.4,2.3h0.4c13.6,0,26.6,2.8,38.4,7.8c8.4,3.6,16.3,8.2,23.3,13.9c1.7,1.3,2.2,3.7,1.3,5.6L157,51.4
				c-1.3,2.7-4.9,3.4-7.1,1.3c-6.1-5.7-13.3-10.2-21.3-13.2c-7.5-2.9-15.7-4.5-24.2-4.5c-5.8,0-11.6,0.8-17,2.2
				c-28.9,7.5-50.2,33.7-50.2,64.9c0,9.1,1.8,17.8,5.1,25.7c5.4,13.1,14.8,24.1,26.7,31.4c8.7,5.4,18.7,8.8,29.4,9.7
				c1.9,0.2,3.9,0.3,5.9,0.3c6.3,0,12.3-0.9,18-2.5c12.1-3.4,22.9-10,31.2-19.1c0.9-0.9,2.1-1.5,3.3-1.5L193.9,146.2L193.9,146.2
				L193.9,146.2z"/>
			<path class="st1" d="M204.2,102.1c0,3.8-0.2,7.6-0.6,11.3c-0.2,1.7-0.4,3.4-0.7,5c-0.4,2.7-1,5.4-1.7,8c-0.5,2-2.3,3.5-4.4,3.5
				h-71.6c-3.4,0-5.5-3.5-4-6.5l2.4-4.9l2.5-5l4.4-8.8c0.8-1.5,2.3-2.5,4-2.5L204.2,102.1L204.2,102.1z"/>
			<path class="st1" d="M197.6,170.8H247c3.3,0,5.5-3.5,4.1-6.5l-40.9-83c-1.7-3.4-6.4-3.4-8.1,0l0,0l-0.9,1.9
				c-0.8,1.5-2.3,2.5-4,2.5h-26.9c-3.4,0-5.5-3.5-4-6.5l0.8-1.6l17.4-35.1l15.8-31.8c1.7-3.3,6.4-3.3,8.1,0l91.6,186
				c1.5,3-0.7,6.5-4.1,6.5h-98.2c-2.5,0-4.5-2-4.5-4.5v-23.2C193.1,172.9,195.1,170.8,197.6,170.8z"/>
		</g>
	</g>
</g>
</svg>
