<?xml version="1.0" encoding="UTF-8"?>
<svg id="Capa_2" data-name="Capa 2" xmlns="http://www.w3.org/2000/svg" viewBox="0 0 2159.3 1087.9">
  <defs>
    <style>
      .cls-1 {
        fill: #ff5722;
      }

      .cls-2 {
        fill: #eee;
      }
    </style>
  </defs>
  <g id="Layer_1" data-name="Layer 1">
    <g>
      <polygon class="cls-2" points="2159.3 1083.2 2159.3 1087.9 1742.5 1087.9 1668.3 937.3 1206.7 0 1394.1 0 1855.8 937.3 2087.3 937.3 2159.3 1083.2"/>
      <path class="cls-2" d="m1026.1,779.9c-24.2,49.2-55.6,94.1-92.9,133.4-19.3,20.2-40.1,38.9-62.2,56-90.7,69.9-203.9,111.8-327.1,112.4h-3c-39.3,0-77.8-4.2-114.7-12.3-55.6-11.9-108-32.5-155.8-60.1-62.1-35.9-116.3-83.7-159.6-140.5C41.3,778,0,664.2,0,540.8,0,242.2,242.1,0,540.9,0h1.9c73.8.2,144.3,15.3,208.4,42.4,52,22,99.8,51.8,142,88.1l-82.6,166.1c-37.8-41.7-85.1-74.6-138.5-95.1-40.7-15.9-85-24.5-131.2-24.5-31.7,0-62.6,4.1-91.9,11.8-156.4,40.7-272,182.8-272,352,0,49.4,9.9,96.5,27.7,139.3,29.3,70.8,80.4,130.4,144.9,170.2,47,29.2,101.3,47.9,159.3,52.8,10.5,1,21.2,1.5,32,1.5,33.9,0,66.6-4.7,97.7-13.4,69.4-19.2,130.5-58.5,176.5-111.4l211,.1h0Z"/>
      <path class="cls-1" d="m1081.8,540.8c0,20.7-1.1,41.2-3.4,61.3-1,9.1-2.3,18.2-3.8,27.3-3.5,21.1-8.2,41.7-14,62h-446.4l30.8-62,13.5-27.3,30.5-61.3h392.8Z"/>
      <polygon class="cls-1" points="1021.6 913.3 1352.9 913.3 1091.9 383.5 1069.9 427.8 1058.1 451.5 857.2 451.5 879.4 407.3 973.9 216.8 1081.8 0 1617.6 1087.9 1021.6 1087.9 1021.6 913.3"/>
    </g>
  </g>
</svg>