<?xml version="1.0" encoding="utf-8"?>
<!-- Generator: Adobe Illustrator 25.3.1, SVG Export Plug-In . SVG Version: 6.00 Build 0)  -->
<svg version="1.1" id="Layer_1" xmlns="http://www.w3.org/2000/svg" xmlns:xlink="http://www.w3.org/1999/xlink" x="0px" y="0px"
	 viewBox="0 0 915 699" style="enable-background:new 0 0 915 699;" xml:space="preserve">
<style type="text/css">
	.st0{fill:#ABC9F4;}
	.st1{fill:url(#SVGID_1_);}
	.st2{fill:#FFFFFF;}
	.st3{fill:url(#SVGID_2_);}
	.st4{fill:none;stroke:#FFFFFF;stroke-width:0.6135;stroke-linecap:round;stroke-miterlimit:10;}
	.st5{fill:url(#SVGID_3_);}
	.st6{fill:none;stroke:#000000;stroke-width:0.8534;stroke-miterlimit:10;}
	.st7{fill:url(#SVGID_4_);}
	.st8{fill:url(#SVGID_5_);}
	.st9{fill:url(#SVGID_6_);}
	.st10{fill:url(#SVGID_7_);}
	.st11{fill:#9EC9F5;}
	.st12{fill:#E8F0FD;}
	.st13{fill:url(#SVGID_8_);}
	.st14{fill:url(#SVGID_9_);}
	.st15{fill:#DDE5F4;}
	.st16{fill:#FFA900;}
	.st17{fill:#FF8000;}
	.st18{fill:#FFCF00;}
	.st19{opacity:0.1;fill:#EFF0F0;enable-background:new    ;}
	.st20{fill:#F6D9B8;}
	.st21{fill:url(#SVGID_10_);}
	.st22{fill:#112129;}
	.st23{fill:#E6C69F;}
	.st24{fill:url(#SVGID_11_);}
	.st25{opacity:0.2;fill:#00A0F3;enable-background:new    ;}
	.st26{opacity:0.7;}
	.st27{fill:#E5E5E6;}
	.st28{fill:url(#SVGID_12_);}
	.st29{fill:url(#SVGID_13_);}
	.st30{fill:url(#SVGID_14_);}
	.st31{fill:url(#SVGID_15_);}
	.st32{fill:url(#SVGID_16_);}
	.st33{fill:url(#SVGID_17_);}
	.st34{fill:url(#SVGID_18_);}
	.st35{fill:url(#SVGID_19_);}
	.st36{fill:url(#SVGID_20_);}
	.st37{fill:#008BEF;}
	.st38{fill:url(#SVGID_21_);}
</style>
<path class="st0" d="M884.6,140.2c-34.1-61.8-96.6-95.8-166-71.5c-60.6,21.2-110,33.2-170,1.3c-47.6-25.3-93-63.4-150-61.8
	C345.2,9.8,296.9,49.7,276,97.4c-25.4,57.8,3.6,121.2-10.9,180.7c-10.9,44.7-51,71.1-89.9,90.2c-33.5,16.4-68.6,30.2-99,51.7
	c-38.9,27.5-64,68.2-66.7,116.1c-2,35.5,13.2,68.2,26.5,100.2c1.9,4.7,3.9,9.3,5.8,14c4.1,9.8,8.2,19.7,12,29.6h835.5
	c0.9-4.6,1.3-9.2,1.2-13.9c-0.5-26.9-15.3-52.2-23.6-77.2c-20.6-62.2-7.1-121.5,13.2-181.9c9.9-29.6,24.6-59.2,30.1-89.7
	C920.8,256.8,914.7,194.7,884.6,140.2z"/>
<g>
	<g>
		
			<linearGradient id="SVGID_1_" gradientUnits="userSpaceOnUse" x1="816.9633" y1="128.878" x2="870.8483" y2="128.878" gradientTransform="matrix(1 0 0 -1 0 700)">
			<stop  offset="8.333330e-02" style="stop-color:#A5CCFC"/>
			<stop  offset="1" style="stop-color:#84BAFB"/>
		</linearGradient>
		<path class="st1" d="M836.9,629.4c-8.3-8.9-14.4-19.5-12-32.2c1-5.2,2-9.6-1.5-14.1c-1.6-2.1-3.7-4-4.9-6.5
			c-3.5-7-0.9-14.4,2.1-21.1c2.2-4.9,4.6-9.9,5.5-15.2c0.9-5.7-0.6-11.3-0.2-17c0.3-5.5,3.2-11.6,8.6-12.8c3.6-0.8,7.3,0.8,10.1,3.1
			c3.2,2.7,5.5,6.5,6.5,10.6c1.3,5.6,0.1,11.8,2.7,17c2.3,4.5,7,7.3,10.2,11.3c3.4,4.2,4.9,9.8,4.2,15.2c-0.6,4.4-2.8,8.6-3.2,13.1
			c-1,10.1,6.6,19.4,5.8,29.5c-0.4,5.9-3.8,11.3-8.3,15c-5.2,4.2-12.8,7.4-19.6,6.5c-3.7-0.5-7-2.3-9.2-5.3"/>
		<g>
			<path class="st2" d="M849.3,625.4c-0.4,0-0.7-0.3-0.7-0.7L838,534c0-0.4,0.2-0.8,0.6-0.8c0.4,0,0.8,0.2,0.8,0.6l10.6,90.8
				C850.1,625,849.8,625.4,849.3,625.4C849.4,625.4,849.4,625.4,849.3,625.4z"/>
		</g>
		<g>
			<path class="st2" d="M844.2,581.6c-0.1,0-0.3,0-0.4-0.1c-0.4-0.2-0.5-0.7-0.3-1l11.8-19.8c0.2-0.4,0.7-0.5,1-0.3
				c0.4,0.2,0.5,0.7,0.3,1l-11.8,19.8C844.7,581.5,844.5,581.6,844.2,581.6z"/>
		</g>
		<g>
			<path class="st2" d="M842.2,568.5c-0.1,0-0.2,0-0.3-0.1l-15.5-7.4c-0.4-0.2-0.5-0.6-0.4-1c0.2-0.4,0.6-0.5,1-0.4l15.5,7.4
				c0.4,0.2,0.5,0.6,0.4,1C842.7,568.3,842.5,568.5,842.2,568.5z"/>
		</g>
		<g>
			<path class="st2" d="M846.4,600.5c-0.1,0-0.2,0-0.3-0.1l-13.1-5.7c-0.4-0.2-0.5-0.6-0.4-1c0.2-0.4,0.6-0.6,1-0.4l13.1,5.7
				c0.4,0.2,0.5,0.6,0.4,1C846.9,600.3,846.7,600.5,846.4,600.5z"/>
		</g>
		<g>
			
				<linearGradient id="SVGID_2_" gradientUnits="userSpaceOnUse" x1="847.5567" y1="113.7471" x2="907.2972" y2="113.7471" gradientTransform="matrix(1 0 0 -1 0 700)">
				<stop  offset="8.333330e-02" style="stop-color:#A5CCFC"/>
				<stop  offset="1" style="stop-color:#84BAFB"/>
			</linearGradient>
			<path class="st3" d="M848.2,624.5c-0.6-2.4-0.8-4.6-0.3-6.4c1.5-5.9,6.9-10.2,10.6-14.8c4.4-5.5,7.5-12.3,7.1-19.3
				c-0.3-5.7,0.7-10.5,4.4-15.1c3.6-4.5,8.4-7.9,12.2-12.1c4.1-4.5,7.7-9.2,10.8-14.4c2.6-4.4,7.6-11,12.2-4.3
				c1.8,2.7,2.5,6.1,2,9.3c-1.3,8.4-8.6,14.3-11.4,22.1c-1.4,4-1.4,8.1-1.6,12.2c-0.2,3.7-0.6,7.9-3.1,10.9
				c-1.4,1.7-3.3,3.1-4.6,4.9c-1.8,2.6-2.2,5.7-2.7,8.7c-0.5,3.3-1.6,6.2-2.8,9.2c-3,7.6-7.5,16.6-15.1,20.4
				c-2.2,1.1-4.8,1.8-7.2,1.3C853.2,635.9,849.5,629.4,848.2,624.5z"/>
			<g>
				<path class="st2" d="M861.4,627.4c-0.1,0-0.2,0-0.3,0c-0.4-0.2-0.6-0.6-0.4-1l22.2-56.7c0.2-0.4,0.6-0.6,1-0.4
					c0.4,0.2,0.6,0.6,0.4,1L862.1,627C862,627.2,861.7,627.4,861.4,627.4z"/>
			</g>
			<g>
				<path class="st4" d="M888.3,584.2"/>
			</g>
			<g>
				<path class="st2" d="M874.5,593.1c-0.4,0-0.7-0.3-0.7-0.7l-2.2-19c0-0.4,0.2-0.8,0.7-0.8c0.4,0,0.8,0.2,0.8,0.7l2.2,19
					C875.3,592.7,875,593.1,874.5,593.1C874.6,593.1,874.5,593.1,874.5,593.1z"/>
			</g>
			<g>
				<path class="st2" d="M872.5,600.3c-0.2,0-0.5-0.1-0.6-0.3c-0.2-0.3-0.1-0.8,0.2-1l14.1-9.4c0.3-0.2,0.8-0.1,1,0.2s0.1,0.8-0.2,1
					l-14.1,9.4C872.8,600.2,872.7,600.3,872.5,600.3z"/>
			</g>
			<g>
				<path class="st2" d="M863.1,621.5c-0.3,0-0.6-0.2-0.7-0.5l-3.5-11.1c-0.1-0.4,0.1-0.8,0.5-0.9c0.4-0.1,0.8,0.1,0.9,0.5l3.5,11.1
					c0.1,0.4-0.1,0.8-0.5,0.9C863.3,621.5,863.2,621.5,863.1,621.5z"/>
			</g>
		</g>
		<g>
			
				<linearGradient id="SVGID_3_" gradientUnits="userSpaceOnUse" x1="787.7999" y1="90.927" x2="839.8245" y2="90.927" gradientTransform="matrix(1 0 0 -1 0 700)">
				<stop  offset="8.333330e-02" style="stop-color:#A5CCFC"/>
				<stop  offset="1" style="stop-color:#84BAFB"/>
			</linearGradient>
			<path class="st5" d="M839.8,630.4c0.1-1.7-0.1-3.3-0.7-4.4c-1.9-3.8-6.2-5.9-9.4-8.5c-3.8-3.1-6.9-7.3-7.7-12.1
				c-0.6-3.9-2-7.1-5.2-9.6c-3.1-2.5-6.9-4.1-10.1-6.5c-3.4-2.5-6.6-5.1-9.4-8.2c-2.4-2.6-6.8-6.4-8.9-1.1c-0.8,2.1-0.8,4.5,0,6.6
				c2.1,5.5,8,8.4,11,13.3c1.5,2.5,2.1,5.3,2.9,8.1c0.7,2.5,1.6,5.3,3.7,6.9c1.2,1,2.7,1.6,3.9,2.6c1.6,1.5,2.3,3.6,3.1,5.5
				c0.8,2.1,2,4,3.2,5.9c3.1,4.8,7.5,10.2,13.3,11.6c1.7,0.4,3.5,0.5,5.1-0.2C838.1,638.9,839.7,633.9,839.8,630.4z"/>
			<g>
				<path class="st2" d="M832.3,634.3c-0.2,0-0.5-0.1-0.6-0.3l-23.4-35.3c-0.2-0.3-0.1-0.8,0.2-1s0.8-0.1,1,0.2l23.4,35.3
					c0.2,0.3,0.1,0.8-0.2,1C832.6,634.2,832.5,634.3,832.3,634.3z"/>
			</g>
			<path class="st6" d="M807.8,608.7"/>
			<g>
				<path class="st2" d="M818.4,612.9c-0.4,0-0.7-0.3-0.7-0.7l-1.3-13.2c0-0.4,0.3-0.8,0.7-0.8s0.8,0.3,0.8,0.7l1.3,13.2
					C819.2,612.5,818.9,612.9,818.4,612.9L818.4,612.9z"/>
			</g>
			<g>
				<path class="st2" d="M820.8,617.5c-0.1,0-0.2,0-0.3-0.1l-10.9-4.3c-0.4-0.1-0.6-0.6-0.4-1c0.1-0.4,0.6-0.6,1-0.4l10.9,4.3
					c0.4,0.1,0.6,0.6,0.4,1C821.4,617.3,821.1,617.5,820.8,617.5z"/>
			</g>
			<g>
				<path class="st2" d="M830.3,630.5C830.3,630.5,830.2,630.5,830.3,630.5c-0.5,0-0.8-0.4-0.7-0.8l0.7-8.1c0-0.4,0.3-0.7,0.8-0.7
					c0.4,0,0.7,0.4,0.7,0.8l-0.7,8.1C831,630.2,830.7,630.5,830.3,630.5z"/>
			</g>
		</g>
	</g>
	<g>
		<g>
			
				<linearGradient id="SVGID_4_" gradientUnits="userSpaceOnUse" x1="802.8" y1="43.75" x2="889.8" y2="43.75" gradientTransform="matrix(1 0 0 -1 0 700)">
				<stop  offset="0" style="stop-color:#E8F0FD"/>
				<stop  offset="1" style="stop-color:#D8DEF8"/>
			</linearGradient>
			<polygon class="st7" points="814.4,678.5 878.2,678.5 889.8,634 802.8,634 			"/>
		</g>
		
			<linearGradient id="SVGID_5_" gradientUnits="userSpaceOnUse" x1="798.7" y1="69.3" x2="894" y2="69.3" gradientTransform="matrix(1 0 0 -1 0 700)">
			<stop  offset="0" style="stop-color:#D8DEF8"/>
			<stop  offset="1" style="stop-color:#E8F0FD"/>
		</linearGradient>
		<rect x="798.7" y="627.3" class="st8" width="95.3" height="6.8"/>
	</g>
</g>
<g>
	<g>
		<g>
			
				<linearGradient id="SVGID_6_" gradientUnits="userSpaceOnUse" x1="214.3" y1="234.7" x2="811.6" y2="234.7" gradientTransform="matrix(1 0 0 -1 0 700)">
				<stop  offset="0" style="stop-color:#00AAF6"/>
				<stop  offset="1" style="stop-color:#0078EF"/>
			</linearGradient>
			<path class="st9" d="M811.5,640.3c0,4.6-4.2,8.3-9.3,8.3H223.6c-5.1,0-9.3-3.7-9.3-8.3v-350c0-4.6,4.2-8.3,9.3-8.3h578.7
				c5.1,0,9.3,3.7,9.3,8.3v350H811.5z"/>
			<path class="st2" d="M793.7,628.7C793.7,628.7,793.7,628.8,793.7,628.7H232.2l0,0V301.8h561.6L793.7,628.7L793.7,628.7z"/>
			
				<linearGradient id="SVGID_7_" gradientUnits="userSpaceOnUse" x1="186.4" y1="35.65" x2="839.5" y2="35.65" gradientTransform="matrix(1 0 0 -1 0 700)">
				<stop  offset="0" style="stop-color:#0063CF"/>
				<stop  offset="1" style="stop-color:#0078EF"/>
			</linearGradient>
			<path class="st10" d="M812.5,680.2H213.3c-14.9,0-26.9-12.1-26.9-26.9l0,0c0-2.6,2.1-4.8,4.8-4.8h643.5c2.6,0,4.8,2.1,4.8,4.8
				l0,0C839.4,668.2,827.3,680.2,812.5,680.2z"/>
			<g>
				<path class="st11" d="M555.8,648.6L555.8,648.6c0,9.1-7.3,16.4-16.4,16.4h-53c-9.1,0-16.4-7.3-16.4-16.4l0,0"/>
			</g>
		</g>
	</g>
	<path class="st12" d="M509.1,618.2C509.1,618.2,509.1,618.3,509.1,618.2H241l0,0V312.3h268.1V618.2z"/>
	<path class="st12" d="M781.8,618.2C781.8,618.2,781.8,618.3,781.8,618.2H519.1l0,0V481.4h262.7V618.2z"/>
	<path class="st12" d="M781.8,474.1L781.8,474.1H519.1l0,0V312.3h262.7V474.1z"/>
	<g>
		<g>
			
				<linearGradient id="SVGID_8_" gradientUnits="userSpaceOnUse" x1="370" y1="194.35" x2="472.8" y2="194.35" gradientTransform="matrix(1 0 0 -1 0 700)">
				<stop  offset="6.182800e-02" style="stop-color:#F99900"/>
				<stop  offset="1" style="stop-color:#FF7F34"/>
			</linearGradient>
			<path class="st13" d="M472.8,469.3c0,28.4-11.5,54.1-30.1,72.7L370,469.3H472.8z"/>
			
				<linearGradient id="SVGID_9_" gradientUnits="userSpaceOnUse" x1="368.2937" y1="229.9846" x2="258.8245" y2="184.5948" gradientTransform="matrix(1 0 0 -1 0 700)">
				<stop  offset="0" style="stop-color:#00AAF6"/>
				<stop  offset="1" style="stop-color:#0078EF"/>
			</linearGradient>
			<path class="st14" d="M442.7,542c-18.6,18.6-44.2,30.1-72.7,30.1c-56.8,0-102.8-46-102.8-102.8s46-102.8,102.8-102.8v102.8
				L442.7,542z"/>
			<g>
				<path class="st11" d="M482.7,459.4H380V356.6C436.7,356.6,482.7,402.7,482.7,459.4z"/>
			</g>
		</g>
		<g>
			<g>
				<polygon class="st11" points="755.9,451.5 643.5,451.5 633.2,451.5 545,451.5 545,455.7 643.5,455.7 643.5,455.6 755.9,455.6 
									"/>
			</g>
			<g>
				<g>
					<g>
						<rect x="559.6" y="404.8" class="st11" width="18.4" height="39.4"/>
					</g>
				</g>
				<g>
					<g>
						<rect x="586.8" y="362.9" class="st11" width="18.4" height="81.3"/>
					</g>
				</g>
				<g>
					<g>
						<rect x="614" y="385.5" class="st11" width="18.4" height="58.8"/>
					</g>
				</g>
				<g>
					<g>
						<rect x="641.2" y="352" class="st11" width="18.4" height="92.3"/>
					</g>
				</g>
				<g>
					<g>
						<rect x="668.4" y="326" class="st11" width="18.4" height="118.3"/>
					</g>
				</g>
				<g>
					<g>
						<rect x="695.6" y="342" class="st11" width="18.4" height="102.3"/>
					</g>
				</g>
				<g>
					<g>
						<rect x="722.9" y="345.5" class="st11" width="18.4" height="98.7"/>
					</g>
				</g>
			</g>
		</g>
		<g>
			<g>
				<g>
					<path class="st11" d="M728.2,514.8c-20.2,0-36.6,16.4-36.6,36.6c0,20.2,16.4,36.6,36.6,36.6c20.2,0,36.6-16.4,36.6-36.6
						S748.4,514.8,728.2,514.8z M728.2,575.3c-13.2,0-23.9-10.7-23.9-23.9s10.7-23.9,23.9-23.9s23.9,10.7,23.9,23.9
						S741.4,575.3,728.2,575.3z"/>
				</g>
				<path class="st2" d="M764.8,551.4c0,9.9-4,19-10.4,25.6l-9-9c4.2-4.3,6.7-10.2,6.7-16.6c0-13.2-10.7-23.9-23.9-23.9v-12.7
					C748.4,514.8,764.8,531.2,764.8,551.4z"/>
			</g>
			<g>
				<rect x="536" y="520" class="st2" width="138.6" height="14.3"/>
				<rect x="536" y="546" class="st2" width="138.6" height="14.3"/>
				<rect x="536" y="572" class="st2" width="138.6" height="14.3"/>
			</g>
		</g>
	</g>
</g>
<g>
	<g>
		<path class="st15" d="M324.6,658.6h-12.8c1.4,0,2.6-1,2.8-2.4c0-0.2,0.1-0.3,0.1-0.5v-16.1c0-1-0.6-1.9-1.4-2.4h8.5
			c1.5,0,2.6-1,2.9-2.4c0-0.2,0.1-0.3,0.1-0.5v-16.1c0-1.6-1.3-2.9-2.9-2.9h-7.8c1.4,0,2.6-1,2.8-2.4c0-0.2,0.1-0.3,0.1-0.5v-16.1
			c0-1.6-1.3-2.9-2.9-2.9h7.6c1.5,0,2.6-1,2.9-2.4c0-0.2,0.1-0.3,0.1-0.5v-16.1c0-1.6-1.3-2.9-2.9-2.9H304c0.7-0.4,1.2-1.1,1.3-1.9
			c0-0.2,0.1-0.3,0.1-0.5V553c0-1.6-1.3-2.9-2.9-2.9h19.3c1.6,0,2.9-1.3,2.9-2.9v-16.1c0-1.6-1.3-2.9-2.9-2.9h-20h-32.4H205h-23.8
			h-10.9c-1.6,0-2.9,1.3-2.9,2.9V547c0,1.6,1.3,2.9,2.9,2.9h-8.4H151c-1.6,0-2.9,1.3-2.9,2.9v16c-10.3,4.2-19.1,11-25.9,19.6
			c-5.9-2.3-12.2-3.6-18.9-3.6c-29.1-0.1-52.7,23.3-52.9,52.4c0,0.9,0,1.8,0.1,2.7c0.2,4,0.8,7.8,1.8,11.5c0.7,2.5,1.5,4.9,2.6,7.2
			c0.6,1.4,1.3,2.7,2,4c8.9,16.2,26.1,27.3,45.9,27.4c12.4,0.1,23.8-4.2,32.8-11.4c10.1,7.1,22.5,11.3,35.8,11.4
			c12.4,0.1,23.9-3.5,33.7-9.6h2.7h64.4h32.4h20c1.5,0,2.6-1,2.9-2.4c0-0.2,0.1-0.3,0.1-0.5v-16.1
			C327.5,659.9,326.2,658.6,324.6,658.6z"/>
	</g>
	<g>
		<g>
			<g>
				<path class="st16" d="M313.7,549.9H158.8c-0.7,0-1.2-0.5-1.2-1.2v-19.5c0-0.7,0.5-1.2,1.2-1.2h154.9c0.7,0,1.2,0.5,1.2,1.2v19.5
					C314.9,549.4,314.4,549.9,313.7,549.9z"/>
				<rect x="259.6" y="528" class="st17" width="32.4" height="21.9"/>
				<rect x="171.4" y="528" class="st18" width="23.8" height="21.9"/>
			</g>
			<g>
				<g>
					<path class="st16" d="M295.6,552.8v16.1c0,0.2,0,0.3-0.1,0.5c-0.2,1.4-1.4,2.4-2.9,2.4H141.2c-1.4,0-2.6-1-2.9-2.4
						c0-0.2-0.1-0.3-0.1-0.5v-16.1c0-1.6,1.3-2.9,2.9-2.9h151.5C294.3,549.9,295.6,551.2,295.6,552.8z"/>
					<rect x="240.3" y="549.9" class="st17" width="32.4" height="21.9"/>
					<rect x="152.1" y="549.9" class="st18" width="23.8" height="21.9"/>
				</g>
				<path class="st17" d="M295.5,569.4c-0.2,1.4-1.4,2.4-2.9,2.4H141.2c-1.4,0-2.6-1-2.9-2.4H295.5z"/>
			</g>
			<g>
				<g>
					<path class="st16" d="M314.7,574.3v16.1c0,0.2,0,0.3-0.1,0.5c-0.2,1.4-1.4,2.4-2.9,2.4H160.2c-1.4,0-2.6-1-2.9-2.4
						c0-0.2-0.1-0.3-0.1-0.5v-16.1c0-1.6,1.3-2.9,2.9-2.9h151.5C313.4,571.4,314.7,572.7,314.7,574.3z"/>
					<rect x="259.4" y="571.4" class="st17" width="32.4" height="21.9"/>
					<rect x="171.2" y="571.4" class="st18" width="23.8" height="21.9"/>
				</g>
				<path class="st17" d="M314.6,590.9c-0.2,1.4-1.4,2.4-2.9,2.4H160.2c-1.4,0-2.6-1-2.9-2.4H314.6z"/>
			</g>
			<g>
				<g>
					<path class="st16" d="M307,596.2v16.1c0,0.2,0,0.3-0.1,0.5c-0.2,1.4-1.4,2.4-2.9,2.4H152.6c-1.4,0-2.6-1-2.9-2.4
						c0-0.2-0.1-0.3-0.1-0.5v-16.1c0-1.6,1.3-2.9,2.9-2.9H304C305.7,593.3,307,594.6,307,596.2z"/>
					<rect x="251.7" y="593.3" class="st17" width="32.4" height="21.9"/>
					<rect x="163.5" y="593.3" class="st18" width="23.8" height="21.9"/>
				</g>
				<path class="st17" d="M307,612.8c-0.2,1.4-1.4,2.4-2.9,2.4H152.6c-1.4,0-2.6-1-2.9-2.4H307z"/>
			</g>
			<g>
				<g>
					<path class="st16" d="M314.9,618.1v16.1c0,0.2,0,0.3-0.1,0.5c-0.2,1.4-1.4,2.4-2.9,2.4H160.5c-1.4,0-2.6-1-2.9-2.4
						c0-0.2-0.1-0.3-0.1-0.5v-16.1c0-1.6,1.3-2.9,2.9-2.9H312C313.6,615.2,314.9,616.5,314.9,618.1z"/>
					<rect x="259.6" y="615.2" class="st17" width="32.4" height="21.9"/>
					<rect x="171.4" y="615.2" class="st18" width="23.8" height="21.9"/>
				</g>
				<path class="st17" d="M314.8,634.8c-0.2,1.4-1.4,2.4-2.9,2.4H160.5c-1.4,0-2.6-1-2.9-2.4H314.8z"/>
			</g>
			<g>
				<g>
					<path class="st16" d="M304.9,639.6v16.1c0,0.2,0,0.3-0.1,0.5c-0.2,1.4-1.4,2.4-2.9,2.4H150.5c-1.4,0-2.6-1-2.9-2.4
						c0-0.2-0.1-0.3-0.1-0.5v-16.1c0-1.6,1.3-2.9,2.9-2.9H302C303.6,636.7,304.9,638,304.9,639.6z"/>
					<rect x="249.6" y="636.7" class="st17" width="32.4" height="21.9"/>
					<rect x="161.4" y="636.7" class="st18" width="23.8" height="21.9"/>
				</g>
				<path class="st17" d="M304.8,656.2c-0.2,1.4-1.4,2.4-2.9,2.4H150.5c-1.4,0-2.6-1-2.9-2.4H304.8z"/>
			</g>
			<g>
				<g>
					<path class="st16" d="M317.8,661.5v16.1c0,0.2,0,0.3-0.1,0.5c-0.2,1.4-1.4,2.4-2.9,2.4H163.3c-1.4,0-2.6-1-2.9-2.4
						c0-0.2-0.1-0.3-0.1-0.5v-16.1c0-1.6,1.3-2.9,2.9-2.9h151.5C316.5,658.6,317.8,659.9,317.8,661.5z"/>
					<rect x="262.5" y="658.6" class="st17" width="32.4" height="21.9"/>
					<rect x="174.3" y="658.6" class="st18" width="23.8" height="21.9"/>
				</g>
				<path class="st17" d="M317.7,678.1c-0.2,1.4-1.4,2.4-2.9,2.4H163.3c-1.4,0-2.6-1-2.9-2.4H317.7z"/>
			</g>
		</g>
		<g>
			<g>
				<g id="XMLID_11_">
					<g>
						<path class="st16" d="M223.9,615.4c-1.8-9.6-5.8-18.5-11.5-26c-5.4-7.2-12.3-13.2-20.3-17.5c-8.9-4.8-19-7.6-29.8-7.6
							c-34.8-0.2-63.1,27.9-63.3,62.7c0,1.1,0,2.2,0.1,3.2c0.2,4.8,1,9.3,2.2,13.8c0.8,3,1.9,5.9,3.1,8.7c0.7,1.6,1.5,3.3,2.4,4.8
							c10.6,19.4,31.2,32.7,55,32.8c32.6,0.2,59.6-24.6,62.9-56.4c0.2-2.1,0.3-4.2,0.4-6.3C225,623.3,224.6,619.3,223.9,615.4z
							 M161.8,679c-18.2-0.1-34.3-9.6-43.4-23.9c-1.3-1.9-2.4-3.9-3.3-6c-1.5-3.2-2.7-6.7-3.5-10.2c-0.9-3.9-1.3-7.9-1.3-12
							c0-1.3,0.1-2.6,0.2-3.9c2.1-26.8,24.6-47.8,51.9-47.7c6.6,0,12.8,1.3,18.6,3.5c8.4,3.3,15.7,8.7,21.4,15.5
							c5.6,6.9,9.5,15.2,10.9,24.3c0.5,2.8,0.7,5.8,0.7,8.7c0,3-0.3,5.9-0.8,8.8C208.8,660.6,187.4,679.1,161.8,679z"/>
						<path class="st17" d="M162.2,575c28.8,0.1,52.1,23.6,52,52.4c-0.1,28.8-23.6,52.1-52.4,52s-52.1-23.6-52-52.4
							C109.9,598.1,133.4,574.8,162.2,575z M207.3,627.4c0.1-25-20.1-45.4-45.1-45.6c-25-0.1-45.4,20.1-45.6,45.1
							c-0.1,25,20.1,45.4,45.1,45.6C186.8,672.6,207.2,652.4,207.3,627.4z"/>
						<ellipse class="st18" cx="162" cy="627.2" rx="46" ry="46"/>
					</g>
				</g>
				<g>
					<g>
						<path class="st17" d="M169.4,607.1c5.1,2,7.6,6.4,7.5,12.6v0.9h-6.4c0-3.5-0.9-6-2.6-7.5l-2.8,11.5c8,1.3,12.2,4.5,12.2,11.1
							v0.5c0,7.6-5.5,12.2-15.1,12.2c-1,0-1.9-0.1-2.9-0.1l-1.7,7.2h-5.2l2.1-8.4c-5.2-2.2-7.9-6.6-7.9-12.4v-0.4h6.4
							c0,3,1,5.3,2.9,6.8l2.9-12.1c-8.3-1.4-11.7-4.9-11.7-10.8v-0.5c0-7.4,6-11.9,15-11.8c0.8,0,1.6,0.1,2.4,0.1l1.7-7.1h5.2
							L169.4,607.1z M160.1,623.8l3-12.4c-0.3-0.1-0.7-0.1-1-0.1h-0.3c-4.6,0-8.2,2.2-8.2,6v0.3
							C153.6,620.9,155.3,622.9,160.1,623.8z M170.7,636.5v-0.3c0-3.6-2.1-5.5-6.9-6.4l-3.2,13.2c0.5,0.1,1,0.1,1.5,0.1h0.3
							C167.3,643,170.7,640.7,170.7,636.5z"/>
					</g>
				</g>
			</g>
			<path class="st19" d="M212.4,589.4c-3.3,1.7-6.7,3.3-10.2,5c-29.4,14.6-61.9,30.5-90.7,44.5c-3.5,1.7-6.9,3.3-10.2,5
				c-1.2-4.4-2-9-2.2-13.8c3.7-2.3,7.4-4.7,11.2-7.1c22.5-14.2,47.1-29.6,70.5-44.2c3.8-2.4,7.5-4.7,11.3-7
				C200,576.2,207,582.2,212.4,589.4z"/>
			<path class="st19" d="M225,627.5c0,2.1-0.1,4.2-0.4,6.3c-3.6,0.7-7.4,1.5-11.6,2.4c-27.4,5.6-65.9,13.4-94.7,19
				c-4.1,0.8-8,1.6-11.6,2.2c-0.9-1.6-1.7-3.2-2.4-4.8c3.3-1,6.9-2.2,10.7-3.4c29.3-9.3,70-21.8,98.1-30.5c3.8-1.2,7.4-2.3,10.7-3.3
				C224.6,619.3,225,623.3,225,627.5z"/>
		</g>
		<g>
			<g>
				<g id="XMLID_7_">
					<g>
						<path class="st16" d="M145,627.7c-1.5-8.1-4.9-15.4-9.6-21.8c-4.5-6-10.3-11-17-14.6c-7.4-4-15.9-6.3-24.9-6.4
							c-29.1-0.1-52.7,23.3-52.9,52.4c0,0.9,0,1.8,0.1,2.7c0.2,4,0.8,7.8,1.8,11.5c0.7,2.5,1.5,4.9,2.6,7.2c0.6,1.4,1.3,2.7,2,4
							C56,679,73.2,690.1,93,690.2c27.3,0.1,49.8-20.5,52.6-47.1c0.2-1.7,0.3-3.5,0.3-5.3C145.9,634.3,145.6,631,145,627.7z
							 M93.1,680.8c-15.3-0.1-28.6-8-36.3-19.9c-1-1.6-2-3.3-2.8-5c-1.3-2.7-2.3-5.6-3-8.6c-0.7-3.2-1.1-6.6-1.1-10
							c0-1.1,0.1-2.2,0.1-3.3c1.8-22.4,20.5-40,43.4-39.9c5.5,0,10.7,1.1,15.5,2.9c7,2.7,13.2,7.3,17.9,13
							c4.7,5.7,7.9,12.7,9.1,20.3c0.4,2.4,0.6,4.8,0.6,7.3s-0.2,4.9-0.6,7.3C132.4,665.5,114.5,680.9,93.1,680.8z"/>
						<path class="st17" d="M93.5,593.9c24.1,0.1,43.5,19.7,43.4,43.8s-19.7,43.5-43.8,43.4C69,681,49.5,661.4,49.7,637.3
							C49.8,613.2,69.4,593.8,93.5,593.9z M131.2,637.7c0.1-20.9-16.8-38-37.7-38.1s-38,16.8-38.1,37.7s16.8,38,37.7,38.1
							S131.1,658.6,131.2,637.7z"/>
						
							<ellipse transform="matrix(0.9973 -7.409814e-02 7.409814e-02 0.9973 -46.98 8.6656)" class="st18" cx="93.3" cy="637.5" rx="38.4" ry="38.4"/>
					</g>
				</g>
				<g>
					<g>
						<g>
							<g>
								<path class="st17" d="M99.5,620.7c4.3,1.6,6.3,5.3,6.3,10.5v0.8h-5.4c0-2.9-0.7-5-2.2-6.3l-2.4,9.6
									c6.7,1.1,10.2,3.7,10.2,9.3v0.4c0,6.4-4.6,10.2-12.6,10.2c-0.8,0-1.6-0.1-2.4-0.1l-1.4,6h-4.4l1.7-7
									c-4.4-1.8-6.6-5.5-6.6-10.4v-0.3h5.4c0,2.5,0.8,4.5,2.4,5.7l2.5-10.1c-6.9-1.2-9.8-4.1-9.8-9v-0.4c0-6.2,5-9.9,12.5-9.9
									c0.7,0,1.4,0.1,2,0.1l1.4-5.9h4.4L99.5,620.7z M91.7,634.7l2.5-10.4c-0.3-0.1-0.6-0.1-0.8-0.1h-0.2c-3.8,0-6.8,1.8-6.9,5
									v0.3C86.3,632.2,87.6,633.9,91.7,634.7z M100.6,645.3V645c0-3-1.8-4.6-5.8-5.4l-2.7,11c0.4,0.1,0.8,0.1,1.3,0.1h0.2
									C97.7,650.8,100.5,648.8,100.6,645.3z"/>
							</g>
						</g>
					</g>
				</g>
			</g>
			<path class="st19" d="M135.4,605.9c-2.8,1.4-5.6,2.8-8.5,4.2c-24.6,12.2-51.7,25.5-75.8,37.2c-2.9,1.4-5.8,2.8-8.5,4.2
				c-1-3.7-1.6-7.5-1.8-11.5c3.1-2,6.2-3.9,9.4-5.9c18.8-11.9,39.4-24.7,58.9-36.9c3.2-2,6.3-3.9,9.4-5.9
				C125.1,594.9,130.9,599.9,135.4,605.9z"/>
			<path class="st19" d="M145.9,637.8c0,1.8-0.1,3.5-0.3,5.3c-3,0.6-6.2,1.3-9.7,2c-22.9,4.7-55,11.2-79.1,15.8
				c-3.4,0.7-6.7,1.3-9.7,1.9c-0.7-1.3-1.4-2.7-2-4c2.8-0.9,5.8-1.8,8.9-2.8c24.5-7.8,58.5-18.2,82-25.5c3.2-1,6.2-1.9,9-2.8
				C145.6,631,145.9,634.3,145.9,637.8z"/>
		</g>
	</g>
</g>
<g>
	<g>
		<g id="XMLID_13_">
			<g>
				<path class="st16" d="M479.8,159.3c-6.4-5.2-13.7-8.6-21.4-10.3c-7.3-1.6-15-1.7-22.4-0.1c-8.2,1.7-16.2,5.5-23.1,11.3
					c-22.2,18.8-25,51.9-6.3,74.2c0.6,0.7,1.2,1.4,1.8,2c2.7,2.9,5.7,5.4,8.8,7.6c2.1,1.5,4.4,2.7,6.6,3.8c1.4,0.7,2.7,1.3,4.1,1.8
					c17.3,6.6,37.6,3.9,52.7-8.9c20.8-17.6,24.6-47.9,9.5-70c-1-1.4-2-2.8-3.2-4.2C484.9,163.7,482.4,161.4,479.8,159.3z
					 M474.8,233.4c-11.7,9.8-27,12.5-40.5,8.3c-1.8-0.5-3.6-1.2-5.4-2c-2.7-1.2-5.3-2.8-7.8-4.6c-2.7-2-5.1-4.3-7.3-6.9
					c-0.7-0.8-1.4-1.7-2-2.6c-13.2-18.2-10.3-43.7,7.2-58.5c4.2-3.5,8.8-6.1,13.7-7.8c7.1-2.5,14.7-3,22-1.7s14.2,4.5,20.1,9.5
					c1.8,1.5,3.6,3.3,5.2,5.2s3,3.9,4.3,6C494.7,196.2,491.2,219.6,474.8,233.4z"/>
				<path class="st17" d="M418.7,167c18.4-15.5,45.9-13.2,61.5,5.2c15.5,18.4,13.2,45.9-5.2,61.5c-18.4,15.5-45.9,13.2-61.5-5.2
					C398,210,400.3,182.5,418.7,167z M475.8,175.9c-13.5-16-37.4-18-53.4-4.5s-18,37.4-4.5,53.4s37.4,18,53.4,4.5
					C487.3,215.8,489.3,191.9,475.8,175.9z"/>
				
					<ellipse transform="matrix(0.3903 -0.9207 0.9207 0.3903 88.0632 533.535)" class="st18" cx="446.9" cy="200.3" rx="38.4" ry="38.4"/>
			</g>
		</g>
		<g>
			<g>
				<g>
					<g>
						<path class="st17" d="M440.7,183.5c4.3-1.5,8.3,0,11.6,3.9l0.5,0.6l-4.1,3.5c-1.9-2.2-3.8-3.3-5.7-3.4l4.4,8.8
							c5.8-3.5,10.2-3.8,13.8,0.5l0.3,0.3c4.1,4.9,3.1,10.8-3,15.9c-0.6,0.5-1.3,1-1.9,1.5l2.8,5.5l-3.3,2.8l-3.2-6.4
							c-4.5,1.4-8.6,0.1-11.7-3.6l-0.2-0.2l4.1-3.5c1.6,1.9,3.5,2.9,5.5,2.8l-4.7-9.3c-6,3.6-10.1,3.2-13.3-0.5l-0.3-0.3
							c-4-4.7-2.6-10.8,3.1-15.6c0.5-0.4,1.1-0.8,1.6-1.2l-2.7-5.5l3.3-2.8L440.7,183.5z M443.8,199.2l-4.8-9.5
							c-0.2,0.1-0.5,0.3-0.7,0.5l-0.2,0.1c-2.9,2.5-4,5.8-2,8.3l0.2,0.2C438.1,200.8,440.2,201.2,443.8,199.2z M457.5,201.5
							l-0.2-0.2c-1.9-2.3-4.3-2.3-7.9-0.4l5.1,10.1c0.4-0.2,0.7-0.5,1-0.8l0.2-0.1C458.8,207.5,459.7,204.2,457.5,201.5z"/>
					</g>
				</g>
			</g>
		</g>
	</g>
	<path class="st19" d="M458.4,149c-1.2,2.9-2.5,5.8-3.8,8.7c-10.8,25.2-22.8,52.9-33.6,77.5c-1.3,3-2.6,5.9-3.8,8.7
		c-3.2-2.2-6.1-4.7-8.8-7.6c1.1-3.5,2.2-7,3.3-10.6c6.6-21.2,13.9-44.4,20.9-66.3c1.1-3.6,2.2-7.1,3.4-10.6
		C443.4,147.3,451.1,147.3,458.4,149z"/>
	<path class="st19" d="M487.1,166.4c1.2,1.4,2.2,2.8,3.2,4.2c-1.9,2.4-3.9,5-6.1,7.8c-14.4,18.4-34.6,44.2-50,63.4
		c-2.2,2.7-4.2,5.3-6.2,7.7c-1.4-0.5-2.8-1.1-4.1-1.8c1.6-2.5,3.2-5.1,5-7.9c13.6-21.8,32.7-51.8,45.9-72.5c1.8-2.8,3.5-5.5,5-7.9
		C482.4,161.4,484.9,163.7,487.1,166.4z"/>
</g>
<g>
	<g>
		<g id="XMLID_14_">
			<g>
				<path class="st16" d="M590.7,168.7c1.3-5.1,1.4-10.4,0.3-15.3c-1-4.8-3-9.3-5.9-13.2c-3.2-4.4-7.5-8-12.8-10.5
					c-17-8-37.2-0.8-45.2,16.2c-0.3,0.5-0.5,1.1-0.7,1.6c-1,2.4-1.7,4.8-2.1,7.2c-0.3,1.6-0.4,3.3-0.5,4.9c0,1,0,1.9,0.1,2.9
					c0.7,11.9,7.8,23.1,19.4,28.6c15.9,7.5,34.7,1.6,43.6-13.2c0.6-1,1.1-2,1.6-3C589.5,172.8,590.2,170.8,590.7,168.7z
					 M545.8,185.6c-8.9-4.2-14.5-12.5-15.8-21.6c-0.2-1.2-0.3-2.5-0.3-3.7c0-1.9,0.2-3.9,0.6-5.8c0.4-2.1,1.1-4.1,2.1-6.2
					c0.3-0.6,0.6-1.3,1-1.9c7.2-12.6,22.9-17.7,36.3-11.4c3.2,1.5,6,3.5,8.3,6c3.4,3.5,5.7,7.8,6.9,12.5c1.2,4.6,1.1,9.6-0.2,14.4
					c-0.4,1.5-1,3-1.7,4.4c-0.7,1.5-1.5,2.8-2.4,4.1C573,187.3,558.3,191.5,545.8,185.6z"/>
				<path class="st17" d="M569.9,134.8c14.1,6.7,20.1,23.4,13.4,37.5c-6.7,14.1-23.4,20.1-37.5,13.4c-14.1-6.7-20.1-23.4-13.4-37.5
					C539,134.2,555.8,128.2,569.9,134.8z M579.9,170.8c5.8-12.2,0.6-26.8-11.6-32.6c-12.2-5.8-26.8-0.6-32.6,11.6
					c-5.8,12.2-0.6,26.8,11.6,32.6C559.5,188.2,574.1,183,579.9,170.8z"/>
				
					<ellipse transform="matrix(0.6337 -0.7736 0.7736 0.6337 80.3431 490.2187)" class="st18" cx="557.8" cy="160.3" rx="24.8" ry="24.8"/>
			</g>
		</g>
		<g>
			<g>
				<g>
					<g>
						<path class="st17" d="M566,152.2c2.1,2.1,2.2,4.9,0.8,7.9l-0.2,0.5l-3.1-1.5c0.8-1.7,1-3.1,0.4-4.3l-4,5c3.6,2.5,5,5,3.4,8.2
							l-0.1,0.2c-1.8,3.7-5.5,4.7-10.2,2.5c-0.5-0.2-0.9-0.5-1.4-0.7l-2.5,3.1l-2.5-1.2l2.9-3.6c-2.1-2.2-2.4-5-1-7.9l0.1-0.2
							l3.1,1.5c-0.7,1.5-0.7,2.8-0.2,4l4.2-5.2c-3.7-2.6-4.6-5.1-3.2-8l0.1-0.2c1.7-3.6,5.7-4.4,10-2.4c0.4,0.2,0.8,0.4,1.1,0.6
							l2.5-3.1l2.5,1.2L566,152.2z M557.6,158.2l4.3-5.4c-0.1-0.1-0.3-0.2-0.5-0.3l-0.1-0.1c-2.2-1.1-4.5-0.8-5.4,1.1l-0.1,0.2
							C555.2,155.3,555.5,156.6,557.6,158.2z M559.9,166.9l0.1-0.2c0.8-1.7,0.2-3.2-1.9-4.7l-4.6,5.7c0.2,0.1,0.5,0.3,0.7,0.4
							l0.1,0.1C556.8,169.3,559,168.9,559.9,166.9z"/>
					</g>
				</g>
			</g>
		</g>
	</g>
	<path class="st19" d="M591.1,153.3c-2,0-4.1,0.1-6.1,0.1c-17.7,0.4-37.2,0.8-54.5,1c-2.1,0-4.1,0.1-6.1,0.1
		c0.4-2.4,1.1-4.8,2.1-7.2c2.3-0.3,4.7-0.6,7.1-0.9c14.3-1.8,29.8-3.7,44.5-5.5c2.4-0.3,4.8-0.6,7.1-0.9
		C588.1,144.1,590.1,148.6,591.1,153.3z"/>
	<path class="st19" d="M588.5,174.8c-0.5,1-1,2-1.6,3c-1.9-0.5-4-1-6.2-1.5c-14.7-3.5-35.2-8.5-50.6-12.4c-2.2-0.5-4.2-1.1-6.2-1.6
		c-0.1-1-0.1-1.9-0.1-2.9c1.9,0.3,3.9,0.5,6,0.8c16.5,2.2,39.2,5.4,54.9,7.6c2.1,0.3,4.2,0.6,6,0.8
		C590.2,170.8,589.5,172.8,588.5,174.8z"/>
</g>
<g>
	<g>
		<path class="st20" d="M702.6,502.2c-0.4,4.2-7.3,2.4-9.8,1.2c-3.7-1.8-7.6-6.6-7.2-8.2s8.8,3.6,9.2,3.3c0.4-0.3-3.8-2-3.3-3.5
			c0.5-1.4,6.3,0.2,8.4,1.7C701.9,498.3,702.9,499.5,702.6,502.2z"/>
		<path class="st20" d="M759.6,464.8c1.9,1.4,2.7,3.8,2.2,6.1c-1.9,10.3-8.8,44.8-16.5,44c-9.1-1-1.1-31.2,2.3-39.7
			C750.4,468.2,754.9,461.6,759.6,464.8z"/>
		<path class="st20" d="M748.1,509.2c-0.8-1.8-2.5-3-4.4-3.4c-9.5-2-43.9-9-46.4-5.6c-2.9,4,46.3,16.4,48.2,14.7
			C747.1,513.4,749.3,512.1,748.1,509.2z"/>
		
			<linearGradient id="SVGID_10_" gradientUnits="userSpaceOnUse" x1="707.7" y1="210.2717" x2="763.6409" y2="210.2717" gradientTransform="matrix(1 0 0 -1 0 700)">
			<stop  offset="6.182800e-02" style="stop-color:#FD8200"/>
			<stop  offset="1" style="stop-color:#FF5700"/>
		</linearGradient>
		<path class="st21" d="M762.5,477.6c0,0-7.2,29.3-12.6,37.2c-4.6,6.7-42.2-6.5-42.2-6.5l2.4-10.2c0,0,29.2,5.3,29.7,4.2
			c0.5-1.1,2.9-17.7,5.9-25.1s7.2-16.3,13.9-14.1S762.5,477.6,762.5,477.6z"/>
	</g>
	<path class="st22" d="M757.9,461.7c0,0-4.9-8.4-3.3-20c0.5-3.4,1.2-6.4,2.4-8.9c2.7-6,7.9-9.1,18.2-7.8
		c14.6,1.8,10.4,18.6,15.5,26.7s25.3,7.3,23.1,20.9c-2.1,13.7-20.6,25.6-20.6,25.6l-36.8-26.6L757.9,461.7z"/>
	<path class="st20" d="M770.5,544.2c4.4,0.3,7.7,4.5,7.2,9.2c-0.4,3.7-1.5,8.6-3.9,14.5c-6,14.8-9.1,33.5-15.3,34.7
		s-10.5-9.3-7.3-24.6c2.8-13.8,4.4-31.5,8.7-33.2C762.2,543.9,766.7,543.9,770.5,544.2z"/>
	<path class="st20" d="M791.8,540.4c4.2-1.3,8.8,1.5,10,6.1c0.9,3.6,1.7,8.5,1.5,14.9c-0.4,15.9,3.3,34.6-2.1,37.9
		c-5.4,3.3-13.1-5-15.6-20.4c-2.2-13.9-7-31-3.6-34.2C783.9,543.1,788.1,541.6,791.8,540.4z"/>
	<path class="st20" d="M753.8,593.5c11.8-8.5,11.1,50.5,8,66.5s-6.7,2.8-9.1-22.7C750.4,611.8,749.2,596.8,753.8,593.5z"/>
	<path class="st20" d="M795.5,593.9c10.3-10.3,19,48.1,18.4,64.4c-0.6,16.2-6.2,3.8-12.5-20.9C795,612.6,791.4,598,795.5,593.9z"/>
	<polygon class="st23" points="763.9,657.3 763.2,666.9 755.6,666.9 755.2,657.9 	"/>
	<polygon class="st23" points="814,651.2 816.3,663.1 809,665 805.8,654.1 	"/>
	<path class="st22" d="M755.2,543.8c0,0-8.1,37-7.3,56.7c0.8,19.6,6.5,58.4,6.5,58.4h12.9c0,0,0.2-54.7,0.8-60.3
		s10.7-29.2,10.7-29.2l25.8,84.7l11.8-1.4c0,0-6.2-44-8.1-54.7c-2-10.7,3.4-38.4-5.3-56.1"/>
	<g id="XMLID_45_">
		<g>
			
				<linearGradient id="SVGID_11_" gradientUnits="userSpaceOnUse" x1="744.0573" y1="197.1168" x2="804.1356" y2="197.1168" gradientTransform="matrix(1 0 0 -1 0 700)">
				<stop  offset="6.182800e-02" style="stop-color:#FD8200"/>
				<stop  offset="1" style="stop-color:#FF5700"/>
			</linearGradient>
			<path class="st24" d="M797.6,489.3c4.4,17.4,6.6,52.8,6.6,52.8c-17.8,11.2-50.5,2.7-50.5,2.7s-0.2-9.5-0.1-20.6
				c0.1-18.2-8.8-22.9-9.4-29c-0.6-6.2,2.4-8.4,3.9-13.6s3-14.5,5.4-17.1c1.4-1.5,4.2-2.7,6.3-3.5l0.1,0.2c0,0-2.4,12.3,4.3,12.4
				c9.7,0.1,12.9-7.9,13.2-15.4v-0.3C790.5,457.2,793.4,472.8,797.6,489.3z"/>
			<path class="st20" d="M777.4,457.9v0.3c-0.3,7.6-3.5,15.5-13.2,15.4c-6.8-0.1-4.3-12.4-4.3-12.4l-0.1-0.2
				c0.4-0.2,0.8-0.3,1.2-0.4c1-0.3,1.7-0.5,1.7-0.5V454c0,0-3.5,1.4-5.7-2.7c-2.3-4.1-1.5-22.2,12.6-19.2
				c14.2,2.9,5.6,18.9,5.6,18.9v7.2c0.3-0.1,0.6-0.1,0.9-0.1C776.5,458,776.9,457.9,777.4,457.9z"/>
		</g>
	</g>
	<g>
		
			<ellipse transform="matrix(0.7071 -0.7071 0.7071 0.7071 -121.5234 540.4307)" class="st25" cx="591.6" cy="416.9" rx="75.6" ry="75.6"/>
		<g class="st26">
			<path class="st27" d="M642.1,431.8c2,0,3.8-1.4,4.3-3.5c3-14.6,0.2-29.5-8-42s-20.7-21-35.4-24.1c-14.6-3-29.5-0.2-42,8
				c-2,1.3-2.6,4-1.3,6s4,2.6,6,1.3c10.5-6.9,23.1-9.3,35.5-6.7c25.5,5.3,41.9,30.3,36.6,55.8c-0.5,2.4,1,4.7,3.4,5.1
				C641.5,431.7,641.8,431.8,642.1,431.8z"/>
		</g>
		<g>
			
				<linearGradient id="SVGID_12_" gradientUnits="userSpaceOnUse" x1="647.3" y1="184.05" x2="831.3" y2="184.05" gradientTransform="matrix(1 0 0 -1 0 700)">
				<stop  offset="0" style="stop-color:#00AAF6"/>
				<stop  offset="1" style="stop-color:#0078EF"/>
			</linearGradient>
			<polygon class="st28" points="831.3,563.9 818.6,582.9 684.3,492.7 647.3,468 660,449 696.9,473.7 			"/>
		</g>
		<path class="st20" d="M685.6,495.2c0,0,2.4-5.9,8.4-1.9c5.9,4,5.3,10.6,5.3,10.6L685.6,495.2z"/>
		<g>
			
				<linearGradient id="SVGID_13_" gradientUnits="userSpaceOnUse" x1="728.937" y1="155.4" x2="835.163" y2="155.4" gradientTransform="matrix(1 0 0 -1 0 700)">
				<stop  offset="0" style="stop-color:#00AAF6"/>
				<stop  offset="1" style="stop-color:#0078EF"/>
			</linearGradient>
			<path class="st29" d="M815.8,586l-84.9-56.9c-2-1.4-2.6-4.1-1.2-6.2l12.4-18.5c1.4-2,4.1-2.6,6.2-1.2l84.9,56.9
				c2,1.4,2.6,4.1,1.2,6.2L822,584.8C820.6,586.8,817.8,587.4,815.8,586z"/>
		</g>
		
			<linearGradient id="SVGID_14_" gradientUnits="userSpaceOnUse" x1="647.3" y1="229.15" x2="696.9" y2="229.15" gradientTransform="matrix(1 0 0 -1 0 700)">
			<stop  offset="6.182800e-02" style="stop-color:#F99900"/>
			<stop  offset="1" style="stop-color:#FF7F34"/>
		</linearGradient>
		<polygon class="st30" points="696.9,473.7 684.3,492.7 647.3,468 660,449 		"/>
		<g>
			
				<linearGradient id="SVGID_15_" gradientUnits="userSpaceOnUse" x1="506.9837" y1="283.1" x2="676.2163" y2="283.1" gradientTransform="matrix(1 0 0 -1 0 700)">
				<stop  offset="6.182800e-02" style="stop-color:#F99900"/>
				<stop  offset="1" style="stop-color:#FF7F34"/>
			</linearGradient>
			<path class="st31" d="M544.5,487.2c-38.8-26-49.2-78.6-23.2-117.4s78.6-49.2,117.4-23.2c38.8,26,49.2,78.6,23.2,117.4
				S583.3,513.2,544.5,487.2z M633,355.1c-34.1-22.8-80.4-13.7-103.2,20.4s-13.7,80.4,20.4,103.2c34.1,22.8,80.4,13.7,103.2-20.4
				S667.1,377.9,633,355.1z"/>
		</g>
	</g>
	<path class="st22" d="M757,432.8c0,0,1.4,7.5,7.4,8.3s9.3,0.9,9,3.3s-2.1,13.4,1.5,13.7c3.7,0.3,10.9-2.8,10.9-2.8l-4.3-24
		l-18.2-1.7L757,432.8z"/>
	<path class="st22" d="M755.6,664.3c0,0-2.7,3.4-8.6,7.8c-5.9,4.4-7.4,3.4-7.6,5.1s24.3,0.4,24.3,0.4l-0.3-13.6
		C763.5,664,755.6,664,755.6,664.3z"/>
	<path class="st22" d="M808,660.7c0,0-1.6,4-5.9,10c-4.3,6-6,5.5-5.7,7.1c0.4,1.6,23.3-6.9,23.3-6.9l-4.3-12.9
		C815.5,658,807.9,660.4,808,660.7z"/>
	
		<linearGradient id="SVGID_16_" gradientUnits="userSpaceOnUse" x1="759.4268" y1="234.1995" x2="777.3757" y2="234.1995" gradientTransform="matrix(1 0 0 -1 0 700)">
		<stop  offset="6.182800e-02" style="stop-color:#FD8200"/>
		<stop  offset="1" style="stop-color:#FF5700"/>
	</linearGradient>
	<path class="st32" d="M777.4,458.2c-0.3,7.6-3.5,15.5-13.2,15.4c-6.8-0.1-4.3-12.4-4.3-12.4l-0.1-0.2c0.4-0.2,0.8-0.3,1.2-0.4
		c-0.3,2.2-1.3,12,3.9,11.9c5.9-0.2,10.6-5.4,11.2-14.4c0.4-0.1,0.9-0.1,1.3-0.1L777.4,458.2z"/>
	<g>
		<path class="st20" d="M783.1,460.3c2.3,0,4.4,1.6,5.3,3.7c4.3,9.6,18.3,41.8,11.5,45.5c-8,4.4-18.7-25-20.7-33.9
			C777.5,468.2,777.4,460.2,783.1,460.3z"/>
		<g>
			<path class="st20" d="M773.1,543c3.7,2-0.4,8-1.8,10c-2.4,3.3-4.3,3.2-6.3,1.6c-1.2-1,1.9-5.3,1.7-5.7c-0.1-0.5-3.3,2.7-4.5,1.7
				s2.6-5.8,4.8-7.1C769.2,542.1,770.8,541.7,773.1,543z"/>
			<path class="st20" d="M797.4,503.6c-2,0-3.7,1.1-4.9,2.7c-5.5,8-25.1,37.1-22.8,40.7c2.6,4.2,32.8-36.6,31.9-39
				C800.9,506.2,800.5,503.6,797.4,503.6z"/>
		</g>
		
			<linearGradient id="SVGID_17_" gradientUnits="userSpaceOnUse" x1="776.9688" y1="204.4817" x2="803.2018" y2="204.4817" gradientTransform="matrix(1 0 0 -1 0 700)">
			<stop  offset="6.182800e-02" style="stop-color:#FD8200"/>
			<stop  offset="1" style="stop-color:#FF5700"/>
		</linearGradient>
		<path class="st33" d="M792.6,470c0,0,10.3,24.1,10.6,33.6c0.2,8.1-16.2,27.8-16.2,27.8l-8.6-6.1c0,0,12.6-17.5,12.3-18.6
			c-0.2-1.1-10.1-19.5-12-27.2s-3.7-17.4,3.1-19.6C788.6,457.7,792.6,470,792.6,470z"/>
	</g>
</g>
<g>
	<g>
		<g>
			<path class="st2" d="M712,121.1c-34.8,0-63.1,28.2-63.1,63.1s28.2,63.1,63.1,63.1c34.8,0,63.1-28.2,63.1-63.1
				S746.8,121.1,712,121.1z M712,225.4c-22.8,0-41.2-18.5-41.2-41.2S689.3,143,712,143c22.8,0,41.2,18.5,41.2,41.2
				S734.8,225.4,712,225.4z"/>
			<g>
				<path class="st11" d="M775.1,184.2c0,17.1-6.8,32.7-18,44.1l-15.4-15.4c7.2-7.4,11.6-17.5,11.6-28.6c0-22.8-18.5-41.2-41.2-41.2
					v-21.8C746.8,121.1,775.1,149.3,775.1,184.2z"/>
			</g>
		</g>
		<g>
			<g>
				
					<linearGradient id="SVGID_18_" gradientUnits="userSpaceOnUse" x1="708.7819" y1="528.8" x2="713.8946" y2="528.8" gradientTransform="matrix(1 0 0 -1 0 700)">
					<stop  offset="6.182800e-02" style="stop-color:#FD8200"/>
					<stop  offset="1" style="stop-color:#FF5700"/>
				</linearGradient>
				<circle class="st34" cx="711.3" cy="171.2" r="2.6"/>
				
					<linearGradient id="SVGID_19_" gradientUnits="userSpaceOnUse" x1="716.9" y1="530.55" x2="741.1296" y2="530.55" gradientTransform="matrix(1 0 0 -1 0 700)">
					<stop  offset="6.182800e-02" style="stop-color:#FD8200"/>
					<stop  offset="1" style="stop-color:#FF5700"/>
				</linearGradient>
				<rect x="716.9" y="169.1" class="st35" width="24.2" height="0.7"/>
				
					<linearGradient id="SVGID_20_" gradientUnits="userSpaceOnUse" x1="716.9" y1="527.25" x2="741.1296" y2="527.25" gradientTransform="matrix(1 0 0 -1 0 700)">
					<stop  offset="6.182800e-02" style="stop-color:#FD8200"/>
					<stop  offset="1" style="stop-color:#FF5700"/>
				</linearGradient>
				<rect x="716.9" y="172.4" class="st36" width="24.2" height="0.7"/>
			</g>
			<g>
				<circle class="st37" cx="711.3" cy="183.4" r="2.6"/>
				<rect x="716.9" y="181.5" class="st37" width="24.2" height="0.7"/>
				<rect x="716.9" y="184.8" class="st37" width="24.2" height="0.7"/>
			</g>
			<g>
				<circle class="st12" cx="711.3" cy="195.7" r="2.6"/>
				<rect x="716.9" y="193.4" class="st12" width="24.2" height="0.7"/>
				<rect x="716.9" y="196.8" class="st12" width="24.2" height="0.7"/>
			</g>
		</g>
	</g>
	
		<linearGradient id="SVGID_21_" gradientUnits="userSpaceOnUse" x1="683.4" y1="528.2" x2="699.0458" y2="528.2" gradientTransform="matrix(1 0 0 -1 0 700)">
		<stop  offset="6.182800e-02" style="stop-color:#FD8200"/>
		<stop  offset="1" style="stop-color:#FF5700"/>
	</linearGradient>
	<rect x="683.4" y="168" class="st38" width="15.6" height="7.6"/>
	<rect x="683.4" y="179.1" class="st37" width="15.6" height="7.6"/>
	<rect x="683.4" y="190.5" class="st12" width="15.6" height="7.6"/>
</g>
<path class="st0" d="M98.6,103.3c1-0.3,1.9-0.5,2.9-0.7c15.1-3.1,31.5,0,44.4,8.6c10.5,7,18.5,17.1,27.4,26.1
	c8.9,8.9,19.7,17.1,32.3,18.4c9.6,0.9,20.8-1.8,27.8,4.8c8.4,7.9,2.9,23-6.7,29.4c-13.5,9-26.8,5.3-40-1.1
	c-14.9-7.2-29.3-9.6-45.5-5.3c-14.3,3.8-29.5,9-43.6,4.4C80,182.2,63.3,166.5,61.7,147C59.9,125.1,79.1,108.4,98.6,103.3z"/>
<path class="st0" d="M1105.5,281.7c2.7-2.5,17.3-16.4,10.2-20.4c-6.8-3.8-9.9,14.8-10.6,19.5c-2.1-5.2-4.2-10.1-6.4-14.5
	c3.7-3.5,16.3-16.1,9.7-19.9c-6.3-3.5-9.4,12.2-10.4,18.3c-2.1-4.4-4.3-8.4-6.4-12.1c2-3.9,10.3-21.1,2.5-22.4
	c-7-1.2-4.8,14.3-3.6,20.5c-2.9-4.8-5.7-9-8.5-12.6c1.5-4.3,7-22.3-0.8-22.4c-7-0.1-2.8,14.3-0.7,20.5c-4-5-7.7-9-11.2-12.2
	c0.4-4.9,1.4-23.1-6.2-21.4c-6.5,1.5,0.1,13.5,3.8,19.3c-0.7-0.6-1.4-1.1-2-1.6c-3-2.4-5.9-4.1-8.5-5.6c-0.6-4.3-3.8-23.2-10.9-19.8
	c-6.4,3.1,4.2,14.2,8.8,18.7c-6.9-3.3-11.5-3.6-12.4-3.6c-4.4-4.1-16.3-14.7-19.6-8.2c-3.3,6.5,13,9,18.9,9.7
	c0.1,0.1,0.3,0.2,0.5,0.2c0.1,0,4.8,0.1,12,3.6c-6.1-0.4-21.8-0.7-20.2,6.3c1.8,7.8,18.3-3,21.8-5.4c2.6,1.4,5.5,3.2,8.6,5.6
	c1,0.8,2.1,1.7,3.2,2.6c-5.7-0.3-22.3-0.6-20.6,6.6c1.9,7.6,17.8-3,21.6-5.7c3.7,3.3,7.7,7.6,11.9,13.1c-5.1-0.3-22.9-0.9-21.1,6.5
	c1.9,7.7,18.2-3.2,21.7-5.7c2.9,3.8,5.9,8.3,8.8,13.3c-5-0.8-22.8-3.3-21.7,4.3c1.1,7.9,18.4-1.4,22.2-3.5c2.3,4,4.7,8.4,7,13.3
	c-4.5-1-22.9-4.6-22.2,3.2c0.7,8.1,19.1-0.8,22.5-2.5c2.1,4.4,4.2,9.1,6.2,14.3c-4.6-1-22.8-4.6-22.1,3.2c0.7,8,18.8-0.6,22.4-2.5
	c1.3,3.4,2.6,6.9,3.9,10.5c0.1,0.4,0.5,0.6,0.9,0.5c0.1,0,0.1,0,0.1,0c0.4-0.1,0.7-0.6,0.5-1.1
	C1108.1,288.6,1106.8,285.1,1105.5,281.7z"/>
</svg>
