<?xml version="1.0" encoding="utf-8"?>
<!-- Generator: Adobe Illustrator 25.3.1, SVG Export Plug-In . SVG Version: 6.00 Build 0)  -->
<svg version="1.1" id="Layer_1" xmlns="http://www.w3.org/2000/svg" xmlns:xlink="http://www.w3.org/1999/xlink" x="0px" y="0px"
	 viewBox="0 0 800 800" style="enable-background:new 0 0 800 800;" xml:space="preserve">
<style type="text/css">
	.st0{fill:#303841;}
</style>
<g>
	<path class="st0" d="M557.8,171.5H498c-2.2-24.2-22.5-43.2-47.2-43.2c-24.7,0-45.1,19-47.2,43.2H242.2c-14,0-25.4,11.4-25.4,25.4
		V229c0,5.1,4.2,9.3,9.3,9.3h199.2v90.1v50.5c0,20.1,16.4,36.4,36.4,36.4s36.4-16.4,36.4-36.4V238.3h11.3c3.8,0,6.8,3.1,6.8,6.8
		v417.3c0,5.1,4.2,9.3,9.3,9.3h32.2c14,0,25.4-11.4,25.4-25.4V196.8C583.2,182.8,571.8,171.5,557.8,171.5z M564.6,646.4
		c0,3.8-3.1,6.8-6.8,6.8h-22.9V245.1c0-14-11.4-25.4-25.4-25.4h-11.3V190h59.6c3.8,0,6.8,3.1,6.8,6.8L564.6,646.4L564.6,646.4z
		 M443.9,328.4v-90.1h12.5v90.1c0,5.1,4.2,9.3,9.3,9.3s9.3-4.2,9.3-9.3v-90.1h4.8v140.5c0,9.9-8,17.9-17.9,17.9s-17.9-8-17.9-17.9
		L443.9,328.4L443.9,328.4z M235.4,196.8c0-3.8,3.1-6.8,6.8-6.8h237.4v29.8h-5c-1.8-11.9-12.1-21-24.5-21s-22.7,9.1-24.5,21H235.4
		V196.8z M450.1,217.3c2,0,3.8,1,5,2.4h-9.9C446.3,218.3,448.1,217.3,450.1,217.3z M422.2,171.5c2.1-13.9,14.1-24.6,28.6-24.6
		s26.5,10.7,28.6,24.6H422.2z"/>
	<path class="st0" d="M228.1,306.4h143.7c5.1,0,9.3-4.2,9.3-9.3s-4.2-9.3-9.3-9.3H228.1c-5.1,0-9.3,4.2-9.3,9.3
		S223,306.4,228.1,306.4z"/>
	<path class="st0" d="M228.1,364h143.7c5.1,0,9.3-4.2,9.3-9.3s-4.2-9.3-9.3-9.3H228.1c-5.1,0-9.3,4.2-9.3,9.3S223,364,228.1,364z"/>
	<path class="st0" d="M228.1,421.6h143.7c5.1,0,9.3-4.2,9.3-9.3s-4.2-9.3-9.3-9.3H228.1c-5.1,0-9.3,4.2-9.3,9.3
		C218.8,417.4,223,421.6,228.1,421.6z"/>
	<path class="st0" d="M475.2,460.6H228.1c-5.1,0-9.3,4.2-9.3,9.3s4.2,9.3,9.3,9.3h247.1c5.1,0,9.3-4.2,9.3-9.3
		C484.5,464.8,480.4,460.6,475.2,460.6z"/>
	<path class="st0" d="M475.2,518.2H228.1c-5.1,0-9.3,4.2-9.3,9.3s4.2,9.3,9.3,9.3h247.1c5.1,0,9.3-4.2,9.3-9.3
		S480.4,518.2,475.2,518.2z"/>
	<path class="st0" d="M475.2,575.8H228.1c-5.1,0-9.3,4.2-9.3,9.3s4.2,9.3,9.3,9.3h247.1c5.1,0,9.3-4.2,9.3-9.3
		S480.4,575.8,475.2,575.8z"/>
	<path class="st0" d="M475.2,633.4H228.1c-5.1,0-9.3,4.2-9.3,9.3c0,5.1,4.2,9.3,9.3,9.3h247.1c5.1,0,9.3-4.2,9.3-9.3
		C484.5,637.6,480.4,633.4,475.2,633.4z"/>
</g>
</svg>
