<?xml version="1.0" encoding="utf-8"?>
<!-- Generator: Adobe Illustrator 25.3.1, SVG Export Plug-In . SVG Version: 6.00 Build 0)  -->
<svg version="1.1" id="Layer_1" xmlns="http://www.w3.org/2000/svg" xmlns:xlink="http://www.w3.org/1999/xlink" x="0px" y="0px"
	 viewBox="0 0 800 800" style="enable-background:new 0 0 800 800;" xml:space="preserve">
<style type="text/css">
	.st0{fill:#38464F;}
	.st1{fill:#FFFFFF;}
	.st2{fill:#D7D7D7;}
	.st3{fill:#62CDF1;}
	.st4{fill:#EB4E3D;}
	.st5{fill:#00ADB5;}
	.st6{fill:#303841;}
	.st7{fill:#007CFF;}
	.st8{opacity:0.8;fill:#FFFFFF;enable-background:new    ;}
	.st9{fill:#FF5722;}
	.st10{opacity:0.3;enable-background:new    ;}
	.st11{opacity:0.4;enable-background:new    ;}
	.st12{opacity:0.2;enable-background:new    ;}
	.st13{opacity:0.6;fill:#FFFFFF;}
	.st14{opacity:0.5;fill:#FFFFFF;}
	.st15{opacity:0.3;fill:#FFFFFF;}
	.st16{opacity:0.2;fill:#EEEEEE;}
	.st17{fill:#1A2E35;}
	.st18{opacity:0.2;}
	.st19{opacity:0.6;}
	.st20{fill:#EEEEEE;}
</style>
<g>
	<circle class="st6" cx="400" cy="400" r="393.26"/>
	<g>
		<g>
			<path class="st5" d="M264.31,615.56h-78.7v-37.65c0-0.71,0.57-1.28,1.28-1.28h76.13c0.71,0,1.28,0.57,1.28,1.28V615.56z"/>
			<path class="st5" d="M380.56,615.56h-78.7V458.54c0-0.71,0.57-1.28,1.28-1.28h76.13c0.71,0,1.28,0.57,1.28,1.28V615.56z"/>
			<path class="st5" d="M496.81,615.56h-78.7V484.49c0-0.71,0.57-1.28,1.28-1.28h76.13c0.71,0,1.28,0.57,1.28,1.28V615.56z"/>
			<path class="st5" d="M613.06,615.56h-78.7V352.14c0-0.71,0.57-1.28,1.28-1.28h76.13c0.71,0,1.28,0.57,1.28,1.28V615.56z"/>
		</g>
		<polygon class="st7" points="613.4,165.02 593.06,172.11 563.15,182.47 577.71,193.36 435.49,389.63 309.68,333.22 153.35,513.84 
			183.86,538.8 320.3,381.1 448.61,438.57 609.33,216.71 622.05,226.29 624.81,161.09 		"/>
		<g>
			<path class="st13" d="M264.31,615.56h-78.7v-37.65c0-0.71,0.57-1.28,1.28-1.28h76.13c0.71,0,1.28,0.57,1.28,1.28V615.56z"/>
			<path class="st14" d="M380.56,615.56h-78.7V458.54c0-0.71,0.57-1.28,1.28-1.28h76.13c0.71,0,1.28,0.57,1.28,1.28V615.56z"/>
			<path class="st15" d="M496.81,615.56h-78.7V484.49c0-0.71,0.57-1.28,1.28-1.28h76.13c0.71,0,1.28,0.57,1.28,1.28V615.56z"/>
			<path class="st16" d="M613.06,615.56h-78.7V352.14c0-0.71,0.57-1.28,1.28-1.28h76.13c0.71,0,1.28,0.57,1.28,1.28V615.56z"/>
		</g>
		<polygon class="st9" points="613.4,165.02 593.06,172.11 563.15,182.47 577.71,193.36 435.49,389.63 309.68,333.22 153.35,513.84 
			183.86,538.8 320.3,381.1 448.61,438.57 609.33,216.71 622.05,226.29 624.81,161.09 		"/>
		<path class="st17" d="M634.98,638.91H170.45c-6.45,0-11.68-5.23-11.68-11.68l0,0c0-6.45,5.23-11.68,11.68-11.68h464.52
			c6.45,0,11.68,5.23,11.68,11.68l0,0C646.65,633.68,641.43,638.91,634.98,638.91z"/>
		<path class="st15" d="M634.98,638.91H170.45c-6.45,0-11.68-5.23-11.68-11.68l0,0c0-6.45,5.23-11.68,11.68-11.68h464.52
			c6.45,0,11.68,5.23,11.68,11.68l0,0C646.65,633.68,641.43,638.91,634.98,638.91z"/>
	</g>
</g>
</svg>
