<?xml version="1.0" standalone="no"?>
<!DOCTYPE svg PUBLIC "-//W3C//DTD SVG 20010904//EN"
 "http://www.w3.org/TR/2001/REC-SVG-20010904/DTD/svg10.dtd">
<svg version="1.0" xmlns="http://www.w3.org/2000/svg"
 width="900.000000pt" height="498.000000pt" viewBox="0 0 900.000000 498.000000"
 preserveAspectRatio="xMidYMid meet">
<metadata>
Created by potrace 1.10, written by Peter Selinger 2001-2011
</metadata>
<g transform="translate(0.000000,498.000000) scale(0.100000,-0.100000)"
fill="#ffffff" stroke="none">
<path d="M2488 4819 c-79 -74 -176 -165 -217 -204 -41 -38 -86 -81 -101 -95
-15 -14 -65 -61 -111 -105 -46 -44 -147 -138 -224 -210 -76 -71 -182 -171
-235 -221 -52 -49 -120 -113 -150 -142 l-55 -51 67 -66 c37 -36 71 -65 74 -65
4 0 42 33 83 73 42 39 141 133 221 207 79 74 189 178 245 231 55 52 172 162
260 245 88 82 184 171 213 199 77 72 78 73 120 33 102 -96 190 -178 213 -199
15 -13 95 -89 179 -169 84 -80 165 -156 180 -170 15 -14 56 -52 91 -85 35 -33
135 -127 222 -210 87 -82 162 -151 166 -153 5 -1 39 26 77 62 l69 64 -76 74
c-41 40 -104 100 -140 132 -35 33 -111 105 -170 160 -58 56 -139 132 -180 170
-40 38 -110 103 -154 145 -85 81 -338 319 -443 417 -35 32 -68 60 -73 62 -4 2
-73 -56 -151 -129z"/>
<path d="M1175 3584 c-33 -31 -89 -84 -125 -118 -36 -33 -130 -122 -209 -196
-80 -74 -163 -153 -186 -175 -140 -134 -218 -208 -280 -265 -231 -213 -355
-336 -355 -350 0 -10 66 -80 147 -156 181 -171 185 -175 264 -248 35 -33 109
-103 164 -155 56 -53 166 -157 245 -231 149 -139 284 -267 352 -332 21 -21 44
-38 50 -38 7 0 41 28 76 61 52 52 60 64 50 77 -13 15 -115 114 -252 242 -38
36 -83 79 -100 95 -18 17 -101 95 -186 175 -203 190 -286 268 -324 305 -18 17
-69 65 -114 107 -61 57 -82 83 -82 102 0 14 6 29 14 33 8 4 88 78 177 163 90
85 198 186 239 225 41 38 111 104 155 146 128 121 242 228 360 338 61 57 113
109 118 116 7 14 -107 135 -128 135 -5 0 -37 -25 -70 -56z"/>
<path d="M3950 3574 l-65 -65 25 -21 c14 -11 99 -91 189 -177 91 -86 172 -163
181 -171 29 -26 404 -379 550 -516 41 -39 90 -84 108 -99 42 -35 40 -56 -5
-95 -33 -29 -268 -248 -359 -335 -17 -16 -62 -59 -100 -95 -201 -188 -254
-238 -413 -389 l-173 -165 66 -63 c36 -35 68 -63 72 -63 12 0 106 87 469 430
125 119 245 232 265 250 9 8 86 80 171 160 84 80 193 181 240 225 48 44 87 87
87 95 0 8 -35 47 -77 85 -42 39 -146 135 -230 215 -85 80 -167 156 -181 170
-15 14 -60 57 -101 95 -41 39 -148 140 -239 225 -90 85 -200 189 -245 231
-105 100 -151 139 -162 139 -5 0 -38 -30 -73 -66z"/>
<path d="M3425 3193 c-56 -7 -75 -13 -75 -26 1 -6 63 -42 138 -79 195 -95 329
-214 391 -346 12 -26 26 -54 31 -63 4 -9 14 -50 21 -91 16 -97 0 -195 -45
-281 -36 -70 -128 -164 -205 -210 -30 -18 -56 -37 -58 -44 -3 -7 21 -14 69
-18 211 -20 463 89 533 228 24 47 38 172 30 261 -21 249 -162 453 -400 578
-28 15 -70 33 -95 42 -94 31 -268 57 -335 49z"/>
<path d="M1590 3174 c-36 -7 -73 -18 -82 -24 -10 -5 -23 -10 -30 -10 -21 0
-126 -57 -171 -92 -116 -90 -142 -135 -61 -104 167 64 404 64 554 -1 152 -64
212 -110 490 -376 157 -150 238 -227 546 -514 187 -175 237 -211 359 -256 86
-33 211 -57 289 -57 67 0 226 27 240 41 6 5 17 9 26 9 40 0 232 115 284 169
37 38 30 46 -20 27 -178 -68 -412 -68 -544 1 -14 7 -28 13 -32 13 -8 0 -109
60 -118 70 -3 3 -25 19 -49 35 -42 28 -237 193 -299 253 -16 15 -64 60 -108
101 -43 41 -117 111 -164 155 -268 255 -389 367 -450 412 -68 52 -184 114
-211 114 -8 0 -19 4 -24 9 -32 32 -317 48 -425 25z"/>
<path d="M5782 2533 l3 -578 80 0 80 0 3 229 c1 149 6 234 13 243 15 18 74 16
93 -2 9 -9 20 -35 26 -58 6 -23 15 -55 20 -72 5 -16 16 -55 24 -85 74 -273 62
-254 165 -258 l83 -3 -5 28 c-6 32 -15 63 -113 386 -31 101 -30 106 10 143 21
19 49 59 62 89 25 53 26 62 22 198 -5 156 -17 196 -75 248 -67 59 -82 63 -296
67 l-197 4 2 -579z m357 397 c36 -36 46 -87 39 -197 -5 -67 -8 -78 -35 -105
-26 -26 -40 -31 -97 -35 -98 -8 -96 -12 -96 187 0 91 3 170 7 173 3 4 39 7 79
7 67 0 75 -2 103 -30z"/>
<path d="M6557 3104 c-4 -4 -7 -258 -7 -564 0 -429 3 -560 13 -573 11 -16 36
-17 257 -15 l245 3 0 75 0 75 -165 5 -165 5 -3 164 c-2 112 1 168 9 177 9 11
42 14 135 14 l124 0 0 75 0 74 -132 3 -133 3 0 165 0 165 165 5 165 5 0 70 0
70 -251 3 c-138 1 -253 -1 -257 -4z"/>
<path d="M7190 3103 c0 -5 11 -37 24 -73 13 -36 26 -74 30 -85 4 -11 14 -35
22 -53 8 -18 14 -38 14 -45 0 -7 6 -24 14 -39 8 -15 17 -40 21 -57 4 -17 11
-33 16 -36 5 -4 9 -13 9 -22 0 -8 6 -29 14 -46 70 -159 71 -163 76 -437 l5
-255 79 -3 c57 -2 82 1 87 10 5 7 9 121 9 252 l0 240 91 245 c50 135 98 260
105 278 8 17 14 35 14 40 0 6 7 24 16 41 8 18 13 36 9 42 -3 5 -42 10 -85 10
-96 0 -83 18 -165 -232 -48 -147 -61 -178 -77 -178 -10 0 -20 6 -22 13 -29
100 -121 375 -129 385 -10 13 -177 18 -177 5z"/>
<path d="M8015 3098 c-3 -7 -4 -267 -3 -578 l3 -565 77 -3 c67 -2 78 0 87 17
7 12 10 207 8 577 l-2 559 -83 3 c-60 2 -84 -1 -87 -10z"/>
<path d="M8354 3097 c-3 -8 -4 -41 -2 -73 l3 -59 95 -5 95 -5 3 -489 c1 -349
5 -493 14 -503 8 -10 32 -13 87 -11 l76 3 5 500 5 500 80 3 c125 3 121 0 120
79 l-1 68 -287 3 c-237 2 -288 0 -293 -11z"/>
<path d="M3080 3058 c-96 -40 -123 -59 -238 -174 -104 -104 -122 -126 -113
-141 5 -10 52 -60 104 -112 l95 -93 98 89 c55 49 122 106 149 128 28 22 52 43
55 46 3 4 32 21 65 39 54 30 70 33 160 37 69 3 117 0 155 -11 30 -8 56 -14 57
-13 10 11 -98 98 -164 134 -128 68 -344 104 -423 71z"/>
<path d="M1405 2893 c-156 -32 -323 -132 -368 -219 -17 -33 -47 -183 -47 -234
0 -44 30 -192 41 -204 5 -6 9 -16 9 -24 0 -31 90 -162 160 -233 133 -135 264
-202 450 -229 128 -19 349 15 234 36 -22 3 -43 10 -49 13 -5 4 -37 18 -70 31
-152 59 -285 183 -363 335 -49 95 -61 130 -73 219 -15 106 0 198 43 276 45 81
137 163 208 185 14 4 36 15 49 24 l25 16 -40 7 c-42 7 -176 8 -209 1z"/>
<path d="M2279 2354 c-32 -34 -177 -166 -230 -209 -46 -38 -144 -83 -207 -95
-58 -12 -145 -9 -199 6 -33 9 -29 -12 9 -44 83 -70 187 -117 314 -141 123 -23
224 -5 302 53 73 54 254 241 250 259 -4 21 -177 207 -192 207 -7 0 -28 -16
-47 -36z"/>
<path d="M1460 1234 l-65 -64 60 -57 c33 -31 101 -96 150 -143 50 -47 160
-150 245 -230 188 -176 283 -265 324 -305 235 -224 454 -425 463 -425 9 0 35
24 268 244 261 246 308 290 325 306 9 8 90 85 181 170 90 85 195 185 234 221
38 36 106 100 150 142 l80 77 -67 66 c-37 36 -72 64 -77 62 -5 -1 -83 -73
-172 -158 -90 -85 -198 -186 -239 -225 -127 -119 -211 -198 -325 -306 -241
-228 -344 -323 -355 -327 -8 -3 -46 28 -120 98 -15 14 -60 57 -101 95 -41 39
-108 102 -149 140 -41 39 -149 140 -240 225 -90 85 -203 191 -249 235 -47 44
-120 113 -162 153 -41 39 -80 72 -85 72 -5 -1 -38 -30 -74 -66z"/>
</g>
</svg>
