<?xml version="1.0" encoding="utf-8"?>
<!-- Generator: Adobe Illustrator 25.3.1, SVG Export Plug-In . SVG Version: 6.00 Build 0)  -->
<svg version="1.1" id="Layer_1" xmlns="http://www.w3.org/2000/svg" xmlns:xlink="http://www.w3.org/1999/xlink" x="0px" y="0px"
	 viewBox="0 0 800 800" style="enable-background:new 0 0 800 800;" xml:space="preserve">
<style type="text/css">
	.st0{fill:#303841;}
</style>
<path class="st0" d="M451.4,263.8c8.8-11.2,13.5-25.1,13.6-39.3c0-35.9-29.1-65-65-65s-65,29.1-65,65c0.1,14.3,4.8,28.1,13.6,39.3
	c-44.3,3.3-78.5,40.2-78.6,84.6v97.1c0,7.2,5.8,13,13,13l0,0h39v169c0,7.2,5.8,13,13,13l0,0h130c7.2,0,13-5.8,13-13l0,0v-169h39
	c7.2,0,13-5.8,13-13l0,0v-97.1C529.9,304,495.7,267.2,451.4,263.8z M400,185.5c22.5,0,40.5,19,38.9,41.8
	c-1.3,19.2-16.9,34.8-36.1,36.1C380,265,361,247,361,224.5C361,203,378.5,185.5,400,185.5z M504,432.5h-26v-104h-26v286h-39v-156
	h-26v156h-39v-286h-26v104h-26v-84.1c0-32.5,26.4-58.9,58.9-58.9H445c32.5,0,58.9,26.4,58.9,58.9v84.1H504z"/>
</svg>
